<?xml-stylesheet href="https://s3.amazonaws.com/maker.works.boards/css/blackpcb.css" type="text/css"?><svg xmlns="http://www.w3.org/2000/svg" version="1.1" xmlns:xlink="http://www.w3.org/1999/xlink" stroke-width="0" stroke-linecap="round" stroke-linejoin="round" width="2.441in" height="1.244in" id="pcb_bottom" viewBox="4 4 2441 1244"><defs><circle cx="0" cy="0" r="14" id="tool-T10-pad-1000"/><circle cx="0" cy="0" r="19" id="tool-T11-pad-1001"/><circle cx="0" cy="0" r="20" id="tool-T12-pad-1002"/><circle cx="0" cy="0" r="17.5" id="tool-T13-pad-1003"/><circle cx="0" cy="0" r="37.5" id="tool-D10-pad-1004"/><circle cx="0" cy="0" r="32.5" id="tool-D11-pad-1005"/><circle cx="0" cy="0" r="40" id="tool-D12-pad-1006"/><circle cx="0" cy="0" r="39" id="tool-D13-pad-1007"/><rect x="-40" y="-40" width="80" height="80" id="tool-D14-pad-1008"/><rect x="-37.5" y="-37.5" width="75" height="75" id="tool-D15-pad-1009"/><circle cx="0" cy="0" r="37.5" id="tool-D10-pad-1014"/><circle cx="0" cy="0" r="45" id="tool-D11-pad-1015"/><circle cx="0" cy="0" r="44" id="tool-D12-pad-1016"/><circle cx="0" cy="0" r="42.5" id="tool-D13-pad-1017"/><rect x="-45" y="-45" width="90" height="90" id="tool-D14-pad-1018"/><rect x="-42.5" y="-42.5" width="85" height="85" id="tool-D15-pad-1019"/><g id="pcb_bottom-cu" fill="currentColor" stroke="currentColor"><use x="102" y="1096" xlink:href="#tool-D10-pad-1004"/><use x="822" y="591" xlink:href="#tool-D11-pad-1005"/><use x="822" y="691" xlink:href="#tool-D11-pad-1005"/><use x="222" y="766" xlink:href="#tool-D12-pad-1006"/><use x="222" y="866" xlink:href="#tool-D12-pad-1006"/><use x="222" y="1015" xlink:href="#tool-D12-pad-1006"/><use x="222" y="1115" xlink:href="#tool-D12-pad-1006"/><use x="222" y="515" xlink:href="#tool-D12-pad-1006"/><use x="222" y="615" xlink:href="#tool-D12-pad-1006"/><use x="322" y="191" xlink:href="#tool-D12-pad-1006"/><use x="222" y="191" xlink:href="#tool-D12-pad-1006"/><use x="572" y="190" xlink:href="#tool-D12-pad-1006"/><use x="472" y="190" xlink:href="#tool-D12-pad-1006"/><use x="2072" y="190" xlink:href="#tool-D12-pad-1006"/><use x="1972" y="190" xlink:href="#tool-D12-pad-1006"/><use x="1572" y="190" xlink:href="#tool-D12-pad-1006"/><use x="1472" y="190" xlink:href="#tool-D12-pad-1006"/><use x="1823" y="191" xlink:href="#tool-D12-pad-1006"/><use x="1723" y="191" xlink:href="#tool-D12-pad-1006"/><use x="822" y="190" xlink:href="#tool-D12-pad-1006"/><use x="722" y="190" xlink:href="#tool-D12-pad-1006"/><use x="1322" y="190" xlink:href="#tool-D12-pad-1006"/><use x="1222" y="190" xlink:href="#tool-D12-pad-1006"/><use x="1072" y="190" xlink:href="#tool-D12-pad-1006"/><use x="972" y="190" xlink:href="#tool-D12-pad-1006"/><use x="2322" y="191" xlink:href="#tool-D12-pad-1006"/><use x="2222" y="191" xlink:href="#tool-D12-pad-1006"/><use x="422" y="1016" xlink:href="#tool-D13-pad-1007"/><use x="522" y="1016" xlink:href="#tool-D13-pad-1007"/><use x="622" y="1016" xlink:href="#tool-D13-pad-1007"/><use x="722" y="1016" xlink:href="#tool-D13-pad-1007"/><use x="822" y="1016" xlink:href="#tool-D13-pad-1007"/><use x="922" y="1016" xlink:href="#tool-D13-pad-1007"/><use x="1022" y="1016" xlink:href="#tool-D13-pad-1007"/><use x="1122" y="1016" xlink:href="#tool-D13-pad-1007"/><use x="1222" y="1016" xlink:href="#tool-D13-pad-1007"/><use x="1322" y="1016" xlink:href="#tool-D13-pad-1007"/><use x="1422" y="1016" xlink:href="#tool-D13-pad-1007"/><use x="1522" y="1016" xlink:href="#tool-D13-pad-1007"/><use x="1622" y="1016" xlink:href="#tool-D13-pad-1007"/><use x="1722" y="1016" xlink:href="#tool-D13-pad-1007"/><use x="1822" y="1016" xlink:href="#tool-D13-pad-1007"/><use x="1922" y="1016" xlink:href="#tool-D13-pad-1007"/><use x="2022" y="1016" xlink:href="#tool-D13-pad-1007"/><use x="2122" y="1016" xlink:href="#tool-D13-pad-1007"/><use x="2222" y="1016" xlink:href="#tool-D13-pad-1007"/><use x="2322" y="1016" xlink:href="#tool-D13-pad-1007"/><use x="422" y="1016" xlink:href="#tool-D13-pad-1007"/><use x="522" y="1016" xlink:href="#tool-D13-pad-1007"/><use x="622" y="1016" xlink:href="#tool-D13-pad-1007"/><use x="722" y="1016" xlink:href="#tool-D13-pad-1007"/><use x="822" y="1016" xlink:href="#tool-D13-pad-1007"/><use x="922" y="1016" xlink:href="#tool-D13-pad-1007"/><use x="1022" y="1016" xlink:href="#tool-D13-pad-1007"/><use x="1122" y="1016" xlink:href="#tool-D13-pad-1007"/><use x="1222" y="1016" xlink:href="#tool-D13-pad-1007"/><use x="1322" y="1016" xlink:href="#tool-D13-pad-1007"/><use x="1422" y="1016" xlink:href="#tool-D13-pad-1007"/><use x="1522" y="1016" xlink:href="#tool-D13-pad-1007"/><use x="1622" y="1016" xlink:href="#tool-D13-pad-1007"/><use x="1722" y="1016" xlink:href="#tool-D13-pad-1007"/><use x="1822" y="1016" xlink:href="#tool-D13-pad-1007"/><use x="1922" y="1016" xlink:href="#tool-D13-pad-1007"/><use x="2022" y="1016" xlink:href="#tool-D13-pad-1007"/><use x="2122" y="1016" xlink:href="#tool-D13-pad-1007"/><use x="2222" y="1016" xlink:href="#tool-D13-pad-1007"/><use x="2322" y="1016" xlink:href="#tool-D13-pad-1007"/><use x="2322" y="1116" xlink:href="#tool-D13-pad-1007"/><use x="2222" y="1116" xlink:href="#tool-D13-pad-1007"/><use x="2122" y="1116" xlink:href="#tool-D13-pad-1007"/><use x="2022" y="1116" xlink:href="#tool-D13-pad-1007"/><use x="1922" y="1116" xlink:href="#tool-D13-pad-1007"/><use x="1822" y="1116" xlink:href="#tool-D13-pad-1007"/><use x="1722" y="1116" xlink:href="#tool-D13-pad-1007"/><use x="1622" y="1116" xlink:href="#tool-D13-pad-1007"/><use x="1522" y="1116" xlink:href="#tool-D13-pad-1007"/><use x="1422" y="1116" xlink:href="#tool-D13-pad-1007"/><use x="1322" y="1116" xlink:href="#tool-D13-pad-1007"/><use x="1222" y="1116" xlink:href="#tool-D13-pad-1007"/><use x="1122" y="1116" xlink:href="#tool-D13-pad-1007"/><use x="1022" y="1116" xlink:href="#tool-D13-pad-1007"/><use x="922" y="1116" xlink:href="#tool-D13-pad-1007"/><use x="822" y="1116" xlink:href="#tool-D13-pad-1007"/><use x="722" y="1116" xlink:href="#tool-D13-pad-1007"/><use x="622" y="1116" xlink:href="#tool-D13-pad-1007"/><use x="522" y="1116" xlink:href="#tool-D13-pad-1007"/><use x="422" y="1116" xlink:href="#tool-D13-pad-1007"/><use x="422" y="516" xlink:href="#tool-D10-pad-1004"/><use x="422" y="916" xlink:href="#tool-D10-pad-1004"/><use x="2322" y="791" xlink:href="#tool-D10-pad-1004"/><use x="2322" y="491" xlink:href="#tool-D10-pad-1004"/><use x="2222" y="791" xlink:href="#tool-D10-pad-1004"/><use x="2222" y="491" xlink:href="#tool-D10-pad-1004"/><use x="2122" y="791" xlink:href="#tool-D10-pad-1004"/><use x="2122" y="491" xlink:href="#tool-D10-pad-1004"/><use x="2022" y="791" xlink:href="#tool-D10-pad-1004"/><use x="2022" y="491" xlink:href="#tool-D10-pad-1004"/><use x="1922" y="791" xlink:href="#tool-D10-pad-1004"/><use x="1922" y="491" xlink:href="#tool-D10-pad-1004"/><use x="1822" y="791" xlink:href="#tool-D10-pad-1004"/><use x="1822" y="491" xlink:href="#tool-D10-pad-1004"/><use x="1722" y="791" xlink:href="#tool-D10-pad-1004"/><use x="1722" y="491" xlink:href="#tool-D10-pad-1004"/><use x="1622" y="791" xlink:href="#tool-D10-pad-1004"/><use x="1622" y="491" xlink:href="#tool-D10-pad-1004"/><use x="1522" y="791" xlink:href="#tool-D10-pad-1004"/><use x="1522" y="491" xlink:href="#tool-D10-pad-1004"/><use x="222" y="766" xlink:href="#tool-D14-pad-1008"/><use x="222" y="1015" xlink:href="#tool-D14-pad-1008"/><use x="222" y="515" xlink:href="#tool-D14-pad-1008"/><use x="322" y="191" xlink:href="#tool-D14-pad-1008"/><use x="572" y="190" xlink:href="#tool-D14-pad-1008"/><use x="2072" y="190" xlink:href="#tool-D14-pad-1008"/><use x="1572" y="190" xlink:href="#tool-D14-pad-1008"/><use x="1823" y="191" xlink:href="#tool-D14-pad-1008"/><use x="822" y="190" xlink:href="#tool-D14-pad-1008"/><use x="1322" y="190" xlink:href="#tool-D14-pad-1008"/><use x="1072" y="190" xlink:href="#tool-D14-pad-1008"/><use x="2322" y="191" xlink:href="#tool-D14-pad-1008"/><use x="2322" y="791" xlink:href="#tool-D15-pad-1009"/><path stroke-width="24" fill="none" d="M 147 591 L 147 216 M 172 616 L 147 591 M 172 191 L 191 191 M 147 216 L 172 191 M 191 616 L 172 616 M 272 616 L 254 616 M 297 641 L 272 616 M 297 991 L 297 641 M 272 1016 L 297 991 M 254 1016 L 272 1016"/><path d="M 40 1212 L 40 1166 L 2328 1166 L 2328 1164 L 2336 1164 L 2336 1162 L 2342 1162 L 2342 1160 L 2346 1160 L 2346 1158 L 2350 1158 L 2350 1156 L 2352 1156 L 2352 1154 L 2354 1154 L 2354 1152 L 2356 1152 L 2356 1150 L 2358 1150 L 2358 1148 L 2360 1148 L 2360 1146 L 2362 1146 L 2362 1142 L 2364 1142 L 2364 1140 L 2366 1140 L 2366 1136 L 2368 1136 L 2368 1130 L 2370 1130 L 2370 1104 L 2368 1104 L 2368 1098 L 2366 1098 L 2366 1094 L 2364 1094 L 2364 1090 L 2362 1090 L 2362 1088 L 2360 1088 L 2360 1084 L 2358 1084 L 2358 1082 L 2356 1082 L 2356 1080 L 2354 1080 L 2354 1078 L 2350 1078 L 2350 1056 L 2352 1056 L 2352 1054 L 2354 1054 L 2354 1052 L 2356 1052 L 2356 1050 L 2358 1050 L 2358 1048 L 2360 1048 L 2360 1046 L 2362 1046 L 2362 1042 L 2364 1042 L 2364 1040 L 2366 1040 L 2366 1036 L 2368 1036 L 2368 1030 L 2370 1030 L 2370 1004 L 2368 1004 L 2368 998 L 2366 998 L 2366 994 L 2364 994 L 2364 990 L 2362 990 L 2362 988 L 2360 988 L 2360 984 L 2358 984 L 2358 982 L 2356 982 L 2356 980 L 2354 980 L 2354 978 L 2350 978 L 2350 976 L 2348 976 L 2348 974 L 2344 974 L 2344 972 L 2340 972 L 2340 970 L 2334 970 L 2334 968 L 2408 968 L 2408 1212 L 40 1212 Z"/><path d="M 40 1166 L 40 1164 L 236 1164 L 236 1162 L 242 1162 L 242 1160 L 246 1160 L 246 1158 L 248 1158 L 248 1156 L 252 1156 L 252 1154 L 254 1154 L 254 1152 L 256 1152 L 256 1150 L 258 1150 L 258 1148 L 260 1148 L 260 1146 L 262 1146 L 262 1144 L 264 1144 L 264 1140 L 266 1140 L 266 1136 L 268 1136 L 268 1132 L 270 1132 L 270 1126 L 272 1126 L 272 1104 L 270 1104 L 270 1096 L 268 1096 L 268 1092 L 266 1092 L 266 1088 L 264 1088 L 264 1086 L 262 1086 L 262 1084 L 260 1084 L 260 1064 L 272 1064 L 272 964 L 396 964 L 396 976 L 394 976 L 394 978 L 390 978 L 390 980 L 388 980 L 388 982 L 386 982 L 386 984 L 384 984 L 384 988 L 382 988 L 382 990 L 380 990 L 380 994 L 378 994 L 378 998 L 376 998 L 376 1004 L 374 1004 L 374 1016 L 372 1016 L 372 1018 L 374 1018 L 374 1030 L 376 1030 L 376 1036 L 378 1036 L 378 1040 L 380 1040 L 380 1044 L 382 1044 L 382 1046 L 384 1046 L 384 1048 L 386 1048 L 386 1050 L 388 1050 L 388 1052 L 390 1052 L 390 1054 L 392 1054 L 392 1056 L 394 1056 L 394 1078 L 390 1078 L 390 1080 L 388 1080 L 388 1082 L 386 1082 L 386 1084 L 384 1084 L 384 1088 L 382 1088 L 382 1090 L 380 1090 L 380 1094 L 378 1094 L 378 1098 L 376 1098 L 376 1104 L 374 1104 L 374 1116 L 372 1116 L 372 1118 L 374 1118 L 374 1130 L 376 1130 L 376 1136 L 378 1136 L 378 1140 L 380 1140 L 380 1144 L 382 1144 L 382 1146 L 384 1146 L 384 1148 L 386 1148 L 386 1150 L 388 1150 L 388 1152 L 390 1152 L 390 1154 L 392 1154 L 392 1156 L 394 1156 L 394 1158 L 398 1158 L 398 1160 L 402 1160 L 402 1162 L 408 1162 L 408 1164 L 416 1164 L 416 1166 L 40 1166 Z"/><path d="M 428 1166 L 428 1164 L 436 1164 L 436 1162 L 442 1162 L 442 1160 L 446 1160 L 446 1158 L 450 1158 L 450 1156 L 452 1156 L 452 1154 L 454 1154 L 454 1152 L 456 1152 L 456 1150 L 458 1150 L 458 1148 L 460 1148 L 460 1146 L 462 1146 L 462 1144 L 482 1144 L 482 1146 L 484 1146 L 484 1148 L 486 1148 L 486 1150 L 488 1150 L 488 1152 L 490 1152 L 490 1154 L 492 1154 L 492 1156 L 494 1156 L 494 1158 L 498 1158 L 498 1160 L 502 1160 L 502 1162 L 508 1162 L 508 1164 L 516 1164 L 516 1166 L 428 1166 Z"/><path d="M 528 1166 L 528 1164 L 536 1164 L 536 1162 L 542 1162 L 542 1160 L 546 1160 L 546 1158 L 550 1158 L 550 1156 L 552 1156 L 552 1154 L 554 1154 L 554 1152 L 556 1152 L 556 1150 L 558 1150 L 558 1148 L 560 1148 L 560 1146 L 562 1146 L 562 1144 L 582 1144 L 582 1146 L 584 1146 L 584 1148 L 586 1148 L 586 1150 L 588 1150 L 588 1152 L 590 1152 L 590 1154 L 592 1154 L 592 1156 L 594 1156 L 594 1158 L 598 1158 L 598 1160 L 602 1160 L 602 1162 L 608 1162 L 608 1164 L 616 1164 L 616 1166 L 528 1166 Z"/><path d="M 628 1166 L 628 1164 L 636 1164 L 636 1162 L 642 1162 L 642 1160 L 646 1160 L 646 1158 L 650 1158 L 650 1156 L 652 1156 L 652 1154 L 654 1154 L 654 1152 L 656 1152 L 656 1150 L 658 1150 L 658 1148 L 660 1148 L 660 1146 L 662 1146 L 662 1144 L 682 1144 L 682 1146 L 684 1146 L 684 1148 L 686 1148 L 686 1150 L 688 1150 L 688 1152 L 690 1152 L 690 1154 L 692 1154 L 692 1156 L 694 1156 L 694 1158 L 698 1158 L 698 1160 L 702 1160 L 702 1162 L 708 1162 L 708 1164 L 716 1164 L 716 1166 L 628 1166 Z"/><path d="M 728 1166 L 728 1164 L 736 1164 L 736 1162 L 742 1162 L 742 1160 L 746 1160 L 746 1158 L 750 1158 L 750 1156 L 752 1156 L 752 1154 L 754 1154 L 754 1152 L 756 1152 L 756 1150 L 758 1150 L 758 1148 L 760 1148 L 760 1146 L 762 1146 L 762 1144 L 782 1144 L 782 1146 L 784 1146 L 784 1148 L 786 1148 L 786 1150 L 788 1150 L 788 1152 L 790 1152 L 790 1154 L 792 1154 L 792 1156 L 794 1156 L 794 1158 L 798 1158 L 798 1160 L 802 1160 L 802 1162 L 808 1162 L 808 1164 L 816 1164 L 816 1166 L 728 1166 Z"/><path d="M 828 1166 L 828 1164 L 836 1164 L 836 1162 L 842 1162 L 842 1160 L 846 1160 L 846 1158 L 850 1158 L 850 1156 L 852 1156 L 852 1154 L 854 1154 L 854 1152 L 856 1152 L 856 1150 L 858 1150 L 858 1148 L 860 1148 L 860 1146 L 862 1146 L 862 1144 L 882 1144 L 882 1146 L 884 1146 L 884 1148 L 886 1148 L 886 1150 L 888 1150 L 888 1152 L 890 1152 L 890 1154 L 892 1154 L 892 1156 L 894 1156 L 894 1158 L 898 1158 L 898 1160 L 902 1160 L 902 1162 L 908 1162 L 908 1164 L 916 1164 L 916 1166 L 828 1166 Z"/><path d="M 928 1166 L 928 1164 L 936 1164 L 936 1162 L 942 1162 L 942 1160 L 946 1160 L 946 1158 L 950 1158 L 950 1156 L 952 1156 L 952 1154 L 954 1154 L 954 1152 L 956 1152 L 956 1150 L 958 1150 L 958 1148 L 960 1148 L 960 1146 L 962 1146 L 962 1144 L 982 1144 L 982 1146 L 984 1146 L 984 1148 L 986 1148 L 986 1150 L 988 1150 L 988 1152 L 990 1152 L 990 1154 L 992 1154 L 992 1156 L 994 1156 L 994 1158 L 998 1158 L 998 1160 L 1002 1160 L 1002 1162 L 1008 1162 L 1008 1164 L 1016 1164 L 1016 1166 L 928 1166 Z"/><path d="M 1028 1166 L 1028 1164 L 1036 1164 L 1036 1162 L 1042 1162 L 1042 1160 L 1046 1160 L 1046 1158 L 1050 1158 L 1050 1156 L 1052 1156 L 1052 1154 L 1054 1154 L 1054 1152 L 1056 1152 L 1056 1150 L 1058 1150 L 1058 1148 L 1060 1148 L 1060 1146 L 1062 1146 L 1062 1144 L 1082 1144 L 1082 1146 L 1084 1146 L 1084 1148 L 1086 1148 L 1086 1150 L 1088 1150 L 1088 1152 L 1090 1152 L 1090 1154 L 1092 1154 L 1092 1156 L 1094 1156 L 1094 1158 L 1098 1158 L 1098 1160 L 1102 1160 L 1102 1162 L 1108 1162 L 1108 1164 L 1116 1164 L 1116 1166 L 1028 1166 Z"/><path d="M 1128 1166 L 1128 1164 L 1136 1164 L 1136 1162 L 1142 1162 L 1142 1160 L 1146 1160 L 1146 1158 L 1150 1158 L 1150 1156 L 1152 1156 L 1152 1154 L 1154 1154 L 1154 1152 L 1156 1152 L 1156 1150 L 1158 1150 L 1158 1148 L 1160 1148 L 1160 1146 L 1162 1146 L 1162 1144 L 1182 1144 L 1182 1146 L 1184 1146 L 1184 1148 L 1186 1148 L 1186 1150 L 1188 1150 L 1188 1152 L 1190 1152 L 1190 1154 L 1192 1154 L 1192 1156 L 1194 1156 L 1194 1158 L 1198 1158 L 1198 1160 L 1202 1160 L 1202 1162 L 1208 1162 L 1208 1164 L 1216 1164 L 1216 1166 L 1128 1166 Z"/><path d="M 1228 1166 L 1228 1164 L 1236 1164 L 1236 1162 L 1242 1162 L 1242 1160 L 1246 1160 L 1246 1158 L 1250 1158 L 1250 1156 L 1252 1156 L 1252 1154 L 1254 1154 L 1254 1152 L 1256 1152 L 1256 1150 L 1258 1150 L 1258 1148 L 1260 1148 L 1260 1146 L 1262 1146 L 1262 1144 L 1282 1144 L 1282 1146 L 1284 1146 L 1284 1148 L 1286 1148 L 1286 1150 L 1288 1150 L 1288 1152 L 1290 1152 L 1290 1154 L 1292 1154 L 1292 1156 L 1294 1156 L 1294 1158 L 1298 1158 L 1298 1160 L 1302 1160 L 1302 1162 L 1308 1162 L 1308 1164 L 1316 1164 L 1316 1166 L 1228 1166 Z"/><path d="M 1328 1166 L 1328 1164 L 1336 1164 L 1336 1162 L 1342 1162 L 1342 1160 L 1346 1160 L 1346 1158 L 1350 1158 L 1350 1156 L 1352 1156 L 1352 1154 L 1354 1154 L 1354 1152 L 1356 1152 L 1356 1150 L 1358 1150 L 1358 1148 L 1360 1148 L 1360 1146 L 1362 1146 L 1362 1144 L 1382 1144 L 1382 1146 L 1384 1146 L 1384 1148 L 1386 1148 L 1386 1150 L 1388 1150 L 1388 1152 L 1390 1152 L 1390 1154 L 1392 1154 L 1392 1156 L 1394 1156 L 1394 1158 L 1398 1158 L 1398 1160 L 1402 1160 L 1402 1162 L 1408 1162 L 1408 1164 L 1416 1164 L 1416 1166 L 1328 1166 Z"/><path d="M 1428 1166 L 1428 1164 L 1436 1164 L 1436 1162 L 1442 1162 L 1442 1160 L 1446 1160 L 1446 1158 L 1450 1158 L 1450 1156 L 1452 1156 L 1452 1154 L 1454 1154 L 1454 1152 L 1456 1152 L 1456 1150 L 1458 1150 L 1458 1148 L 1460 1148 L 1460 1146 L 1462 1146 L 1462 1144 L 1482 1144 L 1482 1146 L 1484 1146 L 1484 1148 L 1486 1148 L 1486 1150 L 1488 1150 L 1488 1152 L 1490 1152 L 1490 1154 L 1492 1154 L 1492 1156 L 1494 1156 L 1494 1158 L 1498 1158 L 1498 1160 L 1502 1160 L 1502 1162 L 1508 1162 L 1508 1164 L 1516 1164 L 1516 1166 L 1428 1166 Z"/><path d="M 1528 1166 L 1528 1164 L 1536 1164 L 1536 1162 L 1542 1162 L 1542 1160 L 1546 1160 L 1546 1158 L 1550 1158 L 1550 1156 L 1552 1156 L 1552 1154 L 1554 1154 L 1554 1152 L 1556 1152 L 1556 1150 L 1558 1150 L 1558 1148 L 1560 1148 L 1560 1146 L 1562 1146 L 1562 1144 L 1582 1144 L 1582 1146 L 1584 1146 L 1584 1148 L 1586 1148 L 1586 1150 L 1588 1150 L 1588 1152 L 1590 1152 L 1590 1154 L 1592 1154 L 1592 1156 L 1594 1156 L 1594 1158 L 1598 1158 L 1598 1160 L 1602 1160 L 1602 1162 L 1608 1162 L 1608 1164 L 1616 1164 L 1616 1166 L 1528 1166 Z"/><path d="M 1628 1166 L 1628 1164 L 1636 1164 L 1636 1162 L 1642 1162 L 1642 1160 L 1646 1160 L 1646 1158 L 1650 1158 L 1650 1156 L 1652 1156 L 1652 1154 L 1654 1154 L 1654 1152 L 1656 1152 L 1656 1150 L 1658 1150 L 1658 1148 L 1660 1148 L 1660 1146 L 1662 1146 L 1662 1144 L 1682 1144 L 1682 1146 L 1684 1146 L 1684 1148 L 1686 1148 L 1686 1150 L 1688 1150 L 1688 1152 L 1690 1152 L 1690 1154 L 1692 1154 L 1692 1156 L 1694 1156 L 1694 1158 L 1698 1158 L 1698 1160 L 1702 1160 L 1702 1162 L 1708 1162 L 1708 1164 L 1716 1164 L 1716 1166 L 1628 1166 Z"/><path d="M 1728 1166 L 1728 1164 L 1736 1164 L 1736 1162 L 1742 1162 L 1742 1160 L 1746 1160 L 1746 1158 L 1750 1158 L 1750 1156 L 1752 1156 L 1752 1154 L 1754 1154 L 1754 1152 L 1756 1152 L 1756 1150 L 1758 1150 L 1758 1148 L 1760 1148 L 1760 1146 L 1762 1146 L 1762 1144 L 1782 1144 L 1782 1146 L 1784 1146 L 1784 1148 L 1786 1148 L 1786 1150 L 1788 1150 L 1788 1152 L 1790 1152 L 1790 1154 L 1792 1154 L 1792 1156 L 1794 1156 L 1794 1158 L 1798 1158 L 1798 1160 L 1802 1160 L 1802 1162 L 1808 1162 L 1808 1164 L 1816 1164 L 1816 1166 L 1728 1166 Z"/><path d="M 1828 1166 L 1828 1164 L 1836 1164 L 1836 1162 L 1842 1162 L 1842 1160 L 1846 1160 L 1846 1158 L 1850 1158 L 1850 1156 L 1852 1156 L 1852 1154 L 1854 1154 L 1854 1152 L 1856 1152 L 1856 1150 L 1858 1150 L 1858 1148 L 1860 1148 L 1860 1146 L 1862 1146 L 1862 1144 L 1882 1144 L 1882 1146 L 1884 1146 L 1884 1148 L 1886 1148 L 1886 1150 L 1888 1150 L 1888 1152 L 1890 1152 L 1890 1154 L 1892 1154 L 1892 1156 L 1894 1156 L 1894 1158 L 1898 1158 L 1898 1160 L 1902 1160 L 1902 1162 L 1908 1162 L 1908 1164 L 1916 1164 L 1916 1166 L 1828 1166 Z"/><path d="M 1928 1166 L 1928 1164 L 1936 1164 L 1936 1162 L 1942 1162 L 1942 1160 L 1946 1160 L 1946 1158 L 1950 1158 L 1950 1156 L 1952 1156 L 1952 1154 L 1954 1154 L 1954 1152 L 1956 1152 L 1956 1150 L 1958 1150 L 1958 1148 L 1960 1148 L 1960 1146 L 1962 1146 L 1962 1144 L 1982 1144 L 1982 1146 L 1984 1146 L 1984 1148 L 1986 1148 L 1986 1150 L 1988 1150 L 1988 1152 L 1990 1152 L 1990 1154 L 1992 1154 L 1992 1156 L 1994 1156 L 1994 1158 L 1998 1158 L 1998 1160 L 2002 1160 L 2002 1162 L 2008 1162 L 2008 1164 L 2016 1164 L 2016 1166 L 1928 1166 Z"/><path d="M 2028 1166 L 2028 1164 L 2036 1164 L 2036 1162 L 2042 1162 L 2042 1160 L 2046 1160 L 2046 1158 L 2050 1158 L 2050 1156 L 2052 1156 L 2052 1154 L 2054 1154 L 2054 1152 L 2056 1152 L 2056 1150 L 2058 1150 L 2058 1148 L 2060 1148 L 2060 1146 L 2062 1146 L 2062 1144 L 2082 1144 L 2082 1146 L 2084 1146 L 2084 1148 L 2086 1148 L 2086 1150 L 2088 1150 L 2088 1152 L 2090 1152 L 2090 1154 L 2092 1154 L 2092 1156 L 2094 1156 L 2094 1158 L 2098 1158 L 2098 1160 L 2102 1160 L 2102 1162 L 2108 1162 L 2108 1164 L 2116 1164 L 2116 1166 L 2028 1166 Z"/><path d="M 2128 1166 L 2128 1164 L 2136 1164 L 2136 1162 L 2142 1162 L 2142 1160 L 2146 1160 L 2146 1158 L 2150 1158 L 2150 1156 L 2152 1156 L 2152 1154 L 2154 1154 L 2154 1152 L 2156 1152 L 2156 1150 L 2158 1150 L 2158 1148 L 2160 1148 L 2160 1146 L 2162 1146 L 2162 1144 L 2182 1144 L 2182 1146 L 2184 1146 L 2184 1148 L 2186 1148 L 2186 1150 L 2188 1150 L 2188 1152 L 2190 1152 L 2190 1154 L 2192 1154 L 2192 1156 L 2194 1156 L 2194 1158 L 2198 1158 L 2198 1160 L 2202 1160 L 2202 1162 L 2208 1162 L 2208 1164 L 2216 1164 L 2216 1166 L 2128 1166 Z"/><path d="M 2228 1166 L 2228 1164 L 2236 1164 L 2236 1162 L 2242 1162 L 2242 1160 L 2246 1160 L 2246 1158 L 2250 1158 L 2250 1156 L 2252 1156 L 2252 1154 L 2254 1154 L 2254 1152 L 2256 1152 L 2256 1150 L 2258 1150 L 2258 1148 L 2260 1148 L 2260 1146 L 2262 1146 L 2262 1144 L 2282 1144 L 2282 1146 L 2284 1146 L 2284 1148 L 2286 1148 L 2286 1150 L 2288 1150 L 2288 1152 L 2290 1152 L 2290 1154 L 2292 1154 L 2292 1156 L 2294 1156 L 2294 1158 L 2298 1158 L 2298 1160 L 2302 1160 L 2302 1162 L 2308 1162 L 2308 1164 L 2316 1164 L 2316 1166 L 2228 1166 Z"/><path d="M 40 1164 L 40 964 L 174 964 L 174 966 L 172 966 L 172 1064 L 184 1064 L 184 1084 L 182 1084 L 182 1088 L 180 1088 L 180 1090 L 178 1090 L 178 1094 L 176 1094 L 176 1100 L 174 1100 L 174 1108 L 172 1108 L 172 1122 L 174 1122 L 174 1130 L 176 1130 L 176 1136 L 178 1136 L 178 1138 L 180 1138 L 180 1142 L 182 1142 L 182 1146 L 184 1146 L 184 1148 L 186 1148 L 186 1150 L 188 1150 L 188 1152 L 190 1152 L 190 1154 L 194 1154 L 194 1156 L 196 1156 L 196 1158 L 200 1158 L 200 1160 L 204 1160 L 204 1162 L 210 1162 L 210 1164 L 40 1164 Z"/><path d="M 462 990 L 462 988 L 460 988 L 460 984 L 458 984 L 458 982 L 456 982 L 456 980 L 454 980 L 454 978 L 450 978 L 450 976 L 448 976 L 448 968 L 510 968 L 510 970 L 504 970 L 504 972 L 500 972 L 500 974 L 496 974 L 496 976 L 494 976 L 494 978 L 490 978 L 490 980 L 488 980 L 488 982 L 486 982 L 486 984 L 484 984 L 484 988 L 482 988 L 482 990 L 462 990 Z"/><path d="M 562 990 L 562 988 L 560 988 L 560 984 L 558 984 L 558 982 L 556 982 L 556 980 L 554 980 L 554 978 L 550 978 L 550 976 L 548 976 L 548 974 L 544 974 L 544 972 L 540 972 L 540 970 L 534 970 L 534 968 L 610 968 L 610 970 L 604 970 L 604 972 L 600 972 L 600 974 L 596 974 L 596 976 L 594 976 L 594 978 L 590 978 L 590 980 L 588 980 L 588 982 L 586 982 L 586 984 L 584 984 L 584 988 L 582 988 L 582 990 L 562 990 Z"/><path d="M 662 990 L 662 988 L 660 988 L 660 984 L 658 984 L 658 982 L 656 982 L 656 980 L 654 980 L 654 978 L 650 978 L 650 976 L 648 976 L 648 974 L 644 974 L 644 972 L 640 972 L 640 970 L 634 970 L 634 968 L 710 968 L 710 970 L 704 970 L 704 972 L 700 972 L 700 974 L 696 974 L 696 976 L 694 976 L 694 978 L 690 978 L 690 980 L 688 980 L 688 982 L 686 982 L 686 984 L 684 984 L 684 988 L 682 988 L 682 990 L 662 990 Z"/><path d="M 762 990 L 762 988 L 760 988 L 760 984 L 758 984 L 758 982 L 756 982 L 756 980 L 754 980 L 754 978 L 750 978 L 750 976 L 748 976 L 748 974 L 744 974 L 744 972 L 740 972 L 740 970 L 734 970 L 734 968 L 810 968 L 810 970 L 804 970 L 804 972 L 800 972 L 800 974 L 796 974 L 796 976 L 794 976 L 794 978 L 790 978 L 790 980 L 788 980 L 788 982 L 786 982 L 786 984 L 784 984 L 784 988 L 782 988 L 782 990 L 762 990 Z"/><path d="M 862 990 L 862 988 L 860 988 L 860 984 L 858 984 L 858 982 L 856 982 L 856 980 L 854 980 L 854 978 L 850 978 L 850 976 L 848 976 L 848 974 L 844 974 L 844 972 L 840 972 L 840 970 L 834 970 L 834 968 L 910 968 L 910 970 L 904 970 L 904 972 L 900 972 L 900 974 L 896 974 L 896 976 L 894 976 L 894 978 L 890 978 L 890 980 L 888 980 L 888 982 L 886 982 L 886 984 L 884 984 L 884 988 L 882 988 L 882 990 L 862 990 Z"/><path d="M 962 990 L 962 988 L 960 988 L 960 984 L 958 984 L 958 982 L 956 982 L 956 980 L 954 980 L 954 978 L 950 978 L 950 976 L 948 976 L 948 974 L 944 974 L 944 972 L 940 972 L 940 970 L 934 970 L 934 968 L 1010 968 L 1010 970 L 1004 970 L 1004 972 L 1000 972 L 1000 974 L 996 974 L 996 976 L 994 976 L 994 978 L 990 978 L 990 980 L 988 980 L 988 982 L 986 982 L 986 984 L 984 984 L 984 988 L 982 988 L 982 990 L 962 990 Z"/><path d="M 1062 990 L 1062 988 L 1060 988 L 1060 984 L 1058 984 L 1058 982 L 1056 982 L 1056 980 L 1054 980 L 1054 978 L 1050 978 L 1050 976 L 1048 976 L 1048 974 L 1044 974 L 1044 972 L 1040 972 L 1040 970 L 1034 970 L 1034 968 L 1110 968 L 1110 970 L 1104 970 L 1104 972 L 1100 972 L 1100 974 L 1096 974 L 1096 976 L 1094 976 L 1094 978 L 1090 978 L 1090 980 L 1088 980 L 1088 982 L 1086 982 L 1086 984 L 1084 984 L 1084 988 L 1082 988 L 1082 990 L 1062 990 Z"/><path d="M 1162 990 L 1162 988 L 1160 988 L 1160 984 L 1158 984 L 1158 982 L 1156 982 L 1156 980 L 1154 980 L 1154 978 L 1150 978 L 1150 976 L 1148 976 L 1148 974 L 1144 974 L 1144 972 L 1140 972 L 1140 970 L 1134 970 L 1134 968 L 1210 968 L 1210 970 L 1204 970 L 1204 972 L 1200 972 L 1200 974 L 1196 974 L 1196 976 L 1194 976 L 1194 978 L 1190 978 L 1190 980 L 1188 980 L 1188 982 L 1186 982 L 1186 984 L 1184 984 L 1184 988 L 1182 988 L 1182 990 L 1162 990 Z"/><path d="M 1262 990 L 1262 988 L 1260 988 L 1260 984 L 1258 984 L 1258 982 L 1256 982 L 1256 980 L 1254 980 L 1254 978 L 1250 978 L 1250 976 L 1248 976 L 1248 974 L 1244 974 L 1244 972 L 1240 972 L 1240 970 L 1234 970 L 1234 968 L 1310 968 L 1310 970 L 1304 970 L 1304 972 L 1300 972 L 1300 974 L 1296 974 L 1296 976 L 1294 976 L 1294 978 L 1290 978 L 1290 980 L 1288 980 L 1288 982 L 1286 982 L 1286 984 L 1284 984 L 1284 988 L 1282 988 L 1282 990 L 1262 990 Z"/><path d="M 1362 990 L 1362 988 L 1360 988 L 1360 984 L 1358 984 L 1358 982 L 1356 982 L 1356 980 L 1354 980 L 1354 978 L 1350 978 L 1350 976 L 1348 976 L 1348 974 L 1344 974 L 1344 972 L 1340 972 L 1340 970 L 1334 970 L 1334 968 L 1410 968 L 1410 970 L 1404 970 L 1404 972 L 1400 972 L 1400 974 L 1396 974 L 1396 976 L 1394 976 L 1394 978 L 1390 978 L 1390 980 L 1388 980 L 1388 982 L 1386 982 L 1386 984 L 1384 984 L 1384 988 L 1382 988 L 1382 990 L 1362 990 Z"/><path d="M 1462 990 L 1462 988 L 1460 988 L 1460 984 L 1458 984 L 1458 982 L 1456 982 L 1456 980 L 1454 980 L 1454 978 L 1450 978 L 1450 976 L 1448 976 L 1448 974 L 1444 974 L 1444 972 L 1440 972 L 1440 970 L 1434 970 L 1434 968 L 1510 968 L 1510 970 L 1504 970 L 1504 972 L 1500 972 L 1500 974 L 1496 974 L 1496 976 L 1494 976 L 1494 978 L 1490 978 L 1490 980 L 1488 980 L 1488 982 L 1486 982 L 1486 984 L 1484 984 L 1484 988 L 1482 988 L 1482 990 L 1462 990 Z"/><path d="M 1562 990 L 1562 988 L 1560 988 L 1560 984 L 1558 984 L 1558 982 L 1556 982 L 1556 980 L 1554 980 L 1554 978 L 1550 978 L 1550 976 L 1548 976 L 1548 974 L 1544 974 L 1544 972 L 1540 972 L 1540 970 L 1534 970 L 1534 968 L 1610 968 L 1610 970 L 1604 970 L 1604 972 L 1600 972 L 1600 974 L 1596 974 L 1596 976 L 1594 976 L 1594 978 L 1590 978 L 1590 980 L 1588 980 L 1588 982 L 1586 982 L 1586 984 L 1584 984 L 1584 988 L 1582 988 L 1582 990 L 1562 990 Z"/><path d="M 1662 990 L 1662 988 L 1660 988 L 1660 984 L 1658 984 L 1658 982 L 1656 982 L 1656 980 L 1654 980 L 1654 978 L 1650 978 L 1650 976 L 1648 976 L 1648 974 L 1644 974 L 1644 972 L 1640 972 L 1640 970 L 1634 970 L 1634 968 L 1710 968 L 1710 970 L 1704 970 L 1704 972 L 1700 972 L 1700 974 L 1696 974 L 1696 976 L 1694 976 L 1694 978 L 1690 978 L 1690 980 L 1688 980 L 1688 982 L 1686 982 L 1686 984 L 1684 984 L 1684 988 L 1682 988 L 1682 990 L 1662 990 Z"/><path d="M 1762 990 L 1762 988 L 1760 988 L 1760 984 L 1758 984 L 1758 982 L 1756 982 L 1756 980 L 1754 980 L 1754 978 L 1750 978 L 1750 976 L 1748 976 L 1748 974 L 1744 974 L 1744 972 L 1740 972 L 1740 970 L 1734 970 L 1734 968 L 1810 968 L 1810 970 L 1804 970 L 1804 972 L 1800 972 L 1800 974 L 1796 974 L 1796 976 L 1794 976 L 1794 978 L 1790 978 L 1790 980 L 1788 980 L 1788 982 L 1786 982 L 1786 984 L 1784 984 L 1784 988 L 1782 988 L 1782 990 L 1762 990 Z"/><path d="M 1862 990 L 1862 988 L 1860 988 L 1860 984 L 1858 984 L 1858 982 L 1856 982 L 1856 980 L 1854 980 L 1854 978 L 1850 978 L 1850 976 L 1848 976 L 1848 974 L 1844 974 L 1844 972 L 1840 972 L 1840 970 L 1834 970 L 1834 968 L 1910 968 L 1910 970 L 1904 970 L 1904 972 L 1900 972 L 1900 974 L 1896 974 L 1896 976 L 1894 976 L 1894 978 L 1890 978 L 1890 980 L 1888 980 L 1888 982 L 1886 982 L 1886 984 L 1884 984 L 1884 988 L 1882 988 L 1882 990 L 1862 990 Z"/><path d="M 1962 990 L 1962 988 L 1960 988 L 1960 984 L 1958 984 L 1958 982 L 1956 982 L 1956 980 L 1954 980 L 1954 978 L 1950 978 L 1950 976 L 1948 976 L 1948 974 L 1944 974 L 1944 972 L 1940 972 L 1940 970 L 1934 970 L 1934 968 L 2010 968 L 2010 970 L 2004 970 L 2004 972 L 2000 972 L 2000 974 L 1996 974 L 1996 976 L 1994 976 L 1994 978 L 1990 978 L 1990 980 L 1988 980 L 1988 982 L 1986 982 L 1986 984 L 1984 984 L 1984 988 L 1982 988 L 1982 990 L 1962 990 Z"/><path d="M 2062 990 L 2062 988 L 2060 988 L 2060 984 L 2058 984 L 2058 982 L 2056 982 L 2056 980 L 2054 980 L 2054 978 L 2050 978 L 2050 976 L 2048 976 L 2048 974 L 2044 974 L 2044 972 L 2040 972 L 2040 970 L 2034 970 L 2034 968 L 2110 968 L 2110 970 L 2104 970 L 2104 972 L 2100 972 L 2100 974 L 2096 974 L 2096 976 L 2094 976 L 2094 978 L 2090 978 L 2090 980 L 2088 980 L 2088 982 L 2086 982 L 2086 984 L 2084 984 L 2084 988 L 2082 988 L 2082 990 L 2062 990 Z"/><path d="M 2162 990 L 2162 988 L 2160 988 L 2160 984 L 2158 984 L 2158 982 L 2156 982 L 2156 980 L 2154 980 L 2154 978 L 2150 978 L 2150 976 L 2148 976 L 2148 974 L 2144 974 L 2144 972 L 2140 972 L 2140 970 L 2134 970 L 2134 968 L 2210 968 L 2210 970 L 2204 970 L 2204 972 L 2200 972 L 2200 974 L 2196 974 L 2196 976 L 2194 976 L 2194 978 L 2190 978 L 2190 980 L 2188 980 L 2188 982 L 2186 982 L 2186 984 L 2184 984 L 2184 988 L 2182 988 L 2182 990 L 2162 990 Z"/><path d="M 2262 990 L 2262 988 L 2260 988 L 2260 984 L 2258 984 L 2258 982 L 2256 982 L 2256 980 L 2254 980 L 2254 978 L 2250 978 L 2250 976 L 2248 976 L 2248 974 L 2244 974 L 2244 972 L 2240 972 L 2240 970 L 2234 970 L 2234 968 L 2310 968 L 2310 970 L 2304 970 L 2304 972 L 2300 972 L 2300 974 L 2296 974 L 2296 976 L 2294 976 L 2294 978 L 2290 978 L 2290 980 L 2288 980 L 2288 982 L 2286 982 L 2286 984 L 2284 984 L 2284 988 L 2282 988 L 2282 990 L 2262 990 Z"/><path d="M 448 968 L 448 966 L 2408 966 L 2408 968 L 448 968 Z"/><path d="M 448 968 L 448 966 L 2408 966 L 2408 968 L 448 968 Z"/><path d="M 448 968 L 448 966 L 2408 966 L 2408 968 L 448 968 Z"/><path d="M 448 968 L 448 966 L 2408 966 L 2408 968 L 448 968 Z"/><path d="M 448 968 L 448 966 L 2408 966 L 2408 968 L 448 968 Z"/><path d="M 448 968 L 448 966 L 2408 966 L 2408 968 L 448 968 Z"/><path d="M 448 968 L 448 966 L 2408 966 L 2408 968 L 448 968 Z"/><path d="M 448 968 L 448 966 L 2408 966 L 2408 968 L 448 968 Z"/><path d="M 448 968 L 448 966 L 2408 966 L 2408 968 L 448 968 Z"/><path d="M 448 968 L 448 966 L 2408 966 L 2408 968 L 448 968 Z"/><path d="M 448 968 L 448 966 L 2408 966 L 2408 968 L 448 968 Z"/><path d="M 448 968 L 448 966 L 2408 966 L 2408 968 L 448 968 Z"/><path d="M 448 968 L 448 966 L 2408 966 L 2408 968 L 448 968 Z"/><path d="M 448 968 L 448 966 L 2408 966 L 2408 968 L 448 968 Z"/><path d="M 448 968 L 448 966 L 2408 966 L 2408 968 L 448 968 Z"/><path d="M 448 968 L 448 966 L 2408 966 L 2408 968 L 448 968 Z"/><path d="M 448 968 L 448 966 L 2408 966 L 2408 968 L 448 968 Z"/><path d="M 448 968 L 448 966 L 2408 966 L 2408 968 L 448 968 Z"/><path d="M 448 968 L 448 966 L 2408 966 L 2408 968 L 448 968 Z"/><path d="M 448 968 L 448 966 L 2408 966 L 2408 968 L 448 968 Z"/><path d="M 448 966 L 448 956 L 450 956 L 450 954 L 452 954 L 452 952 L 454 952 L 454 950 L 456 950 L 456 948 L 458 948 L 458 946 L 460 946 L 460 944 L 462 944 L 462 940 L 464 940 L 464 936 L 466 936 L 466 930 L 468 930 L 468 922 L 470 922 L 470 910 L 468 910 L 468 902 L 466 902 L 466 896 L 464 896 L 464 894 L 462 894 L 462 890 L 460 890 L 460 888 L 458 888 L 458 884 L 456 884 L 456 882 L 454 882 L 454 880 L 450 880 L 450 878 L 448 878 L 448 876 L 444 876 L 444 874 L 440 874 L 440 872 L 434 872 L 434 870 L 424 870 L 424 868 L 2408 868 L 2408 966 L 448 966 Z"/><path d="M 40 964 L 40 962 L 396 962 L 396 964 L 40 964 Z"/><path d="M 40 964 L 40 962 L 396 962 L 396 964 L 40 964 Z"/><path d="M 40 962 L 40 916 L 234 916 L 234 914 L 240 914 L 240 912 L 244 912 L 244 910 L 248 910 L 248 908 L 250 908 L 250 906 L 254 906 L 254 904 L 256 904 L 256 902 L 258 902 L 258 900 L 260 900 L 260 898 L 262 898 L 262 894 L 264 894 L 264 892 L 266 892 L 266 888 L 268 888 L 268 884 L 270 884 L 270 876 L 272 876 L 272 868 L 420 868 L 420 870 L 410 870 L 410 872 L 402 872 L 402 874 L 400 874 L 400 876 L 396 876 L 396 878 L 394 878 L 394 880 L 390 880 L 390 882 L 388 882 L 388 884 L 386 884 L 386 886 L 384 886 L 384 890 L 382 890 L 382 892 L 380 892 L 380 896 L 378 896 L 378 902 L 376 902 L 376 910 L 374 910 L 374 922 L 376 922 L 376 932 L 378 932 L 378 936 L 380 936 L 380 940 L 382 940 L 382 944 L 384 944 L 384 946 L 386 946 L 386 948 L 388 948 L 388 950 L 390 950 L 390 952 L 392 952 L 392 954 L 394 954 L 394 956 L 396 956 L 396 962 L 40 962 Z"/><path d="M 40 916 L 40 716 L 172 716 L 172 816 L 184 816 L 184 836 L 182 836 L 182 838 L 180 838 L 180 842 L 178 842 L 178 844 L 176 844 L 176 850 L 174 850 L 174 856 L 172 856 L 172 876 L 174 876 L 174 884 L 176 884 L 176 888 L 178 888 L 178 892 L 180 892 L 180 894 L 182 894 L 182 898 L 184 898 L 184 900 L 186 900 L 186 902 L 188 902 L 188 904 L 190 904 L 190 906 L 194 906 L 194 908 L 196 908 L 196 910 L 200 910 L 200 912 L 204 912 L 204 914 L 210 914 L 210 916 L 40 916 Z"/><path d="M 272 868 L 272 866 L 2408 866 L 2408 868 L 272 868 Z"/><path d="M 272 868 L 272 866 L 2408 866 L 2408 868 L 272 868 Z"/><path d="M 272 866 L 272 858 L 270 858 L 270 850 L 268 850 L 268 846 L 266 846 L 266 842 L 264 842 L 264 838 L 2370 838 L 2370 744 L 2408 744 L 2408 866 L 272 866 Z"/><path d="M 262 838 L 262 836 L 260 836 L 260 816 L 272 816 L 272 744 L 1512 744 L 1512 746 L 1506 746 L 1506 748 L 1502 748 L 1502 750 L 1498 750 L 1498 752 L 1494 752 L 1494 754 L 1492 754 L 1492 756 L 1490 756 L 1490 758 L 1488 758 L 1488 760 L 1486 760 L 1486 762 L 1484 762 L 1484 764 L 1482 764 L 1482 768 L 1480 768 L 1480 772 L 1478 772 L 1478 776 L 1476 776 L 1476 784 L 1474 784 L 1474 798 L 1476 798 L 1476 806 L 1478 806 L 1478 812 L 1480 812 L 1480 816 L 1482 816 L 1482 818 L 1484 818 L 1484 820 L 1486 820 L 1486 824 L 1488 824 L 1488 826 L 1490 826 L 1490 828 L 1494 828 L 1494 830 L 1496 830 L 1496 832 L 1500 832 L 1500 834 L 1504 834 L 1504 836 L 1510 836 L 1510 838 L 262 838 Z"/><path d="M 1534 838 L 1534 836 L 1540 836 L 1540 834 L 1544 834 L 1544 832 L 1548 832 L 1548 830 L 1550 830 L 1550 828 L 1554 828 L 1554 826 L 1556 826 L 1556 824 L 1558 824 L 1558 820 L 1560 820 L 1560 818 L 1562 818 L 1562 816 L 1582 816 L 1582 818 L 1584 818 L 1584 820 L 1586 820 L 1586 824 L 1588 824 L 1588 826 L 1590 826 L 1590 828 L 1594 828 L 1594 830 L 1596 830 L 1596 832 L 1600 832 L 1600 834 L 1604 834 L 1604 836 L 1610 836 L 1610 838 L 1534 838 Z"/><path d="M 1634 838 L 1634 836 L 1640 836 L 1640 834 L 1644 834 L 1644 832 L 1648 832 L 1648 830 L 1650 830 L 1650 828 L 1654 828 L 1654 826 L 1656 826 L 1656 824 L 1658 824 L 1658 820 L 1660 820 L 1660 818 L 1662 818 L 1662 816 L 1682 816 L 1682 818 L 1684 818 L 1684 820 L 1686 820 L 1686 824 L 1688 824 L 1688 826 L 1690 826 L 1690 828 L 1694 828 L 1694 830 L 1696 830 L 1696 832 L 1700 832 L 1700 834 L 1704 834 L 1704 836 L 1710 836 L 1710 838 L 1634 838 Z"/><path d="M 1734 838 L 1734 836 L 1740 836 L 1740 834 L 1744 834 L 1744 832 L 1748 832 L 1748 830 L 1750 830 L 1750 828 L 1754 828 L 1754 826 L 1756 826 L 1756 824 L 1758 824 L 1758 820 L 1760 820 L 1760 818 L 1762 818 L 1762 816 L 1782 816 L 1782 818 L 1784 818 L 1784 820 L 1786 820 L 1786 824 L 1788 824 L 1788 826 L 1790 826 L 1790 828 L 1794 828 L 1794 830 L 1796 830 L 1796 832 L 1800 832 L 1800 834 L 1804 834 L 1804 836 L 1810 836 L 1810 838 L 1734 838 Z"/><path d="M 1834 838 L 1834 836 L 1840 836 L 1840 834 L 1844 834 L 1844 832 L 1848 832 L 1848 830 L 1850 830 L 1850 828 L 1854 828 L 1854 826 L 1856 826 L 1856 824 L 1858 824 L 1858 820 L 1860 820 L 1860 818 L 1862 818 L 1862 816 L 1882 816 L 1882 818 L 1884 818 L 1884 820 L 1886 820 L 1886 824 L 1888 824 L 1888 826 L 1890 826 L 1890 828 L 1894 828 L 1894 830 L 1896 830 L 1896 832 L 1900 832 L 1900 834 L 1904 834 L 1904 836 L 1910 836 L 1910 838 L 1834 838 Z"/><path d="M 1934 838 L 1934 836 L 1940 836 L 1940 834 L 1944 834 L 1944 832 L 1948 832 L 1948 830 L 1950 830 L 1950 828 L 1954 828 L 1954 826 L 1956 826 L 1956 824 L 1958 824 L 1958 820 L 1960 820 L 1960 818 L 1962 818 L 1962 816 L 1982 816 L 1982 818 L 1984 818 L 1984 820 L 1986 820 L 1986 824 L 1988 824 L 1988 826 L 1990 826 L 1990 828 L 1994 828 L 1994 830 L 1996 830 L 1996 832 L 2000 832 L 2000 834 L 2004 834 L 2004 836 L 2010 836 L 2010 838 L 1934 838 Z"/><path d="M 2034 838 L 2034 836 L 2040 836 L 2040 834 L 2044 834 L 2044 832 L 2048 832 L 2048 830 L 2050 830 L 2050 828 L 2054 828 L 2054 826 L 2056 826 L 2056 824 L 2058 824 L 2058 820 L 2060 820 L 2060 818 L 2062 818 L 2062 816 L 2082 816 L 2082 818 L 2084 818 L 2084 820 L 2086 820 L 2086 824 L 2088 824 L 2088 826 L 2090 826 L 2090 828 L 2094 828 L 2094 830 L 2096 830 L 2096 832 L 2100 832 L 2100 834 L 2104 834 L 2104 836 L 2110 836 L 2110 838 L 2034 838 Z"/><path d="M 2134 838 L 2134 836 L 2140 836 L 2140 834 L 2144 834 L 2144 832 L 2148 832 L 2148 830 L 2150 830 L 2150 828 L 2154 828 L 2154 826 L 2156 826 L 2156 824 L 2158 824 L 2158 820 L 2160 820 L 2160 818 L 2162 818 L 2162 816 L 2182 816 L 2182 818 L 2184 818 L 2184 820 L 2186 820 L 2186 824 L 2188 824 L 2188 826 L 2190 826 L 2190 828 L 2194 828 L 2194 830 L 2196 830 L 2196 832 L 2200 832 L 2200 834 L 2204 834 L 2204 836 L 2210 836 L 2210 838 L 2134 838 Z"/><path d="M 2234 838 L 2234 836 L 2240 836 L 2240 834 L 2244 834 L 2244 832 L 2248 832 L 2248 830 L 2250 830 L 2250 828 L 2254 828 L 2254 826 L 2274 826 L 2274 838 L 2234 838 Z"/><path d="M 1562 768 L 1562 764 L 1560 764 L 1560 762 L 1558 762 L 1558 760 L 1556 760 L 1556 758 L 1554 758 L 1554 756 L 1552 756 L 1552 754 L 1550 754 L 1550 752 L 1546 752 L 1546 750 L 1542 750 L 1542 748 L 1538 748 L 1538 746 L 1532 746 L 1532 744 L 1612 744 L 1612 746 L 1606 746 L 1606 748 L 1602 748 L 1602 750 L 1598 750 L 1598 752 L 1594 752 L 1594 754 L 1592 754 L 1592 756 L 1590 756 L 1590 758 L 1588 758 L 1588 760 L 1586 760 L 1586 762 L 1584 762 L 1584 764 L 1582 764 L 1582 768 L 1562 768 Z"/><path d="M 1662 768 L 1662 764 L 1660 764 L 1660 762 L 1658 762 L 1658 760 L 1656 760 L 1656 758 L 1654 758 L 1654 756 L 1652 756 L 1652 754 L 1650 754 L 1650 752 L 1646 752 L 1646 750 L 1642 750 L 1642 748 L 1638 748 L 1638 746 L 1632 746 L 1632 744 L 1712 744 L 1712 746 L 1706 746 L 1706 748 L 1702 748 L 1702 750 L 1698 750 L 1698 752 L 1694 752 L 1694 754 L 1692 754 L 1692 756 L 1690 756 L 1690 758 L 1688 758 L 1688 760 L 1686 760 L 1686 762 L 1684 762 L 1684 764 L 1682 764 L 1682 768 L 1662 768 Z"/><path d="M 1762 768 L 1762 764 L 1760 764 L 1760 762 L 1758 762 L 1758 760 L 1756 760 L 1756 758 L 1754 758 L 1754 756 L 1752 756 L 1752 754 L 1750 754 L 1750 752 L 1746 752 L 1746 750 L 1742 750 L 1742 748 L 1738 748 L 1738 746 L 1732 746 L 1732 744 L 1812 744 L 1812 746 L 1806 746 L 1806 748 L 1802 748 L 1802 750 L 1798 750 L 1798 752 L 1794 752 L 1794 754 L 1792 754 L 1792 756 L 1790 756 L 1790 758 L 1788 758 L 1788 760 L 1786 760 L 1786 762 L 1784 762 L 1784 764 L 1782 764 L 1782 768 L 1762 768 Z"/><path d="M 1862 768 L 1862 764 L 1860 764 L 1860 762 L 1858 762 L 1858 760 L 1856 760 L 1856 758 L 1854 758 L 1854 756 L 1852 756 L 1852 754 L 1850 754 L 1850 752 L 1846 752 L 1846 750 L 1842 750 L 1842 748 L 1838 748 L 1838 746 L 1832 746 L 1832 744 L 1912 744 L 1912 746 L 1906 746 L 1906 748 L 1902 748 L 1902 750 L 1898 750 L 1898 752 L 1894 752 L 1894 754 L 1892 754 L 1892 756 L 1890 756 L 1890 758 L 1888 758 L 1888 760 L 1886 760 L 1886 762 L 1884 762 L 1884 764 L 1882 764 L 1882 768 L 1862 768 Z"/><path d="M 1962 768 L 1962 764 L 1960 764 L 1960 762 L 1958 762 L 1958 760 L 1956 760 L 1956 758 L 1954 758 L 1954 756 L 1952 756 L 1952 754 L 1950 754 L 1950 752 L 1946 752 L 1946 750 L 1942 750 L 1942 748 L 1938 748 L 1938 746 L 1932 746 L 1932 744 L 2012 744 L 2012 746 L 2006 746 L 2006 748 L 2002 748 L 2002 750 L 1998 750 L 1998 752 L 1994 752 L 1994 754 L 1992 754 L 1992 756 L 1990 756 L 1990 758 L 1988 758 L 1988 760 L 1986 760 L 1986 762 L 1984 762 L 1984 764 L 1982 764 L 1982 768 L 1962 768 Z"/><path d="M 2062 768 L 2062 764 L 2060 764 L 2060 762 L 2058 762 L 2058 760 L 2056 760 L 2056 758 L 2054 758 L 2054 756 L 2052 756 L 2052 754 L 2050 754 L 2050 752 L 2046 752 L 2046 750 L 2042 750 L 2042 748 L 2038 748 L 2038 746 L 2032 746 L 2032 744 L 2112 744 L 2112 746 L 2106 746 L 2106 748 L 2102 748 L 2102 750 L 2098 750 L 2098 752 L 2094 752 L 2094 754 L 2092 754 L 2092 756 L 2090 756 L 2090 758 L 2088 758 L 2088 760 L 2086 760 L 2086 762 L 2084 762 L 2084 764 L 2082 764 L 2082 768 L 2062 768 Z"/><path d="M 2162 768 L 2162 764 L 2160 764 L 2160 762 L 2158 762 L 2158 760 L 2156 760 L 2156 758 L 2154 758 L 2154 756 L 2152 756 L 2152 754 L 2150 754 L 2150 752 L 2146 752 L 2146 750 L 2142 750 L 2142 748 L 2138 748 L 2138 746 L 2132 746 L 2132 744 L 2212 744 L 2212 746 L 2206 746 L 2206 748 L 2202 748 L 2202 750 L 2198 750 L 2198 752 L 2194 752 L 2194 754 L 2192 754 L 2192 756 L 2190 756 L 2190 758 L 2188 758 L 2188 760 L 2186 760 L 2186 762 L 2184 762 L 2184 764 L 2182 764 L 2182 768 L 2162 768 Z"/><path d="M 2254 758 L 2254 756 L 2252 756 L 2252 754 L 2250 754 L 2250 752 L 2246 752 L 2246 750 L 2242 750 L 2242 748 L 2238 748 L 2238 746 L 2232 746 L 2232 744 L 2274 744 L 2274 758 L 2254 758 Z"/><path d="M 272 744 L 272 742 L 2408 742 L 2408 744 L 272 744 Z"/><path d="M 272 744 L 272 742 L 2408 742 L 2408 744 L 272 744 Z"/><path d="M 272 744 L 272 742 L 2408 742 L 2408 744 L 272 744 Z"/><path d="M 272 744 L 272 742 L 2408 742 L 2408 744 L 272 744 Z"/><path d="M 272 744 L 272 742 L 2408 742 L 2408 744 L 272 744 Z"/><path d="M 272 744 L 272 742 L 2408 742 L 2408 744 L 272 744 Z"/><path d="M 272 744 L 272 742 L 2408 742 L 2408 744 L 272 744 Z"/><path d="M 272 744 L 272 742 L 2408 742 L 2408 744 L 272 744 Z"/><path d="M 272 744 L 272 742 L 2408 742 L 2408 744 L 272 744 Z"/><path d="M 272 744 L 272 742 L 2408 742 L 2408 744 L 272 744 Z"/><path d="M 272 742 L 272 734 L 830 734 L 830 732 L 838 732 L 838 730 L 842 730 L 842 728 L 844 728 L 844 726 L 848 726 L 848 724 L 850 724 L 850 722 L 852 722 L 852 720 L 854 720 L 854 718 L 856 718 L 856 716 L 858 716 L 858 712 L 860 712 L 860 708 L 862 708 L 862 702 L 864 702 L 864 682 L 862 682 L 862 674 L 860 674 L 860 672 L 858 672 L 858 668 L 856 668 L 856 666 L 854 666 L 854 662 L 852 662 L 852 660 L 850 660 L 850 658 L 846 658 L 846 656 L 844 656 L 844 654 L 840 654 L 840 634 L 864 634 L 864 548 L 2408 548 L 2408 742 L 272 742 Z"/><path d="M 272 734 L 272 716 L 788 716 L 788 718 L 790 718 L 790 720 L 792 720 L 792 722 L 794 722 L 794 724 L 796 724 L 796 726 L 798 726 L 798 728 L 802 728 L 802 730 L 806 730 L 806 732 L 814 732 L 814 734 L 272 734 Z"/><path d="M 40 716 L 40 714 L 786 714 L 786 716 L 40 716 Z"/><path d="M 40 716 L 40 714 L 786 714 L 786 716 L 40 716 Z"/><path d="M 40 714 L 40 664 L 236 664 L 236 662 L 242 662 L 242 660 L 246 660 L 246 658 L 248 658 L 248 656 L 252 656 L 252 654 L 254 654 L 254 652 L 256 652 L 256 650 L 258 650 L 258 648 L 260 648 L 260 646 L 262 646 L 262 644 L 264 644 L 264 640 L 266 640 L 266 636 L 268 636 L 268 632 L 270 632 L 270 626 L 272 626 L 272 604 L 270 604 L 270 596 L 268 596 L 268 592 L 266 592 L 266 588 L 264 588 L 264 586 L 262 586 L 262 584 L 260 584 L 260 564 L 430 564 L 430 562 L 438 562 L 438 560 L 442 560 L 442 558 L 446 558 L 446 556 L 450 556 L 450 554 L 452 554 L 452 552 L 454 552 L 454 550 L 456 550 L 456 548 L 780 548 L 780 634 L 804 634 L 804 654 L 800 654 L 800 656 L 798 656 L 798 658 L 794 658 L 794 660 L 792 660 L 792 662 L 790 662 L 790 664 L 788 664 L 788 668 L 786 668 L 786 670 L 784 670 L 784 674 L 782 674 L 782 680 L 780 680 L 780 702 L 782 702 L 782 708 L 784 708 L 784 712 L 786 712 L 786 714 L 40 714 Z"/><path d="M 40 664 L 40 464 L 174 464 L 174 466 L 172 466 L 172 564 L 184 564 L 184 584 L 182 584 L 182 588 L 180 588 L 180 590 L 178 590 L 178 594 L 176 594 L 176 600 L 174 600 L 174 608 L 172 608 L 172 622 L 174 622 L 174 630 L 176 630 L 176 636 L 178 636 L 178 638 L 180 638 L 180 642 L 182 642 L 182 646 L 184 646 L 184 648 L 186 648 L 186 650 L 188 650 L 188 652 L 190 652 L 190 654 L 194 654 L 194 656 L 196 656 L 196 658 L 200 658 L 200 660 L 204 660 L 204 662 L 210 662 L 210 664 L 40 664 Z"/><path d="M 272 564 L 272 468 L 420 468 L 420 470 L 410 470 L 410 472 L 402 472 L 402 474 L 400 474 L 400 476 L 396 476 L 396 478 L 394 478 L 394 480 L 390 480 L 390 482 L 388 482 L 388 484 L 386 484 L 386 486 L 384 486 L 384 490 L 382 490 L 382 492 L 380 492 L 380 496 L 378 496 L 378 502 L 376 502 L 376 510 L 374 510 L 374 522 L 376 522 L 376 532 L 378 532 L 378 536 L 380 536 L 380 540 L 382 540 L 382 544 L 384 544 L 384 546 L 386 546 L 386 548 L 388 548 L 388 550 L 390 550 L 390 552 L 392 552 L 392 554 L 394 554 L 394 556 L 398 556 L 398 558 L 402 558 L 402 560 L 406 560 L 406 562 L 414 562 L 414 564 L 272 564 Z"/><path d="M 458 548 L 458 546 L 2408 546 L 2408 548 L 458 548 Z"/><path d="M 458 548 L 458 546 L 2408 546 L 2408 548 L 458 548 Z"/><path d="M 460 546 L 460 544 L 462 544 L 462 540 L 464 540 L 464 538 L 2334 538 L 2334 536 L 2340 536 L 2340 534 L 2344 534 L 2344 532 L 2348 532 L 2348 530 L 2350 530 L 2350 528 L 2354 528 L 2354 526 L 2356 526 L 2356 524 L 2358 524 L 2358 520 L 2360 520 L 2360 518 L 2362 518 L 2362 514 L 2364 514 L 2364 512 L 2366 512 L 2366 506 L 2368 506 L 2368 498 L 2370 498 L 2370 486 L 2368 486 L 2368 478 L 2366 478 L 2366 472 L 2364 472 L 2364 468 L 2362 468 L 2362 464 L 2360 464 L 2360 462 L 2358 462 L 2358 460 L 2356 460 L 2356 458 L 2354 458 L 2354 456 L 2352 456 L 2352 454 L 2350 454 L 2350 452 L 2346 452 L 2346 450 L 2342 450 L 2342 448 L 2338 448 L 2338 446 L 2332 446 L 2332 444 L 2408 444 L 2408 546 L 460 546 Z"/><path d="M 464 538 L 464 536 L 466 536 L 466 530 L 468 530 L 468 522 L 470 522 L 470 510 L 468 510 L 468 502 L 466 502 L 466 496 L 464 496 L 464 494 L 462 494 L 462 490 L 460 490 L 460 488 L 458 488 L 458 484 L 456 484 L 456 482 L 454 482 L 454 480 L 450 480 L 450 478 L 448 478 L 448 476 L 444 476 L 444 474 L 440 474 L 440 472 L 434 472 L 434 470 L 424 470 L 424 468 L 1480 468 L 1480 472 L 1478 472 L 1478 476 L 1476 476 L 1476 484 L 1474 484 L 1474 498 L 1476 498 L 1476 506 L 1478 506 L 1478 512 L 1480 512 L 1480 516 L 1482 516 L 1482 518 L 1484 518 L 1484 520 L 1486 520 L 1486 524 L 1488 524 L 1488 526 L 1490 526 L 1490 528 L 1494 528 L 1494 530 L 1496 530 L 1496 532 L 1500 532 L 1500 534 L 1504 534 L 1504 536 L 1510 536 L 1510 538 L 464 538 Z"/><path d="M 1534 538 L 1534 536 L 1540 536 L 1540 534 L 1544 534 L 1544 532 L 1548 532 L 1548 530 L 1550 530 L 1550 528 L 1554 528 L 1554 526 L 1556 526 L 1556 524 L 1558 524 L 1558 520 L 1560 520 L 1560 518 L 1562 518 L 1562 516 L 1582 516 L 1582 518 L 1584 518 L 1584 520 L 1586 520 L 1586 524 L 1588 524 L 1588 526 L 1590 526 L 1590 528 L 1594 528 L 1594 530 L 1596 530 L 1596 532 L 1600 532 L 1600 534 L 1604 534 L 1604 536 L 1610 536 L 1610 538 L 1534 538 Z"/><path d="M 1634 538 L 1634 536 L 1640 536 L 1640 534 L 1644 534 L 1644 532 L 1648 532 L 1648 530 L 1650 530 L 1650 528 L 1654 528 L 1654 526 L 1656 526 L 1656 524 L 1658 524 L 1658 520 L 1660 520 L 1660 518 L 1662 518 L 1662 516 L 1682 516 L 1682 518 L 1684 518 L 1684 520 L 1686 520 L 1686 524 L 1688 524 L 1688 526 L 1690 526 L 1690 528 L 1694 528 L 1694 530 L 1696 530 L 1696 532 L 1700 532 L 1700 534 L 1704 534 L 1704 536 L 1710 536 L 1710 538 L 1634 538 Z"/><path d="M 1734 538 L 1734 536 L 1740 536 L 1740 534 L 1744 534 L 1744 532 L 1748 532 L 1748 530 L 1750 530 L 1750 528 L 1754 528 L 1754 526 L 1756 526 L 1756 524 L 1758 524 L 1758 520 L 1760 520 L 1760 518 L 1762 518 L 1762 516 L 1782 516 L 1782 518 L 1784 518 L 1784 520 L 1786 520 L 1786 524 L 1788 524 L 1788 526 L 1790 526 L 1790 528 L 1794 528 L 1794 530 L 1796 530 L 1796 532 L 1800 532 L 1800 534 L 1804 534 L 1804 536 L 1810 536 L 1810 538 L 1734 538 Z"/><path d="M 1834 538 L 1834 536 L 1840 536 L 1840 534 L 1844 534 L 1844 532 L 1848 532 L 1848 530 L 1850 530 L 1850 528 L 1854 528 L 1854 526 L 1856 526 L 1856 524 L 1858 524 L 1858 520 L 1860 520 L 1860 518 L 1862 518 L 1862 516 L 1882 516 L 1882 518 L 1884 518 L 1884 520 L 1886 520 L 1886 524 L 1888 524 L 1888 526 L 1890 526 L 1890 528 L 1894 528 L 1894 530 L 1896 530 L 1896 532 L 1900 532 L 1900 534 L 1904 534 L 1904 536 L 1910 536 L 1910 538 L 1834 538 Z"/><path d="M 1934 538 L 1934 536 L 1940 536 L 1940 534 L 1944 534 L 1944 532 L 1948 532 L 1948 530 L 1950 530 L 1950 528 L 1954 528 L 1954 526 L 1956 526 L 1956 524 L 1958 524 L 1958 520 L 1960 520 L 1960 518 L 1962 518 L 1962 516 L 1982 516 L 1982 518 L 1984 518 L 1984 520 L 1986 520 L 1986 524 L 1988 524 L 1988 526 L 1990 526 L 1990 528 L 1994 528 L 1994 530 L 1996 530 L 1996 532 L 2000 532 L 2000 534 L 2004 534 L 2004 536 L 2010 536 L 2010 538 L 1934 538 Z"/><path d="M 2034 538 L 2034 536 L 2040 536 L 2040 534 L 2044 534 L 2044 532 L 2048 532 L 2048 530 L 2050 530 L 2050 528 L 2054 528 L 2054 526 L 2056 526 L 2056 524 L 2058 524 L 2058 520 L 2060 520 L 2060 518 L 2062 518 L 2062 516 L 2082 516 L 2082 518 L 2084 518 L 2084 520 L 2086 520 L 2086 524 L 2088 524 L 2088 526 L 2090 526 L 2090 528 L 2094 528 L 2094 530 L 2096 530 L 2096 532 L 2100 532 L 2100 534 L 2104 534 L 2104 536 L 2110 536 L 2110 538 L 2034 538 Z"/><path d="M 2134 538 L 2134 536 L 2140 536 L 2140 534 L 2144 534 L 2144 532 L 2148 532 L 2148 530 L 2150 530 L 2150 528 L 2154 528 L 2154 526 L 2156 526 L 2156 524 L 2158 524 L 2158 520 L 2160 520 L 2160 518 L 2162 518 L 2162 516 L 2182 516 L 2182 518 L 2184 518 L 2184 520 L 2186 520 L 2186 524 L 2188 524 L 2188 526 L 2190 526 L 2190 528 L 2194 528 L 2194 530 L 2196 530 L 2196 532 L 2200 532 L 2200 534 L 2204 534 L 2204 536 L 2210 536 L 2210 538 L 2134 538 Z"/><path d="M 2234 538 L 2234 536 L 2240 536 L 2240 534 L 2244 534 L 2244 532 L 2248 532 L 2248 530 L 2250 530 L 2250 528 L 2254 528 L 2254 526 L 2256 526 L 2256 524 L 2258 524 L 2258 520 L 2260 520 L 2260 518 L 2262 518 L 2262 516 L 2282 516 L 2282 518 L 2284 518 L 2284 520 L 2286 520 L 2286 524 L 2288 524 L 2288 526 L 2290 526 L 2290 528 L 2294 528 L 2294 530 L 2296 530 L 2296 532 L 2300 532 L 2300 534 L 2304 534 L 2304 536 L 2310 536 L 2310 538 L 2234 538 Z"/><path d="M 272 468 L 272 466 L 1482 466 L 1482 468 L 272 468 Z"/><path d="M 272 468 L 272 466 L 1482 466 L 1482 468 L 272 468 Z"/><path d="M 1562 468 L 1562 464 L 1560 464 L 1560 462 L 1558 462 L 1558 460 L 1556 460 L 1556 458 L 1554 458 L 1554 456 L 1552 456 L 1552 454 L 1550 454 L 1550 452 L 1546 452 L 1546 450 L 1542 450 L 1542 448 L 1538 448 L 1538 446 L 1532 446 L 1532 444 L 1612 444 L 1612 446 L 1606 446 L 1606 448 L 1602 448 L 1602 450 L 1598 450 L 1598 452 L 1594 452 L 1594 454 L 1592 454 L 1592 456 L 1590 456 L 1590 458 L 1588 458 L 1588 460 L 1586 460 L 1586 462 L 1584 462 L 1584 464 L 1582 464 L 1582 468 L 1562 468 Z"/><path d="M 1662 468 L 1662 464 L 1660 464 L 1660 462 L 1658 462 L 1658 460 L 1656 460 L 1656 458 L 1654 458 L 1654 456 L 1652 456 L 1652 454 L 1650 454 L 1650 452 L 1646 452 L 1646 450 L 1642 450 L 1642 448 L 1638 448 L 1638 446 L 1632 446 L 1632 444 L 1712 444 L 1712 446 L 1706 446 L 1706 448 L 1702 448 L 1702 450 L 1698 450 L 1698 452 L 1694 452 L 1694 454 L 1692 454 L 1692 456 L 1690 456 L 1690 458 L 1688 458 L 1688 460 L 1686 460 L 1686 462 L 1684 462 L 1684 464 L 1682 464 L 1682 468 L 1662 468 Z"/><path d="M 1762 468 L 1762 464 L 1760 464 L 1760 462 L 1758 462 L 1758 460 L 1756 460 L 1756 458 L 1754 458 L 1754 456 L 1752 456 L 1752 454 L 1750 454 L 1750 452 L 1746 452 L 1746 450 L 1742 450 L 1742 448 L 1738 448 L 1738 446 L 1732 446 L 1732 444 L 1812 444 L 1812 446 L 1806 446 L 1806 448 L 1802 448 L 1802 450 L 1798 450 L 1798 452 L 1794 452 L 1794 454 L 1792 454 L 1792 456 L 1790 456 L 1790 458 L 1788 458 L 1788 460 L 1786 460 L 1786 462 L 1784 462 L 1784 464 L 1782 464 L 1782 468 L 1762 468 Z"/><path d="M 1862 468 L 1862 464 L 1860 464 L 1860 462 L 1858 462 L 1858 460 L 1856 460 L 1856 458 L 1854 458 L 1854 456 L 1852 456 L 1852 454 L 1850 454 L 1850 452 L 1846 452 L 1846 450 L 1842 450 L 1842 448 L 1838 448 L 1838 446 L 1832 446 L 1832 444 L 1912 444 L 1912 446 L 1906 446 L 1906 448 L 1902 448 L 1902 450 L 1898 450 L 1898 452 L 1894 452 L 1894 454 L 1892 454 L 1892 456 L 1890 456 L 1890 458 L 1888 458 L 1888 460 L 1886 460 L 1886 462 L 1884 462 L 1884 464 L 1882 464 L 1882 468 L 1862 468 Z"/><path d="M 1962 468 L 1962 464 L 1960 464 L 1960 462 L 1958 462 L 1958 460 L 1956 460 L 1956 458 L 1954 458 L 1954 456 L 1952 456 L 1952 454 L 1950 454 L 1950 452 L 1946 452 L 1946 450 L 1942 450 L 1942 448 L 1938 448 L 1938 446 L 1932 446 L 1932 444 L 2012 444 L 2012 446 L 2006 446 L 2006 448 L 2002 448 L 2002 450 L 1998 450 L 1998 452 L 1994 452 L 1994 454 L 1992 454 L 1992 456 L 1990 456 L 1990 458 L 1988 458 L 1988 460 L 1986 460 L 1986 462 L 1984 462 L 1984 464 L 1982 464 L 1982 468 L 1962 468 Z"/><path d="M 2062 468 L 2062 464 L 2060 464 L 2060 462 L 2058 462 L 2058 460 L 2056 460 L 2056 458 L 2054 458 L 2054 456 L 2052 456 L 2052 454 L 2050 454 L 2050 452 L 2046 452 L 2046 450 L 2042 450 L 2042 448 L 2038 448 L 2038 446 L 2032 446 L 2032 444 L 2112 444 L 2112 446 L 2106 446 L 2106 448 L 2102 448 L 2102 450 L 2098 450 L 2098 452 L 2094 452 L 2094 454 L 2092 454 L 2092 456 L 2090 456 L 2090 458 L 2088 458 L 2088 460 L 2086 460 L 2086 462 L 2084 462 L 2084 464 L 2082 464 L 2082 468 L 2062 468 Z"/><path d="M 2162 468 L 2162 464 L 2160 464 L 2160 462 L 2158 462 L 2158 460 L 2156 460 L 2156 458 L 2154 458 L 2154 456 L 2152 456 L 2152 454 L 2150 454 L 2150 452 L 2146 452 L 2146 450 L 2142 450 L 2142 448 L 2138 448 L 2138 446 L 2132 446 L 2132 444 L 2212 444 L 2212 446 L 2206 446 L 2206 448 L 2202 448 L 2202 450 L 2198 450 L 2198 452 L 2194 452 L 2194 454 L 2192 454 L 2192 456 L 2190 456 L 2190 458 L 2188 458 L 2188 460 L 2186 460 L 2186 462 L 2184 462 L 2184 464 L 2182 464 L 2182 468 L 2162 468 Z"/><path d="M 2262 468 L 2262 464 L 2260 464 L 2260 462 L 2258 462 L 2258 460 L 2256 460 L 2256 458 L 2254 458 L 2254 456 L 2252 456 L 2252 454 L 2250 454 L 2250 452 L 2246 452 L 2246 450 L 2242 450 L 2242 448 L 2238 448 L 2238 446 L 2232 446 L 2232 444 L 2312 444 L 2312 446 L 2306 446 L 2306 448 L 2302 448 L 2302 450 L 2298 450 L 2298 452 L 2294 452 L 2294 454 L 2292 454 L 2292 456 L 2290 456 L 2290 458 L 2288 458 L 2288 460 L 2286 460 L 2286 462 L 2284 462 L 2284 464 L 2282 464 L 2282 468 L 2262 468 Z"/><path d="M 272 466 L 272 464 L 1482 464 L 1482 466 L 272 466 Z"/><path d="M 40 464 L 40 462 L 1484 462 L 1484 464 L 40 464 Z"/><path d="M 40 464 L 40 462 L 1484 462 L 1484 464 L 40 464 Z"/><path d="M 40 462 L 40 444 L 1512 444 L 1512 446 L 1506 446 L 1506 448 L 1502 448 L 1502 450 L 1498 450 L 1498 452 L 1494 452 L 1494 454 L 1492 454 L 1492 456 L 1490 456 L 1490 458 L 1488 458 L 1488 460 L 1486 460 L 1486 462 L 40 462 Z"/><path d="M 40 444 L 40 442 L 2408 442 L 2408 444 L 40 444 Z"/><path d="M 40 444 L 40 442 L 2408 442 L 2408 444 L 40 444 Z"/><path d="M 40 444 L 40 442 L 2408 442 L 2408 444 L 40 444 Z"/><path d="M 40 444 L 40 442 L 2408 442 L 2408 444 L 40 444 Z"/><path d="M 40 444 L 40 442 L 2408 442 L 2408 444 L 40 444 Z"/><path d="M 40 444 L 40 442 L 2408 442 L 2408 444 L 40 444 Z"/><path d="M 40 444 L 40 442 L 2408 442 L 2408 444 L 40 444 Z"/><path d="M 40 444 L 40 442 L 2408 442 L 2408 444 L 40 444 Z"/><path d="M 40 444 L 40 442 L 2408 442 L 2408 444 L 40 444 Z"/><path d="M 40 444 L 40 442 L 2408 442 L 2408 444 L 40 444 Z"/><path d="M 40 442 L 40 242 L 2372 242 L 2372 142 L 2408 142 L 2408 442 L 40 442 Z"/><path d="M 40 242 L 40 142 L 210 142 L 210 144 L 204 144 L 204 146 L 200 146 L 200 148 L 196 148 L 196 150 L 192 150 L 192 152 L 190 152 L 190 154 L 188 154 L 188 156 L 186 156 L 186 158 L 184 158 L 184 160 L 182 160 L 182 162 L 180 162 L 180 166 L 178 166 L 178 170 L 176 170 L 176 174 L 174 174 L 174 182 L 172 182 L 172 202 L 174 202 L 174 208 L 176 208 L 176 212 L 178 212 L 178 216 L 180 216 L 180 220 L 182 220 L 182 222 L 184 222 L 184 224 L 186 224 L 186 228 L 190 228 L 190 230 L 192 230 L 192 232 L 194 232 L 194 234 L 198 234 L 198 236 L 202 236 L 202 238 L 206 238 L 206 240 L 216 240 L 216 242 L 40 242 Z"/><path d="M 228 242 L 228 240 L 238 240 L 238 238 L 242 238 L 242 236 L 246 236 L 246 234 L 250 234 L 250 232 L 252 232 L 252 230 L 272 230 L 272 242 L 228 242 Z"/><path d="M 372 242 L 372 240 L 2122 240 L 2122 142 L 2210 142 L 2210 144 L 2204 144 L 2204 146 L 2200 146 L 2200 148 L 2196 148 L 2196 150 L 2192 150 L 2192 152 L 2190 152 L 2190 154 L 2188 154 L 2188 156 L 2186 156 L 2186 158 L 2184 158 L 2184 160 L 2182 160 L 2182 162 L 2180 162 L 2180 166 L 2178 166 L 2178 170 L 2176 170 L 2176 174 L 2174 174 L 2174 182 L 2172 182 L 2172 202 L 2174 202 L 2174 208 L 2176 208 L 2176 212 L 2178 212 L 2178 216 L 2180 216 L 2180 220 L 2182 220 L 2182 222 L 2184 222 L 2184 224 L 2186 224 L 2186 228 L 2190 228 L 2190 230 L 2192 230 L 2192 232 L 2194 232 L 2194 234 L 2198 234 L 2198 236 L 2202 236 L 2202 238 L 2206 238 L 2206 240 L 2216 240 L 2216 242 L 372 242 Z"/><path d="M 2228 242 L 2228 240 L 2238 240 L 2238 238 L 2242 238 L 2242 236 L 2246 236 L 2246 234 L 2250 234 L 2250 232 L 2252 232 L 2252 230 L 2272 230 L 2272 242 L 2228 242 Z"/><path d="M 372 240 L 372 142 L 456 142 L 456 144 L 452 144 L 452 146 L 448 146 L 448 148 L 444 148 L 444 150 L 442 150 L 442 152 L 440 152 L 440 154 L 436 154 L 436 158 L 434 158 L 434 160 L 432 160 L 432 162 L 430 162 L 430 166 L 428 166 L 428 170 L 426 170 L 426 174 L 424 174 L 424 180 L 422 180 L 422 200 L 424 200 L 424 208 L 426 208 L 426 212 L 428 212 L 428 216 L 430 216 L 430 218 L 432 218 L 432 222 L 434 222 L 434 224 L 436 224 L 436 226 L 438 226 L 438 228 L 440 228 L 440 230 L 442 230 L 442 232 L 446 232 L 446 234 L 450 234 L 450 236 L 454 236 L 454 238 L 460 238 L 460 240 L 372 240 Z"/><path d="M 484 240 L 484 238 L 490 238 L 490 236 L 494 236 L 494 234 L 498 234 L 498 232 L 500 232 L 500 230 L 522 230 L 522 240 L 484 240 Z"/><path d="M 622 240 L 622 140 L 716 140 L 716 142 L 706 142 L 706 144 L 702 144 L 702 146 L 698 146 L 698 148 L 694 148 L 694 150 L 692 150 L 692 152 L 690 152 L 690 154 L 686 154 L 686 158 L 684 158 L 684 160 L 682 160 L 682 162 L 680 162 L 680 166 L 678 166 L 678 170 L 676 170 L 676 174 L 674 174 L 674 180 L 672 180 L 672 200 L 674 200 L 674 208 L 676 208 L 676 212 L 678 212 L 678 216 L 680 216 L 680 218 L 682 218 L 682 222 L 684 222 L 684 224 L 686 224 L 686 226 L 688 226 L 688 228 L 690 228 L 690 230 L 692 230 L 692 232 L 696 232 L 696 234 L 700 234 L 700 236 L 704 236 L 704 238 L 710 238 L 710 240 L 622 240 Z"/><path d="M 734 240 L 734 238 L 740 238 L 740 236 L 744 236 L 744 234 L 748 234 L 748 232 L 750 232 L 750 230 L 772 230 L 772 240 L 734 240 Z"/><path d="M 872 240 L 872 140 L 966 140 L 966 142 L 956 142 L 956 144 L 952 144 L 952 146 L 948 146 L 948 148 L 944 148 L 944 150 L 942 150 L 942 152 L 940 152 L 940 154 L 936 154 L 936 158 L 934 158 L 934 160 L 932 160 L 932 162 L 930 162 L 930 166 L 928 166 L 928 170 L 926 170 L 926 174 L 924 174 L 924 180 L 922 180 L 922 200 L 924 200 L 924 208 L 926 208 L 926 212 L 928 212 L 928 216 L 930 216 L 930 218 L 932 218 L 932 222 L 934 222 L 934 224 L 936 224 L 936 226 L 938 226 L 938 228 L 940 228 L 940 230 L 942 230 L 942 232 L 946 232 L 946 234 L 950 234 L 950 236 L 954 236 L 954 238 L 960 238 L 960 240 L 872 240 Z"/><path d="M 984 240 L 984 238 L 990 238 L 990 236 L 994 236 L 994 234 L 998 234 L 998 232 L 1000 232 L 1000 230 L 1022 230 L 1022 240 L 984 240 Z"/><path d="M 1122 240 L 1122 140 L 1216 140 L 1216 142 L 1206 142 L 1206 144 L 1202 144 L 1202 146 L 1198 146 L 1198 148 L 1194 148 L 1194 150 L 1192 150 L 1192 152 L 1190 152 L 1190 154 L 1186 154 L 1186 158 L 1184 158 L 1184 160 L 1182 160 L 1182 162 L 1180 162 L 1180 166 L 1178 166 L 1178 170 L 1176 170 L 1176 174 L 1174 174 L 1174 180 L 1172 180 L 1172 200 L 1174 200 L 1174 208 L 1176 208 L 1176 212 L 1178 212 L 1178 216 L 1180 216 L 1180 218 L 1182 218 L 1182 222 L 1184 222 L 1184 224 L 1186 224 L 1186 226 L 1188 226 L 1188 228 L 1190 228 L 1190 230 L 1192 230 L 1192 232 L 1196 232 L 1196 234 L 1200 234 L 1200 236 L 1204 236 L 1204 238 L 1210 238 L 1210 240 L 1122 240 Z"/><path d="M 1234 240 L 1234 238 L 1240 238 L 1240 236 L 1244 236 L 1244 234 L 1248 234 L 1248 232 L 1250 232 L 1250 230 L 1272 230 L 1272 240 L 1234 240 Z"/><path d="M 1372 240 L 1372 140 L 1466 140 L 1466 142 L 1456 142 L 1456 144 L 1452 144 L 1452 146 L 1448 146 L 1448 148 L 1444 148 L 1444 150 L 1442 150 L 1442 152 L 1440 152 L 1440 154 L 1436 154 L 1436 158 L 1434 158 L 1434 160 L 1432 160 L 1432 162 L 1430 162 L 1430 166 L 1428 166 L 1428 170 L 1426 170 L 1426 174 L 1424 174 L 1424 180 L 1422 180 L 1422 200 L 1424 200 L 1424 208 L 1426 208 L 1426 212 L 1428 212 L 1428 216 L 1430 216 L 1430 218 L 1432 218 L 1432 222 L 1434 222 L 1434 224 L 1436 224 L 1436 226 L 1438 226 L 1438 228 L 1440 228 L 1440 230 L 1442 230 L 1442 232 L 1446 232 L 1446 234 L 1450 234 L 1450 236 L 1454 236 L 1454 238 L 1460 238 L 1460 240 L 1372 240 Z"/><path d="M 1484 240 L 1484 238 L 1490 238 L 1490 236 L 1494 236 L 1494 234 L 1498 234 L 1498 232 L 1500 232 L 1500 230 L 1522 230 L 1522 240 L 1484 240 Z"/><path d="M 1622 240 L 1622 140 L 1720 140 L 1720 142 L 1708 142 L 1708 144 L 1704 144 L 1704 146 L 1700 146 L 1700 148 L 1696 148 L 1696 150 L 1694 150 L 1694 152 L 1690 152 L 1690 154 L 1688 154 L 1688 156 L 1686 156 L 1686 158 L 1684 158 L 1684 162 L 1682 162 L 1682 164 L 1680 164 L 1680 168 L 1678 168 L 1678 172 L 1676 172 L 1676 176 L 1674 176 L 1674 190 L 1672 190 L 1672 192 L 1674 192 L 1674 204 L 1676 204 L 1676 210 L 1678 210 L 1678 214 L 1680 214 L 1680 218 L 1682 218 L 1682 220 L 1684 220 L 1684 224 L 1686 224 L 1686 226 L 1688 226 L 1688 228 L 1692 228 L 1692 230 L 1694 230 L 1694 232 L 1696 232 L 1696 234 L 1700 234 L 1700 236 L 1704 236 L 1704 238 L 1710 238 L 1710 240 L 1622 240 Z"/><path d="M 1736 240 L 1736 238 L 1742 238 L 1742 236 L 1746 236 L 1746 234 L 1750 234 L 1750 232 L 1752 232 L 1752 230 L 1772 230 L 1772 240 L 1736 240 Z"/><path d="M 1872 240 L 1872 140 L 1966 140 L 1966 142 L 1956 142 L 1956 144 L 1952 144 L 1952 146 L 1948 146 L 1948 148 L 1944 148 L 1944 150 L 1942 150 L 1942 152 L 1940 152 L 1940 154 L 1936 154 L 1936 158 L 1934 158 L 1934 160 L 1932 160 L 1932 162 L 1930 162 L 1930 166 L 1928 166 L 1928 170 L 1926 170 L 1926 174 L 1924 174 L 1924 180 L 1922 180 L 1922 200 L 1924 200 L 1924 208 L 1926 208 L 1926 212 L 1928 212 L 1928 216 L 1930 216 L 1930 218 L 1932 218 L 1932 222 L 1934 222 L 1934 224 L 1936 224 L 1936 226 L 1938 226 L 1938 228 L 1940 228 L 1940 230 L 1942 230 L 1942 232 L 1946 232 L 1946 234 L 1950 234 L 1950 236 L 1954 236 L 1954 238 L 1960 238 L 1960 240 L 1872 240 Z"/><path d="M 1984 240 L 1984 238 L 1990 238 L 1990 236 L 1994 236 L 1994 234 L 1998 234 L 1998 232 L 2000 232 L 2000 230 L 2022 230 L 2022 240 L 1984 240 Z"/><path d="M 252 152 L 252 150 L 248 150 L 248 148 L 244 148 L 244 146 L 240 146 L 240 144 L 234 144 L 234 142 L 272 142 L 272 152 L 252 152 Z"/><path d="M 502 152 L 502 150 L 500 150 L 500 148 L 496 148 L 496 146 L 492 146 L 492 144 L 488 144 L 488 142 L 478 142 L 478 140 L 522 140 L 522 152 L 502 152 Z"/><path d="M 752 152 L 752 150 L 750 150 L 750 148 L 746 148 L 746 146 L 742 146 L 742 144 L 738 144 L 738 142 L 728 142 L 728 140 L 772 140 L 772 152 L 752 152 Z"/><path d="M 1002 152 L 1002 150 L 1000 150 L 1000 148 L 996 148 L 996 146 L 992 146 L 992 144 L 988 144 L 988 142 L 978 142 L 978 140 L 1022 140 L 1022 152 L 1002 152 Z"/><path d="M 1252 152 L 1252 150 L 1250 150 L 1250 148 L 1246 148 L 1246 146 L 1242 146 L 1242 144 L 1238 144 L 1238 142 L 1228 142 L 1228 140 L 1272 140 L 1272 152 L 1252 152 Z"/><path d="M 1502 152 L 1502 150 L 1500 150 L 1500 148 L 1496 148 L 1496 146 L 1492 146 L 1492 144 L 1488 144 L 1488 142 L 1478 142 L 1478 140 L 1522 140 L 1522 152 L 1502 152 Z"/><path d="M 1752 152 L 1752 150 L 1750 150 L 1750 148 L 1746 148 L 1746 146 L 1742 146 L 1742 144 L 1738 144 L 1738 142 L 1726 142 L 1726 140 L 1774 140 L 1774 142 L 1772 142 L 1772 152 L 1752 152 Z"/><path d="M 2002 152 L 2002 150 L 2000 150 L 2000 148 L 1996 148 L 1996 146 L 1992 146 L 1992 144 L 1988 144 L 1988 142 L 1978 142 L 1978 140 L 2022 140 L 2022 152 L 2002 152 Z"/><path d="M 2252 152 L 2252 150 L 2248 150 L 2248 148 L 2244 148 L 2244 146 L 2240 146 L 2240 144 L 2234 144 L 2234 142 L 2272 142 L 2272 152 L 2252 152 Z"/><path d="M 40 142 L 40 140 L 466 140 L 466 142 L 40 142 Z"/><path d="M 40 142 L 40 140 L 466 140 L 466 142 L 40 142 Z"/><path d="M 40 142 L 40 140 L 466 140 L 466 142 L 40 142 Z"/><path d="M 2122 142 L 2122 140 L 2408 140 L 2408 142 L 2122 142 Z"/><path d="M 2122 142 L 2122 140 L 2408 140 L 2408 142 L 2122 142 Z"/><path d="M 2122 142 L 2122 140 L 2408 140 L 2408 142 L 2122 142 Z"/><path d="M 40 140 L 40 138 L 2408 138 L 2408 140 L 40 140 Z"/><path d="M 40 140 L 40 138 L 2408 138 L 2408 140 L 40 140 Z"/><path d="M 40 140 L 40 138 L 2408 138 L 2408 140 L 40 140 Z"/><path d="M 40 140 L 40 138 L 2408 138 L 2408 140 L 40 140 Z"/><path d="M 40 140 L 40 138 L 2408 138 L 2408 140 L 40 140 Z"/><path d="M 40 140 L 40 138 L 2408 138 L 2408 140 L 40 140 Z"/><path d="M 40 140 L 40 138 L 2408 138 L 2408 140 L 40 140 Z"/><path d="M 40 140 L 40 138 L 2408 138 L 2408 140 L 40 140 Z"/><path d="M 40 140 L 40 138 L 2408 138 L 2408 140 L 40 140 Z"/><path d="M 40 140 L 40 138 L 2408 138 L 2408 140 L 40 140 Z"/><path d="M 40 140 L 40 138 L 2408 138 L 2408 140 L 40 140 Z"/><path d="M 40 140 L 40 138 L 2408 138 L 2408 140 L 40 140 Z"/><path d="M 40 140 L 40 138 L 2408 138 L 2408 140 L 40 140 Z"/><path d="M 40 140 L 40 138 L 2408 138 L 2408 140 L 40 140 Z"/><path d="M 40 140 L 40 138 L 2408 138 L 2408 140 L 40 140 Z"/><path d="M 40 138 L 40 42 L 2408 42 L 2408 138 L 40 138 Z"/><path d="M 1498 842 L 1541 842 L 1541 812 L 1498 812 L 1498 842 Z"/><path d="M 1498 778 L 1541 778 L 1541 744 L 1498 744 L 1498 778 Z"/><path d="M 1470 816 L 1502 816 L 1502 773 L 1470 773 L 1470 816 Z"/><path d="M 2297 1000 L 2342 1000 L 2342 968 L 2297 968 L 2297 1000 Z"/><path d="M 2338 1041 L 2370 1041 L 2370 996 L 2338 996 L 2338 1041 Z"/><path d="M 1597 1000 L 1642 1000 L 1642 968 L 1597 968 L 1597 1000 Z"/><path d="M 597 1170 L 642 1170 L 642 1138 L 597 1138 L 597 1170 Z"/><path d="M 997 1170 L 1042 1170 L 1042 1138 L 997 1138 L 997 1170 Z"/><path d="M 1297 1170 L 1342 1170 L 1342 1138 L 1297 1138 L 1297 1170 Z"/><path d="M 1797 1170 L 1842 1170 L 1842 1138 L 1797 1138 L 1797 1170 Z"/><path d="M 1997 1170 L 2042 1170 L 2042 1138 L 1997 1138 L 1997 1170 Z"/><path d="M 797 1000 L 842 1000 L 842 968 L 797 968 L 797 1000 Z"/><path d="M 800 738 L 839 738 L 839 708 L 800 708 L 800 738 Z"/><path d="M 776 713 L 806 713 L 806 676 L 776 676 L 776 713 Z"/><path d="M 832 713 L 864 713 L 864 676 L 832 676 L 832 713 Z"/><path d="M 197 246 L 242 246 L 242 214 L 197 214 L 197 246 Z"/><path d="M 197 176 L 242 176 L 242 142 L 197 142 L 197 176 Z"/><path d="M 168 1039 L 202 1039 L 202 994 L 168 994 L 168 1039 Z"/><path d="M 789 624 M 788.5 623.5 789.5 623.5 853.5 623.5 853.5 624.5 852.5 624.5 788.5 624.5 Z M 789 623 M 788.5 622.5 789.5 622.5 853.5 622.5 853.5 623.5 852.5 623.5 788.5 623.5 Z M 789 622 M 788.5 621.5 789.5 621.5 853.5 621.5 853.5 622.5 852.5 622.5 788.5 622.5 Z M 789 621 M 788.5 620.5 789.5 620.5 853.5 620.5 853.5 621.5 852.5 621.5 788.5 621.5 Z M 789 620 M 788.5 619.5 789.5 619.5 853.5 619.5 853.5 620.5 852.5 620.5 788.5 620.5 Z M 789 619 M 788.5 618.5 789.5 618.5 853.5 618.5 853.5 619.5 852.5 619.5 788.5 619.5 Z M 789 618 M 788.5 617.5 789.5 617.5 853.5 617.5 853.5 618.5 852.5 618.5 788.5 618.5 Z M 789 617 M 788.5 616.5 789.5 616.5 853.5 616.5 853.5 617.5 852.5 617.5 788.5 617.5 Z M 789 616 M 788.5 615.5 789.5 615.5 853.5 615.5 853.5 616.5 852.5 616.5 788.5 616.5 Z M 789 615 M 788.5 614.5 789.5 614.5 853.5 614.5 853.5 615.5 852.5 615.5 788.5 615.5 Z M 789 614 M 788.5 613.5 789.5 613.5 853.5 613.5 853.5 614.5 852.5 614.5 788.5 614.5 Z M 789 613 M 788.5 612.5 789.5 612.5 853.5 612.5 853.5 613.5 852.5 613.5 788.5 613.5 Z M 789 612 M 788.5 611.5 789.5 611.5 853.5 611.5 853.5 612.5 852.5 612.5 788.5 612.5 Z M 789 611 M 788.5 610.5 789.5 610.5 853.5 610.5 853.5 611.5 852.5 611.5 788.5 611.5 Z M 789 610 M 788.5 609.5 789.5 609.5 853.5 609.5 853.5 610.5 852.5 610.5 788.5 610.5 Z M 789 609 M 788.5 608.5 789.5 608.5 853.5 608.5 853.5 609.5 852.5 609.5 788.5 609.5 Z M 789 608 M 788.5 607.5 789.5 607.5 853.5 607.5 853.5 608.5 852.5 608.5 788.5 608.5 Z M 789 607 M 788.5 606.5 789.5 606.5 853.5 606.5 853.5 607.5 852.5 607.5 788.5 607.5 Z M 789 606 M 788.5 605.5 789.5 605.5 819.5 605.5 819.5 606.5 818.5 606.5 788.5 606.5 Z M 824 606 M 823.5 605.5 824.5 605.5 853.5 605.5 853.5 606.5 852.5 606.5 823.5 606.5 Z M 789 605 M 788.5 604.5 789.5 604.5 815.5 604.5 815.5 605.5 814.5 605.5 788.5 605.5 Z M 827 605 M 826.5 604.5 827.5 604.5 853.5 604.5 853.5 605.5 852.5 605.5 826.5 605.5 Z M 789 604 M 788.5 603.5 789.5 603.5 813.5 603.5 813.5 604.5 812.5 604.5 788.5 604.5 Z M 829 604 M 828.5 603.5 829.5 603.5 853.5 603.5 853.5 604.5 852.5 604.5 828.5 604.5 Z M 789 603 M 788.5 602.5 789.5 602.5 812.5 602.5 812.5 603.5 811.5 603.5 788.5 603.5 Z M 830 603 M 829.5 602.5 830.5 602.5 853.5 602.5 853.5 603.5 852.5 603.5 829.5 603.5 Z M 789 602 M 788.5 601.5 789.5 601.5 811.5 601.5 811.5 602.5 810.5 602.5 788.5 602.5 Z M 832 602 M 831.5 601.5 832.5 601.5 853.5 601.5 853.5 602.5 852.5 602.5 831.5 602.5 Z M 789 601 M 788.5 600.5 789.5 600.5 810.5 600.5 810.5 601.5 809.5 601.5 788.5 601.5 Z M 832 601 M 831.5 600.5 832.5 600.5 853.5 600.5 853.5 601.5 852.5 601.5 831.5 601.5 Z M 789 600 M 788.5 599.5 789.5 599.5 809.5 599.5 809.5 600.5 808.5 600.5 788.5 600.5 Z M 833 600 M 832.5 599.5 833.5 599.5 853.5 599.5 853.5 600.5 852.5 600.5 832.5 600.5 Z M 789 599 M 788.5 598.5 789.5 598.5 809.5 598.5 809.5 599.5 808.5 599.5 788.5 599.5 Z M 834 599 M 833.5 598.5 834.5 598.5 853.5 598.5 853.5 599.5 852.5 599.5 833.5 599.5 Z M 789 598 M 788.5 597.5 789.5 597.5 808.5 597.5 808.5 598.5 807.5 598.5 788.5 598.5 Z M 834 598 M 833.5 597.5 834.5 597.5 853.5 597.5 853.5 598.5 852.5 598.5 833.5 598.5 Z M 789 597 M 788.5 596.5 789.5 596.5 808.5 596.5 808.5 597.5 807.5 597.5 788.5 597.5 Z M 835 597 M 834.5 596.5 835.5 596.5 853.5 596.5 853.5 597.5 852.5 597.5 834.5 597.5 Z M 789 596 M 788.5 595.5 789.5 595.5 807.5 595.5 807.5 596.5 806.5 596.5 788.5 596.5 Z M 835 596 M 834.5 595.5 835.5 595.5 853.5 595.5 853.5 596.5 852.5 596.5 834.5 596.5 Z M 789 595 M 788.5 594.5 789.5 594.5 807.5 594.5 807.5 595.5 806.5 595.5 788.5 595.5 Z M 835 595 M 834.5 594.5 835.5 594.5 853.5 594.5 853.5 595.5 852.5 595.5 834.5 595.5 Z M 789 594 M 788.5 593.5 789.5 593.5 807.5 593.5 807.5 594.5 806.5 594.5 788.5 594.5 Z M 835 594 M 834.5 593.5 835.5 593.5 853.5 593.5 853.5 594.5 852.5 594.5 834.5 594.5 Z M 789 593 M 788.5 592.5 789.5 592.5 807.5 592.5 807.5 593.5 806.5 593.5 788.5 593.5 Z M 835 593 M 834.5 592.5 835.5 592.5 853.5 592.5 853.5 593.5 852.5 593.5 834.5 593.5 Z M 789 592 M 788.5 591.5 789.5 591.5 807.5 591.5 807.5 592.5 806.5 592.5 788.5 592.5 Z M 835 592 M 834.5 591.5 835.5 591.5 853.5 591.5 853.5 592.5 852.5 592.5 834.5 592.5 Z M 789 591 M 788.5 590.5 789.5 590.5 807.5 590.5 807.5 591.5 806.5 591.5 788.5 591.5 Z M 835 591 M 834.5 590.5 835.5 590.5 853.5 590.5 853.5 591.5 852.5 591.5 834.5 591.5 Z M 789 590 M 788.5 589.5 789.5 589.5 807.5 589.5 807.5 590.5 806.5 590.5 788.5 590.5 Z M 835 590 M 834.5 589.5 835.5 589.5 853.5 589.5 853.5 590.5 852.5 590.5 834.5 590.5 Z M 789 589 M 788.5 588.5 789.5 588.5 807.5 588.5 807.5 589.5 806.5 589.5 788.5 589.5 Z M 835 589 M 834.5 588.5 835.5 588.5 853.5 588.5 853.5 589.5 852.5 589.5 834.5 589.5 Z M 789 588 M 788.5 587.5 789.5 587.5 808.5 587.5 808.5 588.5 807.5 588.5 788.5 588.5 Z M 835 588 M 834.5 587.5 835.5 587.5 853.5 587.5 853.5 588.5 852.5 588.5 834.5 588.5 Z M 789 587 M 788.5 586.5 789.5 586.5 808.5 586.5 808.5 587.5 807.5 587.5 788.5 587.5 Z M 834 587 M 833.5 586.5 834.5 586.5 853.5 586.5 853.5 587.5 852.5 587.5 833.5 587.5 Z M 789 586 M 788.5 585.5 789.5 585.5 809.5 585.5 809.5 586.5 808.5 586.5 788.5 586.5 Z M 834 586 M 833.5 585.5 834.5 585.5 853.5 585.5 853.5 586.5 852.5 586.5 833.5 586.5 Z M 789 585 M 788.5 584.5 789.5 584.5 809.5 584.5 809.5 585.5 808.5 585.5 788.5 585.5 Z M 833 585 M 832.5 584.5 833.5 584.5 853.5 584.5 853.5 585.5 852.5 585.5 832.5 585.5 Z M 789 584 M 788.5 583.5 789.5 583.5 810.5 583.5 810.5 584.5 809.5 584.5 788.5 584.5 Z M 832 584 M 831.5 583.5 832.5 583.5 853.5 583.5 853.5 584.5 852.5 584.5 831.5 584.5 Z M 789 583 M 788.5 582.5 789.5 582.5 811.5 582.5 811.5 583.5 810.5 583.5 788.5 583.5 Z M 832 583 M 831.5 582.5 832.5 582.5 853.5 582.5 853.5 583.5 852.5 583.5 831.5 583.5 Z M 789 582 M 788.5 581.5 789.5 581.5 812.5 581.5 812.5 582.5 811.5 582.5 788.5 582.5 Z M 831 582 M 830.5 581.5 831.5 581.5 853.5 581.5 853.5 582.5 852.5 582.5 830.5 582.5 Z M 789 581 M 788.5 580.5 789.5 580.5 813.5 580.5 813.5 581.5 812.5 581.5 788.5 581.5 Z M 829 581 M 828.5 580.5 829.5 580.5 853.5 580.5 853.5 581.5 852.5 581.5 828.5 581.5 Z M 789 580 M 788.5 579.5 789.5 579.5 815.5 579.5 815.5 580.5 814.5 580.5 788.5 580.5 Z M 827 580 M 826.5 579.5 827.5 579.5 853.5 579.5 853.5 580.5 852.5 580.5 826.5 580.5 Z M 789 579 M 788.5 578.5 789.5 578.5 818.5 578.5 818.5 579.5 817.5 579.5 788.5 579.5 Z M 824 579 M 823.5 578.5 824.5 578.5 853.5 578.5 853.5 579.5 852.5 579.5 823.5 579.5 Z M 789 578 M 788.5 577.5 789.5 577.5 853.5 577.5 853.5 578.5 852.5 578.5 788.5 578.5 Z M 789 577 M 788.5 576.5 789.5 576.5 853.5 576.5 853.5 577.5 852.5 577.5 788.5 577.5 Z M 789 576 M 788.5 575.5 789.5 575.5 853.5 575.5 853.5 576.5 852.5 576.5 788.5 576.5 Z M 789 575 M 788.5 574.5 789.5 574.5 853.5 574.5 853.5 575.5 852.5 575.5 788.5 575.5 Z M 789 574 M 788.5 573.5 789.5 573.5 853.5 573.5 853.5 574.5 852.5 574.5 788.5 574.5 Z M 789 573 M 788.5 572.5 789.5 572.5 853.5 572.5 853.5 573.5 852.5 573.5 788.5 573.5 Z M 789 572 M 788.5 571.5 789.5 571.5 853.5 571.5 853.5 572.5 852.5 572.5 788.5 572.5 Z M 789 571 M 788.5 570.5 789.5 570.5 853.5 570.5 853.5 571.5 852.5 571.5 788.5 571.5 Z M 789 570 M 788.5 569.5 789.5 569.5 853.5 569.5 853.5 570.5 852.5 570.5 788.5 570.5 Z M 789 569 M 788.5 568.5 789.5 568.5 853.5 568.5 853.5 569.5 852.5 569.5 788.5 569.5 Z M 789 568 M 788.5 567.5 789.5 567.5 853.5 567.5 853.5 568.5 852.5 568.5 788.5 568.5 Z M 789 567 M 788.5 566.5 789.5 566.5 853.5 566.5 853.5 567.5 852.5 567.5 788.5 567.5 Z M 789 566 M 788.5 565.5 789.5 565.5 853.5 565.5 853.5 566.5 852.5 566.5 788.5 566.5 Z M 789 565 M 788.5 564.5 789.5 564.5 853.5 564.5 853.5 565.5 852.5 565.5 788.5 565.5 Z M 789 564 M 788.5 563.5 789.5 563.5 853.5 563.5 853.5 564.5 852.5 564.5 788.5 564.5 Z M 789 563 M 788.5 562.5 789.5 562.5 853.5 562.5 853.5 563.5 852.5 563.5 788.5 563.5 Z M 789 562 M 788.5 561.5 789.5 561.5 853.5 561.5 853.5 562.5 852.5 562.5 788.5 562.5 Z M 789 561 M 788.5 560.5 789.5 560.5 853.5 560.5 853.5 561.5 852.5 561.5 788.5 561.5 Z M 790 560 M 789.5 559.5 790.5 559.5 853.5 559.5 853.5 560.5 852.5 560.5 789.5 560.5 Z"/></g><mask id="pcb_bottom_mech-mask" fill="#fff" stroke="#fff" fill-rule="evenodd"><path stroke-width="0" d="M 4 1248 L 4 4 L 2445 4 L 2445 1248 Z"/><g id="pcb_bottom-drl" fill="#000" stroke="#000"><use x="821.9" y="691.4" xlink:href="#tool-T10-pad-1000"/><use x="821.9" y="591.4" xlink:href="#tool-T10-pad-1000"/><use x="2021.9" y="1116.4" xlink:href="#tool-T11-pad-1001"/><use x="2221.9" y="1116.4" xlink:href="#tool-T11-pad-1001"/><use x="2121.9" y="1116.4" xlink:href="#tool-T11-pad-1001"/><use x="2321.9" y="1116.4" xlink:href="#tool-T11-pad-1001"/><use x="621.9" y="1016.4" xlink:href="#tool-T11-pad-1001"/><use x="421.9" y="1016.4" xlink:href="#tool-T11-pad-1001"/><use x="921.9" y="1016.4" xlink:href="#tool-T11-pad-1001"/><use x="721.9" y="1016.4" xlink:href="#tool-T11-pad-1001"/><use x="521.9" y="1016.4" xlink:href="#tool-T11-pad-1001"/><use x="821.9" y="1016.4" xlink:href="#tool-T11-pad-1001"/><use x="1621.9" y="1016.4" xlink:href="#tool-T11-pad-1001"/><use x="1421.9" y="1016.4" xlink:href="#tool-T11-pad-1001"/><use x="1221.9" y="1016.4" xlink:href="#tool-T11-pad-1001"/><use x="1021.9" y="1016.4" xlink:href="#tool-T11-pad-1001"/><use x="1921.9" y="1016.4" xlink:href="#tool-T11-pad-1001"/><use x="1721.9" y="1016.4" xlink:href="#tool-T11-pad-1001"/><use x="1521.9" y="1016.4" xlink:href="#tool-T11-pad-1001"/><use x="1321.9" y="1016.4" xlink:href="#tool-T11-pad-1001"/><use x="1121.9" y="1016.4" xlink:href="#tool-T11-pad-1001"/><use x="1821.9" y="1016.4" xlink:href="#tool-T11-pad-1001"/><use x="421.9" y="1116.4" xlink:href="#tool-T11-pad-1001"/><use x="621.9" y="1116.4" xlink:href="#tool-T11-pad-1001"/><use x="521.9" y="1116.4" xlink:href="#tool-T11-pad-1001"/><use x="721.9" y="1116.4" xlink:href="#tool-T11-pad-1001"/><use x="921.9" y="1116.4" xlink:href="#tool-T11-pad-1001"/><use x="821.9" y="1116.4" xlink:href="#tool-T11-pad-1001"/><use x="2221.9" y="1016.4" xlink:href="#tool-T11-pad-1001"/><use x="2021.9" y="1016.4" xlink:href="#tool-T11-pad-1001"/><use x="2321.9" y="1016.4" xlink:href="#tool-T11-pad-1001"/><use x="2121.9" y="1016.4" xlink:href="#tool-T11-pad-1001"/><use x="1021.9" y="1116.4" xlink:href="#tool-T11-pad-1001"/><use x="1221.9" y="1116.4" xlink:href="#tool-T11-pad-1001"/><use x="1421.9" y="1116.4" xlink:href="#tool-T11-pad-1001"/><use x="1621.9" y="1116.4" xlink:href="#tool-T11-pad-1001"/><use x="1121.9" y="1116.4" xlink:href="#tool-T11-pad-1001"/><use x="1321.9" y="1116.4" xlink:href="#tool-T11-pad-1001"/><use x="1521.9" y="1116.4" xlink:href="#tool-T11-pad-1001"/><use x="1721.9" y="1116.4" xlink:href="#tool-T11-pad-1001"/><use x="1921.9" y="1116.4" xlink:href="#tool-T11-pad-1001"/><use x="1821.9" y="1116.4" xlink:href="#tool-T11-pad-1001"/><use x="2321.9" y="191.4" xlink:href="#tool-T12-pad-1002"/><use x="221.9" y="191.4" xlink:href="#tool-T12-pad-1002"/><use x="471.9" y="190.4" xlink:href="#tool-T12-pad-1002"/><use x="1971.9" y="190.4" xlink:href="#tool-T12-pad-1002"/><use x="221.9" y="766.4" xlink:href="#tool-T12-pad-1002"/><use x="222.4" y="514.7" xlink:href="#tool-T12-pad-1002"/><use x="1571.9" y="190.4" xlink:href="#tool-T12-pad-1002"/><use x="1221.9" y="190.4" xlink:href="#tool-T12-pad-1002"/><use x="821.9" y="190.4" xlink:href="#tool-T12-pad-1002"/><use x="1822.9" y="190.7" xlink:href="#tool-T12-pad-1002"/><use x="971.9" y="190.4" xlink:href="#tool-T12-pad-1002"/><use x="1722.9" y="190.7" xlink:href="#tool-T12-pad-1002"/><use x="321.9" y="191.4" xlink:href="#tool-T12-pad-1002"/><use x="571.9" y="190.4" xlink:href="#tool-T12-pad-1002"/><use x="2221.9" y="191.4" xlink:href="#tool-T12-pad-1002"/><use x="222.4" y="1114.7" xlink:href="#tool-T12-pad-1002"/><use x="2071.9" y="190.4" xlink:href="#tool-T12-pad-1002"/><use x="1321.9" y="190.4" xlink:href="#tool-T12-pad-1002"/><use x="1471.9" y="190.4" xlink:href="#tool-T12-pad-1002"/><use x="221.9" y="866.4" xlink:href="#tool-T12-pad-1002"/><use x="721.9" y="190.4" xlink:href="#tool-T12-pad-1002"/><use x="222.4" y="614.7" xlink:href="#tool-T12-pad-1002"/><use x="222.4" y="1014.7" xlink:href="#tool-T12-pad-1002"/><use x="1071.9" y="190.4" xlink:href="#tool-T12-pad-1002"/><use x="1721.9" y="491.4" xlink:href="#tool-T13-pad-1003"/><use x="2021.9" y="491.4" xlink:href="#tool-T13-pad-1003"/><use x="421.9" y="916.4" xlink:href="#tool-T13-pad-1003"/><use x="1921.9" y="791.4" xlink:href="#tool-T13-pad-1003"/><use x="2221.9" y="791.4" xlink:href="#tool-T13-pad-1003"/><use x="1821.9" y="791.4" xlink:href="#tool-T13-pad-1003"/><use x="1921.9" y="491.4" xlink:href="#tool-T13-pad-1003"/><use x="2121.9" y="791.4" xlink:href="#tool-T13-pad-1003"/><use x="2221.9" y="491.4" xlink:href="#tool-T13-pad-1003"/><use x="1621.9" y="791.4" xlink:href="#tool-T13-pad-1003"/><use x="1821.9" y="491.4" xlink:href="#tool-T13-pad-1003"/><use x="2121.9" y="491.4" xlink:href="#tool-T13-pad-1003"/><use x="1521.9" y="791.4" xlink:href="#tool-T13-pad-1003"/><use x="1621.9" y="491.4" xlink:href="#tool-T13-pad-1003"/><use x="1521.9" y="491.4" xlink:href="#tool-T13-pad-1003"/><use x="421.9" y="516.4" xlink:href="#tool-T13-pad-1003"/><use x="2321.9" y="791.4" xlink:href="#tool-T13-pad-1003"/><use x="2321.9" y="491.4" xlink:href="#tool-T13-pad-1003"/><use x="1721.9" y="791.4" xlink:href="#tool-T13-pad-1003"/><use x="2021.9" y="791.4" xlink:href="#tool-T13-pad-1003"/></g></mask></defs><g mask="url(#pcb_bottom_mech-mask)" transform="translate(2449,1252) scale(-1,-1)"><rect x="4" y="4" width="2441" height="1244" fill="currentColor" class="pcb_board-fr4"/><use class="pcb_board-cu" xlink:href="#pcb_bottom-cu"/><g><defs><g id="pcb_bottom-sm" fill="currentColor" stroke="currentColor"><use x="822" y="591" xlink:href="#tool-D10-pad-1014"/><use x="822" y="691" xlink:href="#tool-D10-pad-1014"/><use x="222" y="766" xlink:href="#tool-D11-pad-1015"/><use x="222" y="866" xlink:href="#tool-D11-pad-1015"/><use x="222" y="1015" xlink:href="#tool-D11-pad-1015"/><use x="222" y="1115" xlink:href="#tool-D11-pad-1015"/><use x="222" y="515" xlink:href="#tool-D11-pad-1015"/><use x="222" y="615" xlink:href="#tool-D11-pad-1015"/><use x="322" y="191" xlink:href="#tool-D11-pad-1015"/><use x="222" y="191" xlink:href="#tool-D11-pad-1015"/><use x="572" y="190" xlink:href="#tool-D11-pad-1015"/><use x="472" y="190" xlink:href="#tool-D11-pad-1015"/><use x="2072" y="190" xlink:href="#tool-D11-pad-1015"/><use x="1972" y="190" xlink:href="#tool-D11-pad-1015"/><use x="1572" y="190" xlink:href="#tool-D11-pad-1015"/><use x="1472" y="190" xlink:href="#tool-D11-pad-1015"/><use x="1823" y="191" xlink:href="#tool-D11-pad-1015"/><use x="1723" y="191" xlink:href="#tool-D11-pad-1015"/><use x="822" y="190" xlink:href="#tool-D11-pad-1015"/><use x="722" y="190" xlink:href="#tool-D11-pad-1015"/><use x="1322" y="190" xlink:href="#tool-D11-pad-1015"/><use x="1222" y="190" xlink:href="#tool-D11-pad-1015"/><use x="1072" y="190" xlink:href="#tool-D11-pad-1015"/><use x="972" y="190" xlink:href="#tool-D11-pad-1015"/><use x="2322" y="191" xlink:href="#tool-D11-pad-1015"/><use x="2222" y="191" xlink:href="#tool-D11-pad-1015"/><use x="422" y="1016" xlink:href="#tool-D12-pad-1016"/><use x="522" y="1016" xlink:href="#tool-D12-pad-1016"/><use x="622" y="1016" xlink:href="#tool-D12-pad-1016"/><use x="722" y="1016" xlink:href="#tool-D12-pad-1016"/><use x="822" y="1016" xlink:href="#tool-D12-pad-1016"/><use x="922" y="1016" xlink:href="#tool-D12-pad-1016"/><use x="1022" y="1016" xlink:href="#tool-D12-pad-1016"/><use x="1122" y="1016" xlink:href="#tool-D12-pad-1016"/><use x="1222" y="1016" xlink:href="#tool-D12-pad-1016"/><use x="1322" y="1016" xlink:href="#tool-D12-pad-1016"/><use x="1422" y="1016" xlink:href="#tool-D12-pad-1016"/><use x="1522" y="1016" xlink:href="#tool-D12-pad-1016"/><use x="1622" y="1016" xlink:href="#tool-D12-pad-1016"/><use x="1722" y="1016" xlink:href="#tool-D12-pad-1016"/><use x="1822" y="1016" xlink:href="#tool-D12-pad-1016"/><use x="1922" y="1016" xlink:href="#tool-D12-pad-1016"/><use x="2022" y="1016" xlink:href="#tool-D12-pad-1016"/><use x="2122" y="1016" xlink:href="#tool-D12-pad-1016"/><use x="2222" y="1016" xlink:href="#tool-D12-pad-1016"/><use x="2322" y="1016" xlink:href="#tool-D12-pad-1016"/><use x="422" y="1016" xlink:href="#tool-D12-pad-1016"/><use x="522" y="1016" xlink:href="#tool-D12-pad-1016"/><use x="622" y="1016" xlink:href="#tool-D12-pad-1016"/><use x="722" y="1016" xlink:href="#tool-D12-pad-1016"/><use x="822" y="1016" xlink:href="#tool-D12-pad-1016"/><use x="922" y="1016" xlink:href="#tool-D12-pad-1016"/><use x="1022" y="1016" xlink:href="#tool-D12-pad-1016"/><use x="1122" y="1016" xlink:href="#tool-D12-pad-1016"/><use x="1222" y="1016" xlink:href="#tool-D12-pad-1016"/><use x="1322" y="1016" xlink:href="#tool-D12-pad-1016"/><use x="1422" y="1016" xlink:href="#tool-D12-pad-1016"/><use x="1522" y="1016" xlink:href="#tool-D12-pad-1016"/><use x="1622" y="1016" xlink:href="#tool-D12-pad-1016"/><use x="1722" y="1016" xlink:href="#tool-D12-pad-1016"/><use x="1822" y="1016" xlink:href="#tool-D12-pad-1016"/><use x="1922" y="1016" xlink:href="#tool-D12-pad-1016"/><use x="2022" y="1016" xlink:href="#tool-D12-pad-1016"/><use x="2122" y="1016" xlink:href="#tool-D12-pad-1016"/><use x="2222" y="1016" xlink:href="#tool-D12-pad-1016"/><use x="2322" y="1016" xlink:href="#tool-D12-pad-1016"/><use x="2322" y="1116" xlink:href="#tool-D12-pad-1016"/><use x="2222" y="1116" xlink:href="#tool-D12-pad-1016"/><use x="2122" y="1116" xlink:href="#tool-D12-pad-1016"/><use x="2022" y="1116" xlink:href="#tool-D12-pad-1016"/><use x="1922" y="1116" xlink:href="#tool-D12-pad-1016"/><use x="1822" y="1116" xlink:href="#tool-D12-pad-1016"/><use x="1722" y="1116" xlink:href="#tool-D12-pad-1016"/><use x="1622" y="1116" xlink:href="#tool-D12-pad-1016"/><use x="1522" y="1116" xlink:href="#tool-D12-pad-1016"/><use x="1422" y="1116" xlink:href="#tool-D12-pad-1016"/><use x="1322" y="1116" xlink:href="#tool-D12-pad-1016"/><use x="1222" y="1116" xlink:href="#tool-D12-pad-1016"/><use x="1122" y="1116" xlink:href="#tool-D12-pad-1016"/><use x="1022" y="1116" xlink:href="#tool-D12-pad-1016"/><use x="922" y="1116" xlink:href="#tool-D12-pad-1016"/><use x="822" y="1116" xlink:href="#tool-D12-pad-1016"/><use x="722" y="1116" xlink:href="#tool-D12-pad-1016"/><use x="622" y="1116" xlink:href="#tool-D12-pad-1016"/><use x="522" y="1116" xlink:href="#tool-D12-pad-1016"/><use x="422" y="1116" xlink:href="#tool-D12-pad-1016"/><use x="422" y="516" xlink:href="#tool-D13-pad-1017"/><use x="422" y="916" xlink:href="#tool-D13-pad-1017"/><use x="2322" y="791" xlink:href="#tool-D13-pad-1017"/><use x="2322" y="491" xlink:href="#tool-D13-pad-1017"/><use x="2222" y="791" xlink:href="#tool-D13-pad-1017"/><use x="2222" y="491" xlink:href="#tool-D13-pad-1017"/><use x="2122" y="791" xlink:href="#tool-D13-pad-1017"/><use x="2122" y="491" xlink:href="#tool-D13-pad-1017"/><use x="2022" y="791" xlink:href="#tool-D13-pad-1017"/><use x="2022" y="491" xlink:href="#tool-D13-pad-1017"/><use x="1922" y="791" xlink:href="#tool-D13-pad-1017"/><use x="1922" y="491" xlink:href="#tool-D13-pad-1017"/><use x="1822" y="791" xlink:href="#tool-D13-pad-1017"/><use x="1822" y="491" xlink:href="#tool-D13-pad-1017"/><use x="1722" y="791" xlink:href="#tool-D13-pad-1017"/><use x="1722" y="491" xlink:href="#tool-D13-pad-1017"/><use x="1622" y="791" xlink:href="#tool-D13-pad-1017"/><use x="1622" y="491" xlink:href="#tool-D13-pad-1017"/><use x="1522" y="791" xlink:href="#tool-D13-pad-1017"/><use x="1522" y="491" xlink:href="#tool-D13-pad-1017"/><use x="222" y="766" xlink:href="#tool-D14-pad-1018"/><use x="222" y="1015" xlink:href="#tool-D14-pad-1018"/><use x="222" y="515" xlink:href="#tool-D14-pad-1018"/><use x="322" y="191" xlink:href="#tool-D14-pad-1018"/><use x="572" y="190" xlink:href="#tool-D14-pad-1018"/><use x="2072" y="190" xlink:href="#tool-D14-pad-1018"/><use x="1572" y="190" xlink:href="#tool-D14-pad-1018"/><use x="1823" y="191" xlink:href="#tool-D14-pad-1018"/><use x="822" y="190" xlink:href="#tool-D14-pad-1018"/><use x="1322" y="190" xlink:href="#tool-D14-pad-1018"/><use x="1072" y="190" xlink:href="#tool-D14-pad-1018"/><use x="2322" y="191" xlink:href="#tool-D14-pad-1018"/><use x="2322" y="791" xlink:href="#tool-D15-pad-1019"/><path d="M 784 629 M 783.5 628.5 784.5 628.5 858.5 628.5 858.5 629.5 857.5 629.5 783.5 629.5 Z M 784 628 M 783.5 627.5 784.5 627.5 858.5 627.5 858.5 628.5 857.5 628.5 783.5 628.5 Z M 784 627 M 783.5 626.5 784.5 626.5 858.5 626.5 858.5 627.5 857.5 627.5 783.5 627.5 Z M 784 626 M 783.5 625.5 784.5 625.5 858.5 625.5 858.5 626.5 857.5 626.5 783.5 626.5 Z M 784 625 M 783.5 624.5 784.5 624.5 858.5 624.5 858.5 625.5 857.5 625.5 783.5 625.5 Z M 784 624 M 783.5 623.5 784.5 623.5 858.5 623.5 858.5 624.5 857.5 624.5 783.5 624.5 Z M 784 623 M 783.5 622.5 784.5 622.5 858.5 622.5 858.5 623.5 857.5 623.5 783.5 623.5 Z M 784 622 M 783.5 621.5 784.5 621.5 858.5 621.5 858.5 622.5 857.5 622.5 783.5 622.5 Z M 784 621 M 783.5 620.5 784.5 620.5 858.5 620.5 858.5 621.5 857.5 621.5 783.5 621.5 Z M 784 620 M 783.5 619.5 784.5 619.5 858.5 619.5 858.5 620.5 857.5 620.5 783.5 620.5 Z M 784 619 M 783.5 618.5 784.5 618.5 858.5 618.5 858.5 619.5 857.5 619.5 783.5 619.5 Z M 784 618 M 783.5 617.5 784.5 617.5 858.5 617.5 858.5 618.5 857.5 618.5 783.5 618.5 Z M 784 617 M 783.5 616.5 784.5 616.5 858.5 616.5 858.5 617.5 857.5 617.5 783.5 617.5 Z M 784 616 M 783.5 615.5 784.5 615.5 858.5 615.5 858.5 616.5 857.5 616.5 783.5 616.5 Z M 784 615 M 783.5 614.5 784.5 614.5 858.5 614.5 858.5 615.5 857.5 615.5 783.5 615.5 Z M 784 614 M 783.5 613.5 784.5 613.5 858.5 613.5 858.5 614.5 857.5 614.5 783.5 614.5 Z M 784 613 M 783.5 612.5 784.5 612.5 858.5 612.5 858.5 613.5 857.5 613.5 783.5 613.5 Z M 784 612 M 783.5 611.5 784.5 611.5 858.5 611.5 858.5 612.5 857.5 612.5 783.5 612.5 Z M 784 611 M 783.5 610.5 784.5 610.5 858.5 610.5 858.5 611.5 857.5 611.5 783.5 611.5 Z M 784 610 M 783.5 609.5 784.5 609.5 858.5 609.5 858.5 610.5 857.5 610.5 783.5 610.5 Z M 784 609 M 783.5 608.5 784.5 608.5 858.5 608.5 858.5 609.5 857.5 609.5 783.5 609.5 Z M 784 608 M 783.5 607.5 784.5 607.5 858.5 607.5 858.5 608.5 857.5 608.5 783.5 608.5 Z M 784 607 M 783.5 606.5 784.5 606.5 858.5 606.5 858.5 607.5 857.5 607.5 783.5 607.5 Z M 784 606 M 783.5 605.5 784.5 605.5 858.5 605.5 858.5 606.5 857.5 606.5 783.5 606.5 Z M 784 605 M 783.5 604.5 784.5 604.5 858.5 604.5 858.5 605.5 857.5 605.5 783.5 605.5 Z M 784 604 M 783.5 603.5 784.5 603.5 858.5 603.5 858.5 604.5 857.5 604.5 783.5 604.5 Z M 784 603 M 783.5 602.5 784.5 602.5 858.5 602.5 858.5 603.5 857.5 603.5 783.5 603.5 Z M 784 602 M 783.5 601.5 784.5 601.5 858.5 601.5 858.5 602.5 857.5 602.5 783.5 602.5 Z M 784 601 M 783.5 600.5 784.5 600.5 819.5 600.5 819.5 601.5 818.5 601.5 783.5 601.5 Z M 824 601 M 823.5 600.5 824.5 600.5 858.5 600.5 858.5 601.5 857.5 601.5 823.5 601.5 Z M 784 600 M 783.5 599.5 784.5 599.5 816.5 599.5 816.5 600.5 815.5 600.5 783.5 600.5 Z M 826 600 M 825.5 599.5 826.5 599.5 858.5 599.5 858.5 600.5 857.5 600.5 825.5 600.5 Z M 784 599 M 783.5 598.5 784.5 598.5 815.5 598.5 815.5 599.5 814.5 599.5 783.5 599.5 Z M 827 599 M 826.5 598.5 827.5 598.5 858.5 598.5 858.5 599.5 857.5 599.5 826.5 599.5 Z M 784 598 M 783.5 597.5 784.5 597.5 814.5 597.5 814.5 598.5 813.5 598.5 783.5 598.5 Z M 828 598 M 827.5 597.5 828.5 597.5 858.5 597.5 858.5 598.5 857.5 598.5 827.5 598.5 Z M 784 597 M 783.5 596.5 784.5 596.5 813.5 596.5 813.5 597.5 812.5 597.5 783.5 597.5 Z M 829 597 M 828.5 596.5 829.5 596.5 858.5 596.5 858.5 597.5 857.5 597.5 828.5 597.5 Z M 784 596 M 783.5 595.5 784.5 595.5 813.5 595.5 813.5 596.5 812.5 596.5 783.5 596.5 Z M 830 596 M 829.5 595.5 830.5 595.5 858.5 595.5 858.5 596.5 857.5 596.5 829.5 596.5 Z M 784 595 M 783.5 594.5 784.5 594.5 812.5 594.5 812.5 595.5 811.5 595.5 783.5 595.5 Z M 830 595 M 829.5 594.5 830.5 594.5 858.5 594.5 858.5 595.5 857.5 595.5 829.5 595.5 Z M 784 594 M 783.5 593.5 784.5 593.5 812.5 593.5 812.5 594.5 811.5 594.5 783.5 594.5 Z M 830 594 M 829.5 593.5 830.5 593.5 858.5 593.5 858.5 594.5 857.5 594.5 829.5 594.5 Z M 784 593 M 783.5 592.5 784.5 592.5 812.5 592.5 812.5 593.5 811.5 593.5 783.5 593.5 Z M 830 593 M 829.5 592.5 830.5 592.5 858.5 592.5 858.5 593.5 857.5 593.5 829.5 593.5 Z M 784 592 M 783.5 591.5 784.5 591.5 812.5 591.5 812.5 592.5 811.5 592.5 783.5 592.5 Z M 830 592 M 829.5 591.5 830.5 591.5 858.5 591.5 858.5 592.5 857.5 592.5 829.5 592.5 Z M 784 591 M 783.5 590.5 784.5 590.5 812.5 590.5 812.5 591.5 811.5 591.5 783.5 591.5 Z M 830 591 M 829.5 590.5 830.5 590.5 858.5 590.5 858.5 591.5 857.5 591.5 829.5 591.5 Z M 784 590 M 783.5 589.5 784.5 589.5 812.5 589.5 812.5 590.5 811.5 590.5 783.5 590.5 Z M 830 590 M 829.5 589.5 830.5 589.5 858.5 589.5 858.5 590.5 857.5 590.5 829.5 590.5 Z M 784 589 M 783.5 588.5 784.5 588.5 813.5 588.5 813.5 589.5 812.5 589.5 783.5 589.5 Z M 830 589 M 829.5 588.5 830.5 588.5 858.5 588.5 858.5 589.5 857.5 589.5 829.5 589.5 Z M 784 588 M 783.5 587.5 784.5 587.5 813.5 587.5 813.5 588.5 812.5 588.5 783.5 588.5 Z M 829 588 M 828.5 587.5 829.5 587.5 858.5 587.5 858.5 588.5 857.5 588.5 828.5 588.5 Z M 784 587 M 783.5 586.5 784.5 586.5 814.5 586.5 814.5 587.5 813.5 587.5 783.5 587.5 Z M 829 587 M 828.5 586.5 829.5 586.5 858.5 586.5 858.5 587.5 857.5 587.5 828.5 587.5 Z M 784 586 M 783.5 585.5 784.5 585.5 815.5 585.5 815.5 586.5 814.5 586.5 783.5 586.5 Z M 828 586 M 827.5 585.5 828.5 585.5 858.5 585.5 858.5 586.5 857.5 586.5 827.5 586.5 Z M 784 585 M 783.5 584.5 784.5 584.5 816.5 584.5 816.5 585.5 815.5 585.5 783.5 585.5 Z M 826 585 M 825.5 584.5 826.5 584.5 858.5 584.5 858.5 585.5 857.5 585.5 825.5 585.5 Z M 784 584 M 783.5 583.5 784.5 583.5 818.5 583.5 818.5 584.5 817.5 584.5 783.5 584.5 Z M 824 584 M 823.5 583.5 824.5 583.5 858.5 583.5 858.5 584.5 857.5 584.5 823.5 584.5 Z M 784 583 M 783.5 582.5 784.5 582.5 858.5 582.5 858.5 583.5 857.5 583.5 783.5 583.5 Z M 784 582 M 783.5 581.5 784.5 581.5 858.5 581.5 858.5 582.5 857.5 582.5 783.5 582.5 Z M 784 581 M 783.5 580.5 784.5 580.5 858.5 580.5 858.5 581.5 857.5 581.5 783.5 581.5 Z M 784 580 M 783.5 579.5 784.5 579.5 858.5 579.5 858.5 580.5 857.5 580.5 783.5 580.5 Z M 784 579 M 783.5 578.5 784.5 578.5 858.5 578.5 858.5 579.5 857.5 579.5 783.5 579.5 Z M 784 578 M 783.5 577.5 784.5 577.5 858.5 577.5 858.5 578.5 857.5 578.5 783.5 578.5 Z M 784 577 M 783.5 576.5 784.5 576.5 858.5 576.5 858.5 577.5 857.5 577.5 783.5 577.5 Z M 784 576 M 783.5 575.5 784.5 575.5 858.5 575.5 858.5 576.5 857.5 576.5 783.5 576.5 Z M 784 575 M 783.5 574.5 784.5 574.5 858.5 574.5 858.5 575.5 857.5 575.5 783.5 575.5 Z M 784 574 M 783.5 573.5 784.5 573.5 858.5 573.5 858.5 574.5 857.5 574.5 783.5 574.5 Z M 784 573 M 783.5 572.5 784.5 572.5 858.5 572.5 858.5 573.5 857.5 573.5 783.5 573.5 Z M 784 572 M 783.5 571.5 784.5 571.5 858.5 571.5 858.5 572.5 857.5 572.5 783.5 572.5 Z M 784 571 M 783.5 570.5 784.5 570.5 858.5 570.5 858.5 571.5 857.5 571.5 783.5 571.5 Z M 784 570 M 783.5 569.5 784.5 569.5 858.5 569.5 858.5 570.5 857.5 570.5 783.5 570.5 Z M 784 569 M 783.5 568.5 784.5 568.5 858.5 568.5 858.5 569.5 857.5 569.5 783.5 569.5 Z M 784 568 M 783.5 567.5 784.5 567.5 858.5 567.5 858.5 568.5 857.5 568.5 783.5 568.5 Z M 784 567 M 783.5 566.5 784.5 566.5 858.5 566.5 858.5 567.5 857.5 567.5 783.5 567.5 Z M 784 566 M 783.5 565.5 784.5 565.5 858.5 565.5 858.5 566.5 857.5 566.5 783.5 566.5 Z M 784 565 M 783.5 564.5 784.5 564.5 858.5 564.5 858.5 565.5 857.5 565.5 783.5 565.5 Z M 784 564 M 783.5 563.5 784.5 563.5 858.5 563.5 858.5 564.5 857.5 564.5 783.5 564.5 Z M 784 563 M 783.5 562.5 784.5 562.5 858.5 562.5 858.5 563.5 857.5 563.5 783.5 563.5 Z M 784 562 M 783.5 561.5 784.5 561.5 858.5 561.5 858.5 562.5 857.5 562.5 783.5 562.5 Z M 784 561 M 783.5 560.5 784.5 560.5 858.5 560.5 858.5 561.5 857.5 561.5 783.5 561.5 Z M 784 560 M 783.5 559.5 784.5 559.5 858.5 559.5 858.5 560.5 857.5 560.5 783.5 560.5 Z M 784 559 M 783.5 558.5 784.5 558.5 858.5 558.5 858.5 559.5 857.5 559.5 783.5 559.5 Z M 784 558 M 783.5 557.5 784.5 557.5 858.5 557.5 858.5 558.5 857.5 558.5 783.5 558.5 Z M 784 557 M 783.5 556.5 784.5 556.5 858.5 556.5 858.5 557.5 857.5 557.5 783.5 557.5 Z M 784 556 M 783.5 555.5 784.5 555.5 858.5 555.5 858.5 556.5 857.5 556.5 783.5 556.5 Z M 785 555 M 784.5 554.5 785.5 554.5 858.5 554.5 858.5 555.5 857.5 555.5 784.5 555.5 Z"/></g><mask id="pcb_bottom-sm_mask" color="#000"><rect x="4" y="4" width="2441" height="1244" fill="#fff"/><use xlink:href="#pcb_bottom-sm"/></mask><mask id="pcb_bottom-cu_finish-mask" color="#fff"><use xlink:href="#pcb_bottom-cu"/></mask></defs><g mask="url(#pcb_bottom-sm_mask)"><rect x="4" y="4" width="2441" height="1244" fill="currentColor" class="pcb_board-sm"/><g id="pcb_bottom-ss" class="pcb_board-ss" fill="currentColor" stroke="currentColor"><path stroke-width="8" fill="none" d="M 4 1248 L 2445 1248 M 2445 1248 L 2445 4 M 2445 4 L 4 4 M 4 4 L 4 1248"/></g></g><use class="pcb_board-cf" mask="url(#pcb_bottom-cu_finish-mask)" xlink:href="#pcb_bottom-sm"/></g></g></svg>