<?xml-stylesheet href="https://s3.amazonaws.com/maker.works.boards/css/blackpcb.css" type="text/css"?><svg xmlns="http://www.w3.org/2000/svg" version="1.1" xmlns:xlink="http://www.w3.org/1999/xlink" stroke-width="0" stroke-linecap="round" stroke-linejoin="round" width="2.395in" height="1.209in" id="pcb_bottom" viewBox="4 4 2395 1209"><defs><circle cx="0" cy="0" r="19" id="tool-T10-pad-1000"/><circle cx="0" cy="0" r="20" id="tool-T11-pad-1001"/><circle cx="0" cy="0" r="17.5" id="tool-T12-pad-1002"/><circle cx="0" cy="0" r="40" id="tool-D10-pad-1003"/><circle cx="0" cy="0" r="39" id="tool-D11-pad-1004"/><circle cx="0" cy="0" r="37.5" id="tool-D12-pad-1005"/><rect x="-40" y="-40" width="80" height="80" id="tool-D13-pad-1006"/><rect x="-37.5" y="-37.5" width="75" height="75" id="tool-D14-pad-1007"/><circle cx="0" cy="0" r="45" id="tool-D10-pad-1011"/><circle cx="0" cy="0" r="44" id="tool-D11-pad-1012"/><circle cx="0" cy="0" r="42.5" id="tool-D12-pad-1013"/><rect x="-45" y="-45" width="90" height="90" id="tool-D13-pad-1014"/><rect x="-42.5" y="-42.5" width="85" height="85" id="tool-D14-pad-1015"/><g id="pcb_bottom-cu" fill="currentColor" stroke="currentColor"><use x="204" y="768" xlink:href="#tool-D10-pad-1003"/><use x="204" y="868" xlink:href="#tool-D10-pad-1003"/><use x="204" y="1016" xlink:href="#tool-D10-pad-1003"/><use x="204" y="1116" xlink:href="#tool-D10-pad-1003"/><use x="204" y="516" xlink:href="#tool-D10-pad-1003"/><use x="204" y="616" xlink:href="#tool-D10-pad-1003"/><use x="554" y="192" xlink:href="#tool-D10-pad-1003"/><use x="454" y="192" xlink:href="#tool-D10-pad-1003"/><use x="304" y="193" xlink:href="#tool-D10-pad-1003"/><use x="204" y="193" xlink:href="#tool-D10-pad-1003"/><use x="2054" y="192" xlink:href="#tool-D10-pad-1003"/><use x="1954" y="192" xlink:href="#tool-D10-pad-1003"/><use x="1554" y="192" xlink:href="#tool-D10-pad-1003"/><use x="1454" y="192" xlink:href="#tool-D10-pad-1003"/><use x="1805" y="192" xlink:href="#tool-D10-pad-1003"/><use x="1705" y="192" xlink:href="#tool-D10-pad-1003"/><use x="804" y="192" xlink:href="#tool-D10-pad-1003"/><use x="704" y="192" xlink:href="#tool-D10-pad-1003"/><use x="1304" y="192" xlink:href="#tool-D10-pad-1003"/><use x="1204" y="192" xlink:href="#tool-D10-pad-1003"/><use x="1054" y="192" xlink:href="#tool-D10-pad-1003"/><use x="954" y="192" xlink:href="#tool-D10-pad-1003"/><use x="2304" y="193" xlink:href="#tool-D10-pad-1003"/><use x="2204" y="193" xlink:href="#tool-D10-pad-1003"/><use x="404" y="1018" xlink:href="#tool-D11-pad-1004"/><use x="504" y="1018" xlink:href="#tool-D11-pad-1004"/><use x="604" y="1018" xlink:href="#tool-D11-pad-1004"/><use x="704" y="1018" xlink:href="#tool-D11-pad-1004"/><use x="804" y="1018" xlink:href="#tool-D11-pad-1004"/><use x="904" y="1018" xlink:href="#tool-D11-pad-1004"/><use x="1004" y="1018" xlink:href="#tool-D11-pad-1004"/><use x="1104" y="1018" xlink:href="#tool-D11-pad-1004"/><use x="1204" y="1018" xlink:href="#tool-D11-pad-1004"/><use x="1304" y="1018" xlink:href="#tool-D11-pad-1004"/><use x="1404" y="1018" xlink:href="#tool-D11-pad-1004"/><use x="1504" y="1018" xlink:href="#tool-D11-pad-1004"/><use x="1604" y="1018" xlink:href="#tool-D11-pad-1004"/><use x="1704" y="1018" xlink:href="#tool-D11-pad-1004"/><use x="1804" y="1018" xlink:href="#tool-D11-pad-1004"/><use x="1904" y="1018" xlink:href="#tool-D11-pad-1004"/><use x="2004" y="1018" xlink:href="#tool-D11-pad-1004"/><use x="2104" y="1018" xlink:href="#tool-D11-pad-1004"/><use x="2204" y="1018" xlink:href="#tool-D11-pad-1004"/><use x="2304" y="1018" xlink:href="#tool-D11-pad-1004"/><use x="404" y="1018" xlink:href="#tool-D11-pad-1004"/><use x="504" y="1018" xlink:href="#tool-D11-pad-1004"/><use x="604" y="1018" xlink:href="#tool-D11-pad-1004"/><use x="704" y="1018" xlink:href="#tool-D11-pad-1004"/><use x="804" y="1018" xlink:href="#tool-D11-pad-1004"/><use x="904" y="1018" xlink:href="#tool-D11-pad-1004"/><use x="1004" y="1018" xlink:href="#tool-D11-pad-1004"/><use x="1104" y="1018" xlink:href="#tool-D11-pad-1004"/><use x="1204" y="1018" xlink:href="#tool-D11-pad-1004"/><use x="1304" y="1018" xlink:href="#tool-D11-pad-1004"/><use x="1404" y="1018" xlink:href="#tool-D11-pad-1004"/><use x="1504" y="1018" xlink:href="#tool-D11-pad-1004"/><use x="1604" y="1018" xlink:href="#tool-D11-pad-1004"/><use x="1704" y="1018" xlink:href="#tool-D11-pad-1004"/><use x="1804" y="1018" xlink:href="#tool-D11-pad-1004"/><use x="1904" y="1018" xlink:href="#tool-D11-pad-1004"/><use x="2004" y="1018" xlink:href="#tool-D11-pad-1004"/><use x="2104" y="1018" xlink:href="#tool-D11-pad-1004"/><use x="2204" y="1018" xlink:href="#tool-D11-pad-1004"/><use x="2304" y="1018" xlink:href="#tool-D11-pad-1004"/><use x="2304" y="1118" xlink:href="#tool-D11-pad-1004"/><use x="2204" y="1118" xlink:href="#tool-D11-pad-1004"/><use x="2104" y="1118" xlink:href="#tool-D11-pad-1004"/><use x="2004" y="1118" xlink:href="#tool-D11-pad-1004"/><use x="1904" y="1118" xlink:href="#tool-D11-pad-1004"/><use x="1804" y="1118" xlink:href="#tool-D11-pad-1004"/><use x="1704" y="1118" xlink:href="#tool-D11-pad-1004"/><use x="1604" y="1118" xlink:href="#tool-D11-pad-1004"/><use x="1504" y="1118" xlink:href="#tool-D11-pad-1004"/><use x="1404" y="1118" xlink:href="#tool-D11-pad-1004"/><use x="1304" y="1118" xlink:href="#tool-D11-pad-1004"/><use x="1204" y="1118" xlink:href="#tool-D11-pad-1004"/><use x="1104" y="1118" xlink:href="#tool-D11-pad-1004"/><use x="1004" y="1118" xlink:href="#tool-D11-pad-1004"/><use x="904" y="1118" xlink:href="#tool-D11-pad-1004"/><use x="804" y="1118" xlink:href="#tool-D11-pad-1004"/><use x="704" y="1118" xlink:href="#tool-D11-pad-1004"/><use x="604" y="1118" xlink:href="#tool-D11-pad-1004"/><use x="504" y="1118" xlink:href="#tool-D11-pad-1004"/><use x="404" y="1118" xlink:href="#tool-D11-pad-1004"/><use x="404" y="518" xlink:href="#tool-D12-pad-1005"/><use x="404" y="918" xlink:href="#tool-D12-pad-1005"/><use x="2304" y="793" xlink:href="#tool-D12-pad-1005"/><use x="2304" y="493" xlink:href="#tool-D12-pad-1005"/><use x="2204" y="793" xlink:href="#tool-D12-pad-1005"/><use x="2204" y="493" xlink:href="#tool-D12-pad-1005"/><use x="2104" y="793" xlink:href="#tool-D12-pad-1005"/><use x="2104" y="493" xlink:href="#tool-D12-pad-1005"/><use x="2004" y="793" xlink:href="#tool-D12-pad-1005"/><use x="2004" y="493" xlink:href="#tool-D12-pad-1005"/><use x="1904" y="793" xlink:href="#tool-D12-pad-1005"/><use x="1904" y="493" xlink:href="#tool-D12-pad-1005"/><use x="1804" y="793" xlink:href="#tool-D12-pad-1005"/><use x="1804" y="493" xlink:href="#tool-D12-pad-1005"/><use x="1704" y="793" xlink:href="#tool-D12-pad-1005"/><use x="1704" y="493" xlink:href="#tool-D12-pad-1005"/><use x="1604" y="793" xlink:href="#tool-D12-pad-1005"/><use x="1604" y="493" xlink:href="#tool-D12-pad-1005"/><use x="1504" y="793" xlink:href="#tool-D12-pad-1005"/><use x="1504" y="493" xlink:href="#tool-D12-pad-1005"/><use x="204" y="768" xlink:href="#tool-D13-pad-1006"/><use x="204" y="1016" xlink:href="#tool-D13-pad-1006"/><use x="204" y="516" xlink:href="#tool-D13-pad-1006"/><use x="554" y="192" xlink:href="#tool-D13-pad-1006"/><use x="304" y="193" xlink:href="#tool-D13-pad-1006"/><use x="2054" y="192" xlink:href="#tool-D13-pad-1006"/><use x="1554" y="192" xlink:href="#tool-D13-pad-1006"/><use x="1805" y="192" xlink:href="#tool-D13-pad-1006"/><use x="804" y="192" xlink:href="#tool-D13-pad-1006"/><use x="1304" y="192" xlink:href="#tool-D13-pad-1006"/><use x="1054" y="192" xlink:href="#tool-D13-pad-1006"/><use x="2304" y="193" xlink:href="#tool-D13-pad-1006"/><use x="2304" y="793" xlink:href="#tool-D14-pad-1007"/><path stroke-width="12" fill="none" d="M 704 818 L 420 534 M 704 993 L 704 818 M 404 941 L 404 993 M 572 174 L 629 118 M 804 116 L 804 166 M 629 118 L 804 116 M 804 116 L 1056 116 M 1056 116 L 1054 166 M 1304 116 L 1304 166 M 1056 116 L 1304 116 M 1552 116 L 1553 166 M 1304 116 L 1552 116 M 1804 116 L 1804 166 M 1552 116 L 1804 116 M 2052 116 L 2053 166 M 1804 116 L 2052 116 M 2052 116 L 2229 118 M 2229 118 L 2286 175 M 279 868 L 279 518 M 279 518 L 230 516 M 279 868 L 229 868 M 179 1116 L 129 1118 M 129 1118 L 128 769 M 1604 442 L 1580 418 M 454 268 L 454 217 M 1604 470 L 1604 442 M 1580 418 L 604 418 M 604 418 L 454 268 M 1704 442 L 1654 394 M 704 268 L 704 217 M 1654 394 L 830 392 M 830 392 L 704 268 M 1704 470 L 1704 442 M 1804 444 L 1804 470 M 954 268 L 1054 368 M 1728 368 L 1804 444 M 1054 368 L 1728 368 M 954 217 L 954 268 M 1904 442 L 1904 470 M 1280 344 L 1804 344 M 1204 217 L 1204 268 M 1804 344 L 1904 442 M 1204 268 L 1280 344 M 1454 217 L 1454 268 M 1454 268 L 1504 318 M 1504 318 L 1880 318 M 1880 318 L 2004 444 M 2004 444 L 2004 470 M 2104 442 L 1954 294 M 1954 294 L 1728 294 M 1704 268 L 1704 218 M 1728 294 L 1704 268 M 2104 470 L 2104 442 M 2030 268 L 2204 444 M 2204 444 L 2204 470 M 1954 217 L 1954 268 M 1954 268 L 2030 268 M 2304 444 L 2304 470 M 2204 342 L 2304 444 M 2204 218 L 2204 342 M 128 769 L 178 768 M 279 518 L 375 518 M 604 493 L 1481 493 M 322 211 L 604 493 M 204 266 L 279 268 M 804 793 L 804 993 M 279 268 L 804 793 M 204 218 L 204 266 M 479 118 L 379 118 M 379 118 L 322 175 M 536 174 L 479 118 M 1481 793 L 804 793 M 1604 868 L 1004 868 M 904 968 L 904 993 M 1004 868 L 904 968 M 1604 816 L 1604 868 M 1680 892 L 1080 894 M 1080 894 L 1004 968 M 1004 968 L 1004 993 M 1704 816 L 1704 868 M 1704 868 L 1680 892 M 1754 918 L 1154 918 M 1154 918 L 1104 968 M 1104 968 L 1104 993 M 1804 868 L 1754 918 M 1804 816 L 1804 868 M 1904 816 L 1904 869 M 1904 869 L 1804 966 M 1804 966 L 1804 993 M 2004 816 L 2004 866 M 2004 866 L 1904 968 M 1904 968 L 1904 993 M 2104 816 L 2104 866 M 2104 866 L 2004 966 M 2004 966 L 2004 993 M 2204 816 L 2204 866 M 2104 968 L 2104 993 M 2204 866 L 2104 968 M 2304 816 L 2304 869 M 2204 966 L 2204 993 M 2304 869 L 2204 966 M 129 768 L 129 168 M 129 168 L 179 118 M 179 118 L 229 118 M 173 768 L 129 768 M 229 118 L 286 175 M 235 1116 L 374 1117"/></g><mask id="pcb_bottom_mech-mask" fill="#fff" stroke="#fff" fill-rule="evenodd"><path stroke-width="0" d="M 4 1213 L 4 4 L 2399 4 L 2399 1213 Z"/><g id="pcb_bottom-drl" fill="#000" stroke="#000"><use x="803.7" y="1117.5" xlink:href="#tool-T10-pad-1000"/><use x="2203.7" y="1017.5" xlink:href="#tool-T10-pad-1000"/><use x="2003.7" y="1017.5" xlink:href="#tool-T10-pad-1000"/><use x="2303.7" y="1017.5" xlink:href="#tool-T10-pad-1000"/><use x="2103.7" y="1017.5" xlink:href="#tool-T10-pad-1000"/><use x="1003.7" y="1117.5" xlink:href="#tool-T10-pad-1000"/><use x="1203.7" y="1117.5" xlink:href="#tool-T10-pad-1000"/><use x="1403.7" y="1117.5" xlink:href="#tool-T10-pad-1000"/><use x="1103.7" y="1117.5" xlink:href="#tool-T10-pad-1000"/><use x="1303.7" y="1117.5" xlink:href="#tool-T10-pad-1000"/><use x="1503.7" y="1117.5" xlink:href="#tool-T10-pad-1000"/><use x="1703.7" y="1117.5" xlink:href="#tool-T10-pad-1000"/><use x="1903.7" y="1117.5" xlink:href="#tool-T10-pad-1000"/><use x="1603.7" y="1117.5" xlink:href="#tool-T10-pad-1000"/><use x="1803.7" y="1117.5" xlink:href="#tool-T10-pad-1000"/><use x="2003.7" y="1117.5" xlink:href="#tool-T10-pad-1000"/><use x="2203.7" y="1117.5" xlink:href="#tool-T10-pad-1000"/><use x="2103.7" y="1117.5" xlink:href="#tool-T10-pad-1000"/><use x="2303.7" y="1117.5" xlink:href="#tool-T10-pad-1000"/><use x="603.7" y="1017.5" xlink:href="#tool-T10-pad-1000"/><use x="403.7" y="1017.5" xlink:href="#tool-T10-pad-1000"/><use x="903.7" y="1017.5" xlink:href="#tool-T10-pad-1000"/><use x="703.7" y="1017.5" xlink:href="#tool-T10-pad-1000"/><use x="503.7" y="1017.5" xlink:href="#tool-T10-pad-1000"/><use x="803.7" y="1017.5" xlink:href="#tool-T10-pad-1000"/><use x="1403.7" y="1017.5" xlink:href="#tool-T10-pad-1000"/><use x="1203.7" y="1017.5" xlink:href="#tool-T10-pad-1000"/><use x="1003.7" y="1017.5" xlink:href="#tool-T10-pad-1000"/><use x="1903.7" y="1017.5" xlink:href="#tool-T10-pad-1000"/><use x="1703.7" y="1017.5" xlink:href="#tool-T10-pad-1000"/><use x="1503.7" y="1017.5" xlink:href="#tool-T10-pad-1000"/><use x="1303.7" y="1017.5" xlink:href="#tool-T10-pad-1000"/><use x="1103.7" y="1017.5" xlink:href="#tool-T10-pad-1000"/><use x="1803.7" y="1017.5" xlink:href="#tool-T10-pad-1000"/><use x="1603.7" y="1017.5" xlink:href="#tool-T10-pad-1000"/><use x="403.7" y="1117.5" xlink:href="#tool-T10-pad-1000"/><use x="603.7" y="1117.5" xlink:href="#tool-T10-pad-1000"/><use x="503.7" y="1117.5" xlink:href="#tool-T10-pad-1000"/><use x="703.7" y="1117.5" xlink:href="#tool-T10-pad-1000"/><use x="903.7" y="1117.5" xlink:href="#tool-T10-pad-1000"/><use x="1303.7" y="191.6" xlink:href="#tool-T11-pad-1001"/><use x="1804.6" y="191.9" xlink:href="#tool-T11-pad-1001"/><use x="1453.7" y="191.6" xlink:href="#tool-T11-pad-1001"/><use x="203.7" y="867.5" xlink:href="#tool-T11-pad-1001"/><use x="703.7" y="191.6" xlink:href="#tool-T11-pad-1001"/><use x="204.2" y="615.9" xlink:href="#tool-T11-pad-1001"/><use x="204.2" y="1015.9" xlink:href="#tool-T11-pad-1001"/><use x="1053.7" y="191.6" xlink:href="#tool-T11-pad-1001"/><use x="2303.7" y="192.5" xlink:href="#tool-T11-pad-1001"/><use x="203.7" y="192.5" xlink:href="#tool-T11-pad-1001"/><use x="453.7" y="191.6" xlink:href="#tool-T11-pad-1001"/><use x="1953.7" y="191.6" xlink:href="#tool-T11-pad-1001"/><use x="203.7" y="767.5" xlink:href="#tool-T11-pad-1001"/><use x="204.2" y="515.9" xlink:href="#tool-T11-pad-1001"/><use x="1553.7" y="191.6" xlink:href="#tool-T11-pad-1001"/><use x="1203.7" y="191.6" xlink:href="#tool-T11-pad-1001"/><use x="1704.6" y="191.9" xlink:href="#tool-T11-pad-1001"/><use x="803.7" y="191.6" xlink:href="#tool-T11-pad-1001"/><use x="953.7" y="191.6" xlink:href="#tool-T11-pad-1001"/><use x="303.7" y="192.5" xlink:href="#tool-T11-pad-1001"/><use x="2203.7" y="192.5" xlink:href="#tool-T11-pad-1001"/><use x="553.7" y="191.6" xlink:href="#tool-T11-pad-1001"/><use x="204.2" y="1115.9" xlink:href="#tool-T11-pad-1001"/><use x="2053.7" y="191.6" xlink:href="#tool-T11-pad-1001"/><use x="2303.7" y="792.5" xlink:href="#tool-T12-pad-1002"/><use x="2303.7" y="492.5" xlink:href="#tool-T12-pad-1002"/><use x="1703.7" y="792.5" xlink:href="#tool-T12-pad-1002"/><use x="2003.7" y="792.5" xlink:href="#tool-T12-pad-1002"/><use x="1603.7" y="792.5" xlink:href="#tool-T12-pad-1002"/><use x="1703.7" y="492.5" xlink:href="#tool-T12-pad-1002"/><use x="2003.7" y="492.5" xlink:href="#tool-T12-pad-1002"/><use x="1603.7" y="492.5" xlink:href="#tool-T12-pad-1002"/><use x="403.7" y="917.5" xlink:href="#tool-T12-pad-1002"/><use x="1903.7" y="792.5" xlink:href="#tool-T12-pad-1002"/><use x="2203.7" y="792.5" xlink:href="#tool-T12-pad-1002"/><use x="1803.7" y="792.5" xlink:href="#tool-T12-pad-1002"/><use x="1903.7" y="492.5" xlink:href="#tool-T12-pad-1002"/><use x="2103.7" y="792.5" xlink:href="#tool-T12-pad-1002"/><use x="2203.7" y="492.5" xlink:href="#tool-T12-pad-1002"/><use x="1803.7" y="492.5" xlink:href="#tool-T12-pad-1002"/><use x="2103.7" y="492.5" xlink:href="#tool-T12-pad-1002"/><use x="1503.7" y="792.5" xlink:href="#tool-T12-pad-1002"/><use x="1503.7" y="492.5" xlink:href="#tool-T12-pad-1002"/><use x="403.7" y="517.5" xlink:href="#tool-T12-pad-1002"/></g></mask></defs><g mask="url(#pcb_bottom_mech-mask)" transform="translate(2403,1217) scale(-1,-1)"><rect x="4" y="4" width="2395" height="1209" fill="currentColor" class="pcb_board-fr4"/><use class="pcb_board-cu" xlink:href="#pcb_bottom-cu"/><g><defs><g id="pcb_bottom-sm" fill="currentColor" stroke="currentColor"><use x="204" y="768" xlink:href="#tool-D10-pad-1011"/><use x="204" y="868" xlink:href="#tool-D10-pad-1011"/><use x="204" y="1016" xlink:href="#tool-D10-pad-1011"/><use x="204" y="1116" xlink:href="#tool-D10-pad-1011"/><use x="204" y="516" xlink:href="#tool-D10-pad-1011"/><use x="204" y="616" xlink:href="#tool-D10-pad-1011"/><use x="554" y="192" xlink:href="#tool-D10-pad-1011"/><use x="454" y="192" xlink:href="#tool-D10-pad-1011"/><use x="304" y="193" xlink:href="#tool-D10-pad-1011"/><use x="204" y="193" xlink:href="#tool-D10-pad-1011"/><use x="2054" y="192" xlink:href="#tool-D10-pad-1011"/><use x="1954" y="192" xlink:href="#tool-D10-pad-1011"/><use x="1554" y="192" xlink:href="#tool-D10-pad-1011"/><use x="1454" y="192" xlink:href="#tool-D10-pad-1011"/><use x="1805" y="192" xlink:href="#tool-D10-pad-1011"/><use x="1705" y="192" xlink:href="#tool-D10-pad-1011"/><use x="804" y="192" xlink:href="#tool-D10-pad-1011"/><use x="704" y="192" xlink:href="#tool-D10-pad-1011"/><use x="1304" y="192" xlink:href="#tool-D10-pad-1011"/><use x="1204" y="192" xlink:href="#tool-D10-pad-1011"/><use x="1054" y="192" xlink:href="#tool-D10-pad-1011"/><use x="954" y="192" xlink:href="#tool-D10-pad-1011"/><use x="2304" y="193" xlink:href="#tool-D10-pad-1011"/><use x="2204" y="193" xlink:href="#tool-D10-pad-1011"/><use x="404" y="1018" xlink:href="#tool-D11-pad-1012"/><use x="504" y="1018" xlink:href="#tool-D11-pad-1012"/><use x="604" y="1018" xlink:href="#tool-D11-pad-1012"/><use x="704" y="1018" xlink:href="#tool-D11-pad-1012"/><use x="804" y="1018" xlink:href="#tool-D11-pad-1012"/><use x="904" y="1018" xlink:href="#tool-D11-pad-1012"/><use x="1004" y="1018" xlink:href="#tool-D11-pad-1012"/><use x="1104" y="1018" xlink:href="#tool-D11-pad-1012"/><use x="1204" y="1018" xlink:href="#tool-D11-pad-1012"/><use x="1304" y="1018" xlink:href="#tool-D11-pad-1012"/><use x="1404" y="1018" xlink:href="#tool-D11-pad-1012"/><use x="1504" y="1018" xlink:href="#tool-D11-pad-1012"/><use x="1604" y="1018" xlink:href="#tool-D11-pad-1012"/><use x="1704" y="1018" xlink:href="#tool-D11-pad-1012"/><use x="1804" y="1018" xlink:href="#tool-D11-pad-1012"/><use x="1904" y="1018" xlink:href="#tool-D11-pad-1012"/><use x="2004" y="1018" xlink:href="#tool-D11-pad-1012"/><use x="2104" y="1018" xlink:href="#tool-D11-pad-1012"/><use x="2204" y="1018" xlink:href="#tool-D11-pad-1012"/><use x="2304" y="1018" xlink:href="#tool-D11-pad-1012"/><use x="404" y="1018" xlink:href="#tool-D11-pad-1012"/><use x="504" y="1018" xlink:href="#tool-D11-pad-1012"/><use x="604" y="1018" xlink:href="#tool-D11-pad-1012"/><use x="704" y="1018" xlink:href="#tool-D11-pad-1012"/><use x="804" y="1018" xlink:href="#tool-D11-pad-1012"/><use x="904" y="1018" xlink:href="#tool-D11-pad-1012"/><use x="1004" y="1018" xlink:href="#tool-D11-pad-1012"/><use x="1104" y="1018" xlink:href="#tool-D11-pad-1012"/><use x="1204" y="1018" xlink:href="#tool-D11-pad-1012"/><use x="1304" y="1018" xlink:href="#tool-D11-pad-1012"/><use x="1404" y="1018" xlink:href="#tool-D11-pad-1012"/><use x="1504" y="1018" xlink:href="#tool-D11-pad-1012"/><use x="1604" y="1018" xlink:href="#tool-D11-pad-1012"/><use x="1704" y="1018" xlink:href="#tool-D11-pad-1012"/><use x="1804" y="1018" xlink:href="#tool-D11-pad-1012"/><use x="1904" y="1018" xlink:href="#tool-D11-pad-1012"/><use x="2004" y="1018" xlink:href="#tool-D11-pad-1012"/><use x="2104" y="1018" xlink:href="#tool-D11-pad-1012"/><use x="2204" y="1018" xlink:href="#tool-D11-pad-1012"/><use x="2304" y="1018" xlink:href="#tool-D11-pad-1012"/><use x="2304" y="1118" xlink:href="#tool-D11-pad-1012"/><use x="2204" y="1118" xlink:href="#tool-D11-pad-1012"/><use x="2104" y="1118" xlink:href="#tool-D11-pad-1012"/><use x="2004" y="1118" xlink:href="#tool-D11-pad-1012"/><use x="1904" y="1118" xlink:href="#tool-D11-pad-1012"/><use x="1804" y="1118" xlink:href="#tool-D11-pad-1012"/><use x="1704" y="1118" xlink:href="#tool-D11-pad-1012"/><use x="1604" y="1118" xlink:href="#tool-D11-pad-1012"/><use x="1504" y="1118" xlink:href="#tool-D11-pad-1012"/><use x="1404" y="1118" xlink:href="#tool-D11-pad-1012"/><use x="1304" y="1118" xlink:href="#tool-D11-pad-1012"/><use x="1204" y="1118" xlink:href="#tool-D11-pad-1012"/><use x="1104" y="1118" xlink:href="#tool-D11-pad-1012"/><use x="1004" y="1118" xlink:href="#tool-D11-pad-1012"/><use x="904" y="1118" xlink:href="#tool-D11-pad-1012"/><use x="804" y="1118" xlink:href="#tool-D11-pad-1012"/><use x="704" y="1118" xlink:href="#tool-D11-pad-1012"/><use x="604" y="1118" xlink:href="#tool-D11-pad-1012"/><use x="504" y="1118" xlink:href="#tool-D11-pad-1012"/><use x="404" y="1118" xlink:href="#tool-D11-pad-1012"/><use x="404" y="518" xlink:href="#tool-D12-pad-1013"/><use x="404" y="918" xlink:href="#tool-D12-pad-1013"/><use x="2304" y="793" xlink:href="#tool-D12-pad-1013"/><use x="2304" y="493" xlink:href="#tool-D12-pad-1013"/><use x="2204" y="793" xlink:href="#tool-D12-pad-1013"/><use x="2204" y="493" xlink:href="#tool-D12-pad-1013"/><use x="2104" y="793" xlink:href="#tool-D12-pad-1013"/><use x="2104" y="493" xlink:href="#tool-D12-pad-1013"/><use x="2004" y="793" xlink:href="#tool-D12-pad-1013"/><use x="2004" y="493" xlink:href="#tool-D12-pad-1013"/><use x="1904" y="793" xlink:href="#tool-D12-pad-1013"/><use x="1904" y="493" xlink:href="#tool-D12-pad-1013"/><use x="1804" y="793" xlink:href="#tool-D12-pad-1013"/><use x="1804" y="493" xlink:href="#tool-D12-pad-1013"/><use x="1704" y="793" xlink:href="#tool-D12-pad-1013"/><use x="1704" y="493" xlink:href="#tool-D12-pad-1013"/><use x="1604" y="793" xlink:href="#tool-D12-pad-1013"/><use x="1604" y="493" xlink:href="#tool-D12-pad-1013"/><use x="1504" y="793" xlink:href="#tool-D12-pad-1013"/><use x="1504" y="493" xlink:href="#tool-D12-pad-1013"/><use x="204" y="768" xlink:href="#tool-D13-pad-1014"/><use x="204" y="1016" xlink:href="#tool-D13-pad-1014"/><use x="204" y="516" xlink:href="#tool-D13-pad-1014"/><use x="554" y="192" xlink:href="#tool-D13-pad-1014"/><use x="304" y="193" xlink:href="#tool-D13-pad-1014"/><use x="2054" y="192" xlink:href="#tool-D13-pad-1014"/><use x="1554" y="192" xlink:href="#tool-D13-pad-1014"/><use x="1805" y="192" xlink:href="#tool-D13-pad-1014"/><use x="804" y="192" xlink:href="#tool-D13-pad-1014"/><use x="1304" y="192" xlink:href="#tool-D13-pad-1014"/><use x="1054" y="192" xlink:href="#tool-D13-pad-1014"/><use x="2304" y="193" xlink:href="#tool-D13-pad-1014"/><use x="2304" y="793" xlink:href="#tool-D14-pad-1015"/></g><mask id="pcb_bottom-sm_mask" color="#000"><rect x="4" y="4" width="2395" height="1209" fill="#fff"/><use xlink:href="#pcb_bottom-sm"/></mask><mask id="pcb_bottom-cu_finish-mask" color="#fff"><use xlink:href="#pcb_bottom-cu"/></mask></defs><g mask="url(#pcb_bottom-sm_mask)"><rect x="4" y="4" width="2395" height="1209" fill="currentColor" class="pcb_board-sm"/><g id="pcb_bottom-ss" class="pcb_board-ss" fill="currentColor" stroke="currentColor"><path stroke-width="8" fill="none" d="M 4 1213 L 2399 1213 M 2399 1213 L 2399 4 M 2399 4 L 4 4 M 4 4 L 4 1213"/></g></g><use class="pcb_board-cf" mask="url(#pcb_bottom-cu_finish-mask)" xlink:href="#pcb_bottom-sm"/></g></g></svg>