<?xml-stylesheet href="https://s3.amazonaws.com/maker.works.boards/css/blackpcb.css" type="text/css"?><svg xmlns="http://www.w3.org/2000/svg" version="1.1" xmlns:xlink="http://www.w3.org/1999/xlink" stroke-width="0" stroke-linecap="round" stroke-linejoin="round" width="3.346in" height="2.203in" id="pcb_bottom" viewBox="4 4 3346 2203"><defs><circle cx="0" cy="0" r="54" id="tool-T10-pad-1000"/><circle cx="0" cy="0" r="59" id="tool-T11-pad-1001"/><circle cx="0" cy="0" r="19" id="tool-T12-pad-1002"/><circle cx="0" cy="0" r="20" id="tool-T13-pad-1003"/><circle cx="0" cy="0" r="17.5" id="tool-T14-pad-1004"/><circle cx="0" cy="0" r="85" id="tool-D10-pad-1005"/><circle cx="0" cy="0" r="40" id="tool-D11-pad-1006"/><circle cx="0" cy="0" r="39" id="tool-D12-pad-1007"/><circle cx="0" cy="0" r="37.5" id="tool-D13-pad-1008"/><rect x="-40" y="-40" width="80" height="80" id="tool-D14-pad-1009"/><rect x="-37.5" y="-37.5" width="75" height="75" id="tool-D15-pad-1010"/><circle cx="0" cy="0" r="90" id="tool-D10-pad-1013"/><circle cx="0" cy="0" r="45" id="tool-D11-pad-1014"/><circle cx="0" cy="0" r="59.15" id="tool-D12-pad-1015"/><circle cx="0" cy="0" r="44" id="tool-D13-pad-1016"/><circle cx="0" cy="0" r="42.5" id="tool-D14-pad-1017"/><rect x="-45" y="-45" width="90" height="90" id="tool-D15-pad-1018"/><rect x="-42.5" y="-42.5" width="85" height="85" id="tool-D16-pad-1019"/><g id="pcb_bottom-cu" fill="currentColor" stroke="currentColor"><use x="2841" y="391" xlink:href="#tool-D10-pad-1005"/><use x="3078" y="391" xlink:href="#tool-D10-pad-1005"/><use x="2959" y="576" xlink:href="#tool-D10-pad-1005"/><use x="3127" y="1052" xlink:href="#tool-D11-pad-1006"/><use x="3127" y="952" xlink:href="#tool-D11-pad-1006"/><use x="3126" y="827" xlink:href="#tool-D11-pad-1006"/><use x="3126" y="727" xlink:href="#tool-D11-pad-1006"/><use x="3128" y="1502" xlink:href="#tool-D11-pad-1006"/><use x="3128" y="1402" xlink:href="#tool-D11-pad-1006"/><use x="3128" y="1277" xlink:href="#tool-D11-pad-1006"/><use x="3128" y="1177" xlink:href="#tool-D11-pad-1006"/><use x="3128" y="1951" xlink:href="#tool-D11-pad-1006"/><use x="3128" y="1851" xlink:href="#tool-D11-pad-1006"/><use x="3128" y="1726" xlink:href="#tool-D11-pad-1006"/><use x="3128" y="1626" xlink:href="#tool-D11-pad-1006"/><use x="438" y="196" xlink:href="#tool-D11-pad-1006"/><use x="338" y="196" xlink:href="#tool-D11-pad-1006"/><use x="663" y="196" xlink:href="#tool-D11-pad-1006"/><use x="563" y="196" xlink:href="#tool-D11-pad-1006"/><use x="2013" y="196" xlink:href="#tool-D11-pad-1006"/><use x="1913" y="196" xlink:href="#tool-D11-pad-1006"/><use x="1563" y="196" xlink:href="#tool-D11-pad-1006"/><use x="1463" y="196" xlink:href="#tool-D11-pad-1006"/><use x="1788" y="196" xlink:href="#tool-D11-pad-1006"/><use x="1688" y="196" xlink:href="#tool-D11-pad-1006"/><use x="888" y="196" xlink:href="#tool-D11-pad-1006"/><use x="788" y="196" xlink:href="#tool-D11-pad-1006"/><use x="1338" y="196" xlink:href="#tool-D11-pad-1006"/><use x="1238" y="196" xlink:href="#tool-D11-pad-1006"/><use x="1113" y="196" xlink:href="#tool-D11-pad-1006"/><use x="1013" y="196" xlink:href="#tool-D11-pad-1006"/><use x="2238" y="196" xlink:href="#tool-D11-pad-1006"/><use x="2138" y="196" xlink:href="#tool-D11-pad-1006"/><use x="333" y="2029" xlink:href="#tool-D12-pad-1007"/><use x="433" y="2029" xlink:href="#tool-D12-pad-1007"/><use x="533" y="2029" xlink:href="#tool-D12-pad-1007"/><use x="633" y="2029" xlink:href="#tool-D12-pad-1007"/><use x="733" y="2029" xlink:href="#tool-D12-pad-1007"/><use x="833" y="2029" xlink:href="#tool-D12-pad-1007"/><use x="933" y="2029" xlink:href="#tool-D12-pad-1007"/><use x="1033" y="2029" xlink:href="#tool-D12-pad-1007"/><use x="1133" y="2029" xlink:href="#tool-D12-pad-1007"/><use x="1233" y="2029" xlink:href="#tool-D12-pad-1007"/><use x="1333" y="2029" xlink:href="#tool-D12-pad-1007"/><use x="1433" y="2029" xlink:href="#tool-D12-pad-1007"/><use x="1533" y="2029" xlink:href="#tool-D12-pad-1007"/><use x="1633" y="2029" xlink:href="#tool-D12-pad-1007"/><use x="1733" y="2029" xlink:href="#tool-D12-pad-1007"/><use x="1833" y="2029" xlink:href="#tool-D12-pad-1007"/><use x="1933" y="2029" xlink:href="#tool-D12-pad-1007"/><use x="2033" y="2029" xlink:href="#tool-D12-pad-1007"/><use x="2133" y="2029" xlink:href="#tool-D12-pad-1007"/><use x="2233" y="2029" xlink:href="#tool-D12-pad-1007"/><use x="333" y="2029" xlink:href="#tool-D12-pad-1007"/><use x="433" y="2029" xlink:href="#tool-D12-pad-1007"/><use x="533" y="2029" xlink:href="#tool-D12-pad-1007"/><use x="633" y="2029" xlink:href="#tool-D12-pad-1007"/><use x="733" y="2029" xlink:href="#tool-D12-pad-1007"/><use x="833" y="2029" xlink:href="#tool-D12-pad-1007"/><use x="933" y="2029" xlink:href="#tool-D12-pad-1007"/><use x="1033" y="2029" xlink:href="#tool-D12-pad-1007"/><use x="1133" y="2029" xlink:href="#tool-D12-pad-1007"/><use x="1233" y="2029" xlink:href="#tool-D12-pad-1007"/><use x="1333" y="2029" xlink:href="#tool-D12-pad-1007"/><use x="1433" y="2029" xlink:href="#tool-D12-pad-1007"/><use x="1533" y="2029" xlink:href="#tool-D12-pad-1007"/><use x="1633" y="2029" xlink:href="#tool-D12-pad-1007"/><use x="1733" y="2029" xlink:href="#tool-D12-pad-1007"/><use x="1833" y="2029" xlink:href="#tool-D12-pad-1007"/><use x="1933" y="2029" xlink:href="#tool-D12-pad-1007"/><use x="2033" y="2029" xlink:href="#tool-D12-pad-1007"/><use x="2133" y="2029" xlink:href="#tool-D12-pad-1007"/><use x="2233" y="2029" xlink:href="#tool-D12-pad-1007"/><use x="2233" y="2129" xlink:href="#tool-D12-pad-1007"/><use x="2133" y="2129" xlink:href="#tool-D12-pad-1007"/><use x="2033" y="2129" xlink:href="#tool-D12-pad-1007"/><use x="1933" y="2129" xlink:href="#tool-D12-pad-1007"/><use x="1833" y="2129" xlink:href="#tool-D12-pad-1007"/><use x="1733" y="2129" xlink:href="#tool-D12-pad-1007"/><use x="1633" y="2129" xlink:href="#tool-D12-pad-1007"/><use x="1533" y="2129" xlink:href="#tool-D12-pad-1007"/><use x="1433" y="2129" xlink:href="#tool-D12-pad-1007"/><use x="1333" y="2129" xlink:href="#tool-D12-pad-1007"/><use x="1233" y="2129" xlink:href="#tool-D12-pad-1007"/><use x="1133" y="2129" xlink:href="#tool-D12-pad-1007"/><use x="1033" y="2129" xlink:href="#tool-D12-pad-1007"/><use x="933" y="2129" xlink:href="#tool-D12-pad-1007"/><use x="833" y="2129" xlink:href="#tool-D12-pad-1007"/><use x="733" y="2129" xlink:href="#tool-D12-pad-1007"/><use x="633" y="2129" xlink:href="#tool-D12-pad-1007"/><use x="533" y="2129" xlink:href="#tool-D12-pad-1007"/><use x="433" y="2129" xlink:href="#tool-D12-pad-1007"/><use x="333" y="2129" xlink:href="#tool-D12-pad-1007"/><use x="733" y="1830" xlink:href="#tool-D13-pad-1008"/><use x="333" y="1830" xlink:href="#tool-D13-pad-1008"/><use x="2028" y="1141" xlink:href="#tool-D13-pad-1008"/><use x="2028" y="841" xlink:href="#tool-D13-pad-1008"/><use x="1928" y="1141" xlink:href="#tool-D13-pad-1008"/><use x="1928" y="841" xlink:href="#tool-D13-pad-1008"/><use x="1828" y="1141" xlink:href="#tool-D13-pad-1008"/><use x="1828" y="841" xlink:href="#tool-D13-pad-1008"/><use x="1728" y="1141" xlink:href="#tool-D13-pad-1008"/><use x="1728" y="841" xlink:href="#tool-D13-pad-1008"/><use x="1628" y="1141" xlink:href="#tool-D13-pad-1008"/><use x="1628" y="841" xlink:href="#tool-D13-pad-1008"/><use x="1528" y="1141" xlink:href="#tool-D13-pad-1008"/><use x="1528" y="841" xlink:href="#tool-D13-pad-1008"/><use x="1428" y="1141" xlink:href="#tool-D13-pad-1008"/><use x="1428" y="841" xlink:href="#tool-D13-pad-1008"/><use x="1328" y="1141" xlink:href="#tool-D13-pad-1008"/><use x="1328" y="841" xlink:href="#tool-D13-pad-1008"/><use x="1228" y="1141" xlink:href="#tool-D13-pad-1008"/><use x="1228" y="841" xlink:href="#tool-D13-pad-1008"/><use x="3127" y="1052" xlink:href="#tool-D14-pad-1009"/><use x="3126" y="827" xlink:href="#tool-D14-pad-1009"/><use x="3128" y="1502" xlink:href="#tool-D14-pad-1009"/><use x="3128" y="1277" xlink:href="#tool-D14-pad-1009"/><use x="3128" y="1951" xlink:href="#tool-D14-pad-1009"/><use x="3128" y="1726" xlink:href="#tool-D14-pad-1009"/><use x="438" y="196" xlink:href="#tool-D14-pad-1009"/><use x="663" y="196" xlink:href="#tool-D14-pad-1009"/><use x="2013" y="196" xlink:href="#tool-D14-pad-1009"/><use x="1563" y="196" xlink:href="#tool-D14-pad-1009"/><use x="1788" y="196" xlink:href="#tool-D14-pad-1009"/><use x="888" y="196" xlink:href="#tool-D14-pad-1009"/><use x="1338" y="196" xlink:href="#tool-D14-pad-1009"/><use x="1113" y="196" xlink:href="#tool-D14-pad-1009"/><use x="2238" y="196" xlink:href="#tool-D14-pad-1009"/><use x="2028" y="1141" xlink:href="#tool-D15-pad-1010"/><path stroke-width="24" fill="none" d="M 2841 727 L 2841 461 M 2841 49 L 2841 320 M 2236 49 L 2841 49 M 333 1859 L 333 1999 M 449 841 L 449 1057 M 439 201 L 449 841 M 663 57 L 438 57 M 438 57 L 438 164 M 663 164 L 663 57 M 886 57 L 887 164 M 663 57 L 886 57 M 886 57 L 1112 57 M 1112 57 L 1112 164 M 1338 57 L 1338 164 M 1112 57 L 1338 57 M 1563 57 L 1563 164 M 1338 57 L 1563 57 M 1786 57 L 1787 164 M 1563 57 L 1786 57 M 2012 57 L 2012 164 M 1786 57 L 2012 57 M 2012 57 L 2236 49 M 2236 49 L 2237 164 M 2768 1956 L 3096 1951 M 2768 1822 L 2767 1626 M 2767 1626 L 3096 1626 M 2768 1956 L 2768 1822 M 2767 1277 L 3096 1277 M 2767 1626 L 2767 1277 M 2767 952 L 3096 952 M 2767 1277 L 2767 952 M 3157 728 L 3257 731 M 3262 1052 L 3262 1402 M 3257 731 L 3262 1052 M 3262 1402 L 3159 1402 M 3262 1726 L 3159 1726 M 3262 1402 L 3262 1726 M 944 701 L 563 319 M 1326 700 L 944 701 M 563 319 L 563 227 M 1327 812 L 1326 700 M 1127 659 L 787 319 M 1426 661 L 1127 659 M 788 319 L 788 227 M 1427 812 L 1426 661 M 1319 619 L 1526 619 M 1526 619 L 1527 812 M 1012 325 L 1319 619 M 1012 227 L 1012 325 M 1508 581 L 1626 581 M 1238 319 L 1508 581 M 1626 581 L 1627 812 M 1238 227 L 1238 319 M 1457 311 L 1725 580 M 1725 580 L 1727 812 M 1461 227 L 1457 311 M 1828 451 L 1688 311 M 1688 311 L 1688 227 M 1828 812 L 1828 451 M 1926 331 L 1927 812 M 1907 311 L 1926 331 M 1911 227 L 1907 311 M 2028 450 L 2028 812 M 2138 311 L 2028 450 M 2138 227 L 2138 311 M 263 1242 L 263 2129 M 449 1057 L 263 1242 M 2841 727 L 3095 727 M 3262 1052 L 3158 1052 M 633 1931 L 713 1850 M 633 1999 L 633 1931 M 2768 1822 L 761 1830 M 263 2129 L 303 2129 M 449 841 L 1199 841"/></g><mask id="pcb_bottom_mech-mask" fill="#fff" stroke="#fff" fill-rule="evenodd"><path stroke-width="0" d="M 112 2207 L 111 2206 L 110 2206 L 109 2206 L 108 2206 L 107 2206 L 106 2206 L 105 2206 L 104 2206 L 103 2205 L 102 2205 L 101 2205 L 100 2205 L 99 2205 L 98 2204 L 97 2204 L 96 2204 L 95 2204 L 94 2204 L 93 2203 L 92 2203 L 91 2203 L 90 2203 L 89 2202 L 88 2202 L 87 2202 L 86 2201 L 85 2201 L 84 2201 L 83 2200 L 82 2200 L 81 2200 L 80 2199 L 79 2199 L 78 2198 L 77 2198 L 76 2198 L 75 2197 L 74 2197 L 73 2196 L 72 2196 L 71 2195 L 70 2195 L 69 2194 L 68 2194 L 67 2193 L 66 2193 L 65 2192 L 64 2192 L 63 2191 L 62 2190 L 61 2190 L 60 2189 L 59 2189 L 58 2188 L 57 2187 L 56 2187 L 55 2186 L 54 2185 L 53 2185 L 52 2184 L 51 2183 L 50 2182 L 49 2181 L 48 2181 L 47 2180 L 46 2179 L 45 2178 L 44 2177 L 43 2176 L 42 2176 L 41 2175 L 40 2174 L 39 2173 L 38 2172 L 37 2171 L 36 2170 L 36 2169 L 35 2168 L 34 2167 L 33 2166 L 32 2165 L 31 2164 L 30 2163 L 30 2162 L 29 2161 L 28 2160 L 27 2159 L 27 2158 L 26 2157 L 25 2156 L 24 2155 L 24 2154 L 23 2153 L 23 2152 L 22 2151 L 21 2150 L 21 2149 L 20 2148 L 20 2147 L 19 2146 L 18 2145 L 18 2144 L 17 2143 L 17 2142 L 16 2141 L 16 2140 L 15 2139 L 15 2137 L 14 2136 L 14 2135 L 13 2134 L 13 2133 L 12 2132 L 12 2130 L 11 2129 L 11 2127 L 10 2126 L 10 2124 L 9 2123 L 9 2120 L 8 2119 L 8 2116 L 7 2115 L 7 2112 L 6 2111 L 6 2105 L 5 2104 L 5 2091 L 4 2090 L 4 121 L 5 120 L 5 107 L 6 106 L 6 101 L 7 100 L 7 96 L 8 95 L 8 92 L 9 91 L 9 88 L 10 87 L 10 85 L 11 84 L 11 82 L 12 81 L 12 80 L 13 79 L 13 77 L 14 76 L 14 75 L 15 74 L 15 73 L 16 72 L 16 71 L 17 70 L 17 69 L 18 68 L 18 67 L 19 66 L 19 65 L 20 64 L 20 63 L 21 62 L 21 61 L 22 60 L 23 59 L 23 58 L 24 57 L 25 56 L 25 55 L 26 54 L 27 53 L 28 52 L 28 51 L 29 50 L 30 49 L 31 48 L 31 47 L 32 46 L 33 45 L 34 44 L 35 43 L 36 42 L 37 41 L 38 40 L 39 39 L 40 38 L 41 37 L 42 36 L 43 35 L 44 34 L 45 33 L 46 32 L 47 31 L 48 31 L 49 30 L 50 29 L 51 28 L 52 27 L 53 27 L 54 26 L 55 25 L 56 25 L 57 24 L 58 23 L 59 23 L 60 22 L 61 21 L 62 21 L 63 20 L 64 20 L 65 19 L 66 19 L 67 18 L 68 18 L 69 17 L 70 16 L 71 16 L 72 16 L 73 15 L 74 15 L 75 14 L 76 14 L 77 13 L 78 13 L 79 13 L 80 12 L 81 12 L 82 11 L 83 11 L 84 11 L 85 10 L 86 10 L 87 10 L 88 9 L 89 9 L 90 9 L 91 9 L 92 8 L 93 8 L 94 8 L 95 7 L 96 7 L 97 7 L 98 7 L 99 7 L 100 6 L 101 6 L 102 6 L 103 6 L 104 6 L 105 6 L 106 5 L 107 5 L 108 5 L 109 5 L 110 5 L 111 5 L 112 5 L 113 5 L 114 5 L 115 5 L 116 4 L 117 4 L 118 4 L 119 4 L 120 4 L 121 4 L 122 4 L 123 4 L 124 4 L 125 4 L 126 4 L 127 4 L 128 4 L 129 4 L 130 4 L 131 4 L 132 4 L 133 4 L 134 4 L 135 4 L 136 4 L 137 4 L 138 4 L 139 4 L 140 4 L 141 4 L 142 4 L 143 4 L 144 4 L 145 4 L 146 4 L 147 4 L 148 4 L 149 4 L 150 4 L 151 4 L 152 4 L 153 4 L 154 4 L 155 4 L 156 4 L 157 4 L 158 4 L 159 4 L 160 4 L 161 4 L 162 4 L 163 4 L 164 4 L 165 4 L 166 4 L 167 4 L 168 4 L 169 4 L 170 4 L 171 4 L 172 4 L 173 4 L 174 4 L 175 4 L 176 4 L 177 4 L 178 4 L 179 4 L 180 4 L 181 4 L 182 4 L 183 4 L 184 4 L 185 4 L 186 4 L 187 4 L 188 4 L 189 4 L 190 4 L 191 4 L 192 4 L 193 4 L 194 4 L 195 4 L 196 4 L 197 4 L 198 4 L 199 4 L 200 4 L 201 4 L 202 4 L 203 4 L 204 4 L 205 4 L 206 4 L 207 4 L 208 4 L 209 4 L 210 4 L 211 4 L 212 4 L 213 4 L 214 4 L 215 4 L 216 4 L 217 4 L 218 4 L 219 4 L 220 4 L 221 4 L 222 4 L 223 4 L 224 4 L 225 4 L 226 4 L 227 4 L 228 4 L 229 4 L 230 4 L 231 4 L 232 4 L 233 4 L 234 4 L 235 4 L 236 4 L 237 4 L 238 4 L 239 4 L 240 4 L 241 4 L 242 4 L 243 4 L 244 4 L 245 4 L 246 4 L 247 4 L 248 4 L 249 4 L 250 4 L 251 4 L 252 4 L 253 4 L 254 4 L 255 4 L 256 4 L 257 4 L 258 4 L 259 4 L 260 4 L 261 4 L 262 4 L 263 4 L 264 4 L 265 4 L 266 4 L 267 4 L 268 4 L 269 4 L 270 4 L 271 4 L 272 4 L 273 4 L 274 4 L 275 4 L 276 4 L 277 4 L 278 4 L 279 4 L 280 4 L 281 4 L 282 4 L 283 4 L 284 4 L 285 4 L 286 4 L 287 4 L 288 4 L 289 4 L 290 4 L 291 4 L 292 4 L 293 4 L 294 4 L 295 4 L 296 4 L 297 4 L 298 4 L 299 4 L 300 4 L 301 4 L 302 4 L 303 4 L 304 4 L 305 4 L 306 4 L 307 4 L 308 4 L 309 4 L 310 4 L 311 4 L 312 4 L 313 4 L 314 4 L 315 4 L 316 4 L 317 4 L 318 4 L 319 4 L 320 4 L 321 4 L 322 4 L 323 4 L 324 4 L 325 4 L 326 4 L 327 4 L 328 4 L 329 4 L 330 4 L 331 4 L 332 4 L 333 4 L 334 4 L 335 4 L 336 4 L 337 4 L 338 4 L 339 4 L 340 4 L 341 4 L 342 4 L 343 4 L 344 4 L 345 4 L 346 4 L 347 4 L 348 4 L 349 4 L 350 4 L 351 4 L 352 4 L 353 4 L 354 4 L 355 4 L 356 4 L 357 4 L 358 4 L 359 4 L 360 4 L 361 4 L 362 4 L 363 4 L 364 4 L 365 4 L 366 4 L 367 4 L 368 4 L 369 4 L 370 4 L 371 4 L 372 4 L 373 4 L 374 4 L 375 4 L 376 4 L 377 4 L 378 4 L 379 4 L 380 4 L 381 4 L 382 4 L 383 4 L 384 4 L 385 4 L 386 4 L 387 4 L 388 4 L 389 4 L 390 4 L 391 4 L 392 4 L 393 4 L 394 4 L 395 4 L 396 4 L 397 4 L 398 4 L 399 4 L 400 4 L 401 4 L 402 4 L 403 4 L 404 4 L 405 4 L 406 4 L 407 4 L 408 4 L 409 4 L 410 4 L 411 4 L 412 4 L 413 4 L 414 4 L 415 4 L 416 4 L 417 4 L 418 4 L 419 4 L 420 4 L 421 4 L 422 4 L 423 4 L 424 4 L 425 4 L 426 4 L 427 4 L 428 4 L 429 4 L 430 4 L 431 4 L 432 4 L 433 4 L 434 4 L 435 4 L 436 4 L 437 4 L 438 4 L 439 4 L 440 4 L 441 4 L 442 4 L 443 4 L 444 4 L 445 4 L 446 4 L 447 4 L 448 4 L 449 4 L 450 4 L 451 4 L 452 4 L 453 4 L 454 4 L 455 4 L 456 4 L 457 4 L 458 4 L 459 4 L 460 4 L 461 4 L 462 4 L 463 4 L 464 4 L 465 4 L 466 4 L 467 4 L 468 4 L 469 4 L 470 4 L 471 4 L 472 4 L 473 4 L 474 4 L 475 4 L 476 4 L 477 4 L 478 4 L 479 4 L 480 4 L 481 4 L 482 4 L 483 4 L 484 4 L 485 4 L 486 4 L 487 4 L 488 4 L 489 4 L 490 4 L 491 4 L 492 4 L 493 4 L 494 4 L 495 4 L 496 4 L 497 4 L 498 4 L 499 4 L 500 4 L 501 4 L 502 4 L 503 4 L 504 4 L 505 4 L 506 4 L 507 4 L 508 4 L 509 4 L 510 4 L 511 4 L 512 4 L 513 4 L 514 4 L 515 4 L 516 4 L 517 4 L 518 4 L 519 4 L 520 4 L 521 4 L 522 4 L 523 4 L 524 4 L 525 4 L 526 4 L 527 4 L 528 4 L 529 4 L 530 4 L 531 4 L 532 4 L 533 4 L 534 4 L 535 4 L 536 4 L 537 4 L 538 4 L 539 4 L 540 4 L 541 4 L 542 4 L 543 4 L 544 4 L 545 4 L 546 4 L 547 4 L 548 4 L 549 4 L 550 4 L 551 4 L 552 4 L 553 4 L 554 4 L 555 4 L 556 4 L 557 4 L 558 4 L 559 4 L 560 4 L 561 4 L 562 4 L 563 4 L 564 4 L 565 4 L 566 4 L 567 4 L 568 4 L 569 4 L 570 4 L 571 4 L 572 4 L 573 4 L 574 4 L 575 4 L 576 4 L 577 4 L 578 4 L 579 4 L 580 4 L 581 4 L 582 4 L 583 4 L 584 4 L 585 4 L 586 4 L 587 4 L 588 4 L 589 4 L 590 4 L 591 4 L 592 4 L 593 4 L 594 4 L 595 4 L 596 4 L 597 4 L 598 4 L 599 4 L 600 4 L 601 4 L 602 4 L 603 4 L 604 4 L 605 4 L 606 4 L 607 4 L 608 4 L 609 4 L 610 4 L 611 4 L 612 4 L 613 4 L 614 4 L 615 4 L 616 4 L 617 4 L 618 4 L 619 4 L 620 4 L 621 4 L 622 4 L 623 4 L 624 4 L 625 4 L 626 4 L 627 4 L 628 4 L 629 4 L 630 4 L 631 4 L 632 4 L 633 4 L 634 4 L 635 4 L 636 4 L 637 4 L 638 4 L 639 4 L 640 4 L 641 4 L 642 4 L 643 4 L 644 4 L 645 4 L 646 4 L 647 4 L 648 4 L 649 4 L 650 4 L 651 4 L 652 4 L 653 4 L 654 4 L 655 4 L 656 4 L 657 4 L 658 4 L 659 4 L 660 4 L 661 4 L 662 4 L 663 4 L 664 4 L 665 4 L 666 4 L 667 4 L 668 4 L 669 4 L 670 4 L 671 4 L 672 4 L 673 4 L 674 4 L 675 4 L 676 4 L 677 4 L 678 4 L 679 4 L 680 4 L 681 4 L 682 4 L 683 4 L 684 4 L 685 4 L 686 4 L 687 4 L 688 4 L 689 4 L 690 4 L 691 4 L 692 4 L 693 4 L 694 4 L 695 4 L 696 4 L 697 4 L 698 4 L 699 4 L 700 4 L 701 4 L 702 4 L 703 4 L 704 4 L 705 4 L 706 4 L 707 4 L 708 4 L 709 4 L 710 4 L 711 4 L 712 4 L 713 4 L 714 4 L 715 4 L 716 4 L 717 4 L 718 4 L 719 4 L 720 4 L 721 4 L 722 4 L 723 4 L 724 4 L 725 4 L 726 4 L 727 4 L 728 4 L 729 4 L 730 4 L 731 4 L 732 4 L 733 4 L 734 4 L 735 4 L 736 4 L 737 4 L 738 4 L 739 4 L 740 4 L 741 4 L 742 4 L 743 4 L 744 4 L 745 4 L 746 4 L 747 4 L 748 4 L 749 4 L 750 4 L 751 4 L 752 4 L 753 4 L 754 4 L 755 4 L 756 4 L 757 4 L 758 4 L 759 4 L 760 4 L 761 4 L 762 4 L 763 4 L 764 4 L 765 4 L 766 4 L 767 4 L 768 4 L 769 4 L 770 4 L 771 4 L 772 4 L 773 4 L 774 4 L 775 4 L 776 4 L 777 4 L 778 4 L 779 4 L 780 4 L 781 4 L 782 4 L 783 4 L 784 4 L 785 4 L 786 4 L 787 4 L 788 4 L 789 4 L 790 4 L 791 4 L 792 4 L 793 4 L 794 4 L 795 4 L 796 4 L 797 4 L 798 4 L 799 4 L 800 4 L 801 4 L 802 4 L 803 4 L 804 4 L 805 4 L 806 4 L 807 4 L 808 4 L 809 4 L 810 4 L 811 4 L 812 4 L 813 4 L 814 4 L 815 4 L 816 4 L 817 4 L 818 4 L 819 4 L 820 4 L 821 4 L 822 4 L 823 4 L 824 4 L 825 4 L 826 4 L 827 4 L 828 4 L 829 4 L 830 4 L 831 4 L 832 4 L 833 4 L 834 4 L 835 4 L 836 4 L 837 4 L 838 4 L 839 4 L 840 4 L 841 4 L 842 4 L 843 4 L 844 4 L 845 4 L 846 4 L 847 4 L 848 4 L 849 4 L 850 4 L 851 4 L 852 4 L 853 4 L 854 4 L 855 4 L 856 4 L 857 4 L 858 4 L 859 4 L 860 4 L 861 4 L 862 4 L 863 4 L 864 4 L 865 4 L 866 4 L 867 4 L 868 4 L 869 4 L 870 4 L 871 4 L 872 4 L 873 4 L 874 4 L 875 4 L 876 4 L 877 4 L 878 4 L 879 4 L 880 4 L 881 4 L 882 4 L 883 4 L 884 4 L 885 4 L 886 4 L 887 4 L 888 4 L 889 4 L 890 4 L 891 4 L 892 4 L 893 4 L 894 4 L 895 4 L 896 4 L 897 4 L 898 4 L 899 4 L 900 4 L 901 4 L 902 4 L 903 4 L 904 4 L 905 4 L 906 4 L 907 4 L 908 4 L 909 4 L 910 4 L 911 4 L 912 4 L 913 4 L 914 4 L 915 4 L 916 4 L 917 4 L 918 4 L 919 4 L 920 4 L 921 4 L 922 4 L 923 4 L 924 4 L 925 4 L 926 4 L 927 4 L 928 4 L 929 4 L 930 4 L 931 4 L 932 4 L 933 4 L 934 4 L 935 4 L 936 4 L 937 4 L 938 4 L 939 4 L 940 4 L 941 4 L 942 4 L 943 4 L 944 4 L 945 4 L 946 4 L 947 4 L 948 4 L 949 4 L 950 4 L 951 4 L 952 4 L 953 4 L 954 4 L 955 4 L 956 4 L 957 4 L 958 4 L 959 4 L 960 4 L 961 4 L 962 4 L 963 4 L 964 4 L 965 4 L 966 4 L 967 4 L 968 4 L 969 4 L 970 4 L 971 4 L 972 4 L 973 4 L 974 4 L 975 4 L 976 4 L 977 4 L 978 4 L 979 4 L 980 4 L 981 4 L 982 4 L 983 4 L 984 4 L 985 4 L 986 4 L 987 4 L 988 4 L 989 4 L 990 4 L 991 4 L 992 4 L 993 4 L 994 4 L 995 4 L 996 4 L 997 4 L 998 4 L 999 4 L 1000 4 L 1001 4 L 1002 4 L 1003 4 L 1004 4 L 1005 4 L 1006 4 L 1007 4 L 1008 4 L 1009 4 L 1010 4 L 1011 4 L 1012 4 L 1013 4 L 1014 4 L 1015 4 L 1016 4 L 1017 4 L 1018 4 L 1019 4 L 1020 4 L 1021 4 L 1022 4 L 1023 4 L 1024 4 L 1025 4 L 1026 4 L 1027 4 L 1028 4 L 1029 4 L 1030 4 L 1031 4 L 1032 4 L 1033 4 L 1034 4 L 1035 4 L 1036 4 L 1037 4 L 1038 4 L 1039 4 L 1040 4 L 1041 4 L 1042 4 L 1043 4 L 1044 4 L 1045 4 L 1046 4 L 1047 4 L 1048 4 L 1049 4 L 1050 4 L 1051 4 L 1052 4 L 1053 4 L 1054 4 L 1055 4 L 1056 4 L 1057 4 L 1058 4 L 1059 4 L 1060 4 L 1061 4 L 1062 4 L 1063 4 L 1064 4 L 1065 4 L 1066 4 L 1067 4 L 1068 4 L 1069 4 L 1070 4 L 1071 4 L 1072 4 L 1073 4 L 1074 4 L 1075 4 L 1076 4 L 1077 4 L 1078 4 L 1079 4 L 1080 4 L 1081 4 L 1082 4 L 1083 4 L 1084 4 L 1085 4 L 1086 4 L 1087 4 L 1088 4 L 1089 4 L 1090 4 L 1091 4 L 1092 4 L 1093 4 L 1094 4 L 1095 4 L 1096 4 L 1097 4 L 1098 4 L 1099 4 L 1100 4 L 1101 4 L 1102 4 L 1103 4 L 1104 4 L 1105 4 L 1106 4 L 1107 4 L 1108 4 L 1109 4 L 1110 4 L 1111 4 L 1112 4 L 1113 4 L 1114 4 L 1115 4 L 1116 4 L 1117 4 L 1118 4 L 1119 4 L 1120 4 L 1121 4 L 1122 4 L 1123 4 L 1124 4 L 1125 4 L 1126 4 L 1127 4 L 1128 4 L 1129 4 L 1130 4 L 1131 4 L 1132 4 L 1133 4 L 1134 4 L 1135 4 L 1136 4 L 1137 4 L 1138 4 L 1139 4 L 1140 4 L 1141 4 L 1142 4 L 1143 4 L 1144 4 L 1145 4 L 1146 4 L 1147 4 L 1148 4 L 1149 4 L 1150 4 L 1151 4 L 1152 4 L 1153 4 L 1154 4 L 1155 4 L 1156 4 L 1157 4 L 1158 4 L 1159 4 L 1160 4 L 1161 4 L 1162 4 L 1163 4 L 1164 4 L 1165 4 L 1166 4 L 1167 4 L 1168 4 L 1169 4 L 1170 4 L 1171 4 L 1172 4 L 1173 4 L 1174 4 L 1175 4 L 1176 4 L 1177 4 L 1178 4 L 1179 4 L 1180 4 L 1181 4 L 1182 4 L 1183 4 L 1184 4 L 1185 4 L 1186 4 L 1187 4 L 1188 4 L 1189 4 L 1190 4 L 1191 4 L 1192 4 L 1193 4 L 1194 4 L 1195 4 L 1196 4 L 1197 4 L 1198 4 L 1199 4 L 1200 4 L 1201 4 L 1202 4 L 1203 4 L 1204 4 L 1205 4 L 1206 4 L 1207 4 L 1208 4 L 1209 4 L 1210 4 L 1211 4 L 1212 4 L 1213 4 L 1214 4 L 1215 4 L 1216 4 L 1217 4 L 1218 4 L 1219 4 L 1220 4 L 1221 4 L 1222 4 L 1223 4 L 1224 4 L 1225 4 L 1226 4 L 1227 4 L 1228 4 L 1229 4 L 1230 4 L 1231 4 L 1232 4 L 1233 4 L 1234 4 L 1235 4 L 1236 4 L 1237 4 L 1238 4 L 1239 4 L 1240 4 L 1241 4 L 1242 4 L 1243 4 L 1244 4 L 1245 4 L 1246 4 L 1247 4 L 1248 4 L 1249 4 L 1250 4 L 1251 4 L 1252 4 L 1253 4 L 1254 4 L 1255 4 L 1256 4 L 1257 4 L 1258 4 L 1259 4 L 1260 4 L 1261 4 L 1262 4 L 1263 4 L 1264 4 L 1265 4 L 1266 4 L 1267 4 L 1268 4 L 1269 4 L 1270 4 L 1271 4 L 1272 4 L 1273 4 L 1274 4 L 1275 4 L 1276 4 L 1277 4 L 1278 4 L 1279 4 L 1280 4 L 1281 4 L 1282 4 L 1283 4 L 1284 4 L 1285 4 L 1286 4 L 1287 4 L 1288 4 L 1289 4 L 1290 4 L 1291 4 L 1292 4 L 1293 4 L 1294 4 L 1295 4 L 1296 4 L 1297 4 L 1298 4 L 1299 4 L 1300 4 L 1301 4 L 1302 4 L 1303 4 L 1304 4 L 1305 4 L 1306 4 L 1307 4 L 1308 4 L 1309 4 L 1310 4 L 1311 4 L 1312 4 L 1313 4 L 1314 4 L 1315 4 L 1316 4 L 1317 4 L 1318 4 L 1319 4 L 1320 4 L 1321 4 L 1322 4 L 1323 4 L 1324 4 L 1325 4 L 1326 4 L 1327 4 L 1328 4 L 1329 4 L 1330 4 L 1331 4 L 1332 4 L 1333 4 L 1334 4 L 1335 4 L 1336 4 L 1337 4 L 1338 4 L 1339 4 L 1340 4 L 1341 4 L 1342 4 L 1343 4 L 1344 4 L 1345 4 L 1346 4 L 1347 4 L 1348 4 L 1349 4 L 1350 4 L 1351 4 L 1352 4 L 1353 4 L 1354 4 L 1355 4 L 1356 4 L 1357 4 L 1358 4 L 1359 4 L 1360 4 L 1361 4 L 1362 4 L 1363 4 L 1364 4 L 1365 4 L 1366 4 L 1367 4 L 1368 4 L 1369 4 L 1370 4 L 1371 4 L 1372 4 L 1373 4 L 1374 4 L 1375 4 L 1376 4 L 1377 4 L 1378 4 L 1379 4 L 1380 4 L 1381 4 L 1382 4 L 1383 4 L 1384 4 L 1385 4 L 1386 4 L 1387 4 L 1388 4 L 1389 4 L 1390 4 L 1391 4 L 1392 4 L 1393 4 L 1394 4 L 1395 4 L 1396 4 L 1397 4 L 1398 4 L 1399 4 L 1400 4 L 1401 4 L 1402 4 L 1403 4 L 1404 4 L 1405 4 L 1406 4 L 1407 4 L 1408 4 L 1409 4 L 1410 4 L 1411 4 L 1412 4 L 1413 4 L 1414 4 L 1415 4 L 1416 4 L 1417 4 L 1418 4 L 1419 4 L 1420 4 L 1421 4 L 1422 4 L 1423 4 L 1424 4 L 1425 4 L 1426 4 L 1427 4 L 1428 4 L 1429 4 L 1430 4 L 1431 4 L 1432 4 L 1433 4 L 1434 4 L 1435 4 L 1436 4 L 1437 4 L 1438 4 L 1439 4 L 1440 4 L 1441 4 L 1442 4 L 1443 4 L 1444 4 L 1445 4 L 1446 4 L 1447 4 L 1448 4 L 1449 4 L 1450 4 L 1451 4 L 1452 4 L 1453 4 L 1454 4 L 1455 4 L 1456 4 L 1457 4 L 1458 4 L 1459 4 L 1460 4 L 1461 4 L 1462 4 L 1463 4 L 1464 4 L 1465 4 L 1466 4 L 1467 4 L 1468 4 L 1469 4 L 1470 4 L 1471 4 L 1472 4 L 1473 4 L 1474 4 L 1475 4 L 1476 4 L 1477 4 L 1478 4 L 1479 4 L 1480 4 L 1481 4 L 1482 4 L 1483 4 L 1484 4 L 1485 4 L 1486 4 L 1487 4 L 1488 4 L 1489 4 L 1490 4 L 1491 4 L 1492 4 L 1493 4 L 1494 4 L 1495 4 L 1496 4 L 1497 4 L 1498 4 L 1499 4 L 1500 4 L 1501 4 L 1502 4 L 1503 4 L 1504 4 L 1505 4 L 1506 4 L 1507 4 L 1508 4 L 1509 4 L 1510 4 L 1511 4 L 1512 4 L 1513 4 L 1514 4 L 1515 4 L 1516 4 L 1517 4 L 1518 4 L 1519 4 L 1520 4 L 1521 4 L 1522 4 L 1523 4 L 1524 4 L 1525 4 L 1526 4 L 1527 4 L 1528 4 L 1529 4 L 1530 4 L 1531 4 L 1532 4 L 1533 4 L 1534 4 L 1535 4 L 1536 4 L 1537 4 L 1538 4 L 1539 4 L 1540 4 L 1541 4 L 1542 4 L 1543 4 L 1544 4 L 1545 4 L 1546 4 L 1547 4 L 1548 4 L 1549 4 L 1550 4 L 1551 4 L 1552 4 L 1553 4 L 1554 4 L 1555 4 L 1556 4 L 1557 4 L 1558 4 L 1559 4 L 1560 4 L 1561 4 L 1562 4 L 1563 4 L 1564 4 L 1565 4 L 1566 4 L 1567 4 L 1568 4 L 1569 4 L 1570 4 L 1571 4 L 1572 4 L 1573 4 L 1574 4 L 1575 4 L 1576 4 L 1577 4 L 1578 4 L 1579 4 L 1580 4 L 1581 4 L 1582 4 L 1583 4 L 1584 4 L 1585 4 L 1586 4 L 1587 4 L 1588 4 L 1589 4 L 1590 4 L 1591 4 L 1592 4 L 1593 4 L 1594 4 L 1595 4 L 1596 4 L 1597 4 L 1598 4 L 1599 4 L 1600 4 L 1601 4 L 1602 4 L 1603 4 L 1604 4 L 1605 4 L 1606 4 L 1607 4 L 1608 4 L 1609 4 L 1610 4 L 1611 4 L 1612 4 L 1613 4 L 1614 4 L 1615 4 L 1616 4 L 1617 4 L 1618 4 L 1619 4 L 1620 4 L 1621 4 L 1622 4 L 1623 4 L 1624 4 L 1625 4 L 1626 4 L 1627 4 L 1628 4 L 1629 4 L 1630 4 L 1631 4 L 1632 4 L 1633 4 L 1634 4 L 1635 4 L 1636 4 L 1637 4 L 1638 4 L 1639 4 L 1640 4 L 1641 4 L 1642 4 L 1643 4 L 1644 4 L 1645 4 L 1646 4 L 1647 4 L 1648 4 L 1649 4 L 1650 4 L 1651 4 L 1652 4 L 1653 4 L 1654 4 L 1655 4 L 1656 4 L 1657 4 L 1658 4 L 1659 4 L 1660 4 L 1661 4 L 1662 4 L 1663 4 L 1664 4 L 1665 4 L 1666 4 L 1667 4 L 1668 4 L 1669 4 L 1670 4 L 1671 4 L 1672 4 L 1673 4 L 1674 4 L 1675 4 L 1676 4 L 1677 4 L 1678 4 L 1679 4 L 1680 4 L 1681 4 L 1682 4 L 1683 4 L 1684 4 L 1685 4 L 1686 4 L 1687 4 L 1688 4 L 1689 4 L 1690 4 L 1691 4 L 1692 4 L 1693 4 L 1694 4 L 1695 4 L 1696 4 L 1697 4 L 1698 4 L 1699 4 L 1700 4 L 1701 4 L 1702 4 L 1703 4 L 1704 4 L 1705 4 L 1706 4 L 1707 4 L 1708 4 L 1709 4 L 1710 4 L 1711 4 L 1712 4 L 1713 4 L 1714 4 L 1715 4 L 1716 4 L 1717 4 L 1718 4 L 1719 4 L 1720 4 L 1721 4 L 1722 4 L 1723 4 L 1724 4 L 1725 4 L 1726 4 L 1727 4 L 1728 4 L 1729 4 L 1730 4 L 1731 4 L 1732 4 L 1733 4 L 1734 4 L 1735 4 L 1736 4 L 1737 4 L 1738 4 L 1739 4 L 1740 4 L 1741 4 L 1742 4 L 1743 4 L 1744 4 L 1745 4 L 1746 4 L 1747 4 L 1748 4 L 1749 4 L 1750 4 L 1751 4 L 1752 4 L 1753 4 L 1754 4 L 1755 4 L 1756 4 L 1757 4 L 1758 4 L 1759 4 L 1760 4 L 1761 4 L 1762 4 L 1763 4 L 1764 4 L 1765 4 L 1766 4 L 1767 4 L 1768 4 L 1769 4 L 1770 4 L 1771 4 L 1772 4 L 1773 4 L 1774 4 L 1775 4 L 1776 4 L 1777 4 L 1778 4 L 1779 4 L 1780 4 L 1781 4 L 1782 4 L 1783 4 L 1784 4 L 1785 4 L 1786 4 L 1787 4 L 1788 4 L 1789 4 L 1790 4 L 1791 4 L 1792 4 L 1793 4 L 1794 4 L 1795 4 L 1796 4 L 1797 4 L 1798 4 L 1799 4 L 1800 4 L 1801 4 L 1802 4 L 1803 4 L 1804 4 L 1805 4 L 1806 4 L 1807 4 L 1808 4 L 1809 4 L 1810 4 L 1811 4 L 1812 4 L 1813 4 L 1814 4 L 1815 4 L 1816 4 L 1817 4 L 1818 4 L 1819 4 L 1820 4 L 1821 4 L 1822 4 L 1823 4 L 1824 4 L 1825 4 L 1826 4 L 1827 4 L 1828 4 L 1829 4 L 1830 4 L 1831 4 L 1832 4 L 1833 4 L 1834 4 L 1835 4 L 1836 4 L 1837 4 L 1838 4 L 1839 4 L 1840 4 L 1841 4 L 1842 4 L 1843 4 L 1844 4 L 1845 4 L 1846 4 L 1847 4 L 1848 4 L 1849 4 L 1850 4 L 1851 4 L 1852 4 L 1853 4 L 1854 4 L 1855 4 L 1856 4 L 1857 4 L 1858 4 L 1859 4 L 1860 4 L 1861 4 L 1862 4 L 1863 4 L 1864 4 L 1865 4 L 1866 4 L 1867 4 L 1868 4 L 1869 4 L 1870 4 L 1871 4 L 1872 4 L 1873 4 L 1874 4 L 1875 4 L 1876 4 L 1877 4 L 1878 4 L 1879 4 L 1880 4 L 1881 4 L 1882 4 L 1883 4 L 1884 4 L 1885 4 L 1886 4 L 1887 4 L 1888 4 L 1889 4 L 1890 4 L 1891 4 L 1892 4 L 1893 4 L 1894 4 L 1895 4 L 1896 4 L 1897 4 L 1898 4 L 1899 4 L 1900 4 L 1901 4 L 1902 4 L 1903 4 L 1904 4 L 1905 4 L 1906 4 L 1907 4 L 1908 4 L 1909 4 L 1910 4 L 1911 4 L 1912 4 L 1913 4 L 1914 4 L 1915 4 L 1916 4 L 1917 4 L 1918 4 L 1919 4 L 1920 4 L 1921 4 L 1922 4 L 1923 4 L 1924 4 L 1925 4 L 1926 4 L 1927 4 L 1928 4 L 1929 4 L 1930 4 L 1931 4 L 1932 4 L 1933 4 L 1934 4 L 1935 4 L 1936 4 L 1937 4 L 1938 4 L 1939 4 L 1940 4 L 1941 4 L 1942 4 L 1943 4 L 1944 4 L 1945 4 L 1946 4 L 1947 4 L 1948 4 L 1949 4 L 1950 4 L 1951 4 L 1952 4 L 1953 4 L 1954 4 L 1955 4 L 1956 4 L 1957 4 L 1958 4 L 1959 4 L 1960 4 L 1961 4 L 1962 4 L 1963 4 L 1964 4 L 1965 4 L 1966 4 L 1967 4 L 1968 4 L 1969 4 L 1970 4 L 1971 4 L 1972 4 L 1973 4 L 1974 4 L 1975 4 L 1976 4 L 1977 4 L 1978 4 L 1979 4 L 1980 4 L 1981 4 L 1982 4 L 1983 4 L 1984 4 L 1985 4 L 1986 4 L 1987 4 L 1988 4 L 1989 4 L 1990 4 L 1991 4 L 1992 4 L 1993 4 L 1994 4 L 1995 4 L 1996 4 L 1997 4 L 1998 4 L 1999 4 L 2000 4 L 2001 4 L 2002 4 L 2003 4 L 2004 4 L 2005 4 L 2006 4 L 2007 4 L 2008 4 L 2009 4 L 2010 4 L 2011 4 L 2012 4 L 2013 4 L 2014 4 L 2015 4 L 2016 4 L 2017 4 L 2018 4 L 2019 4 L 2020 4 L 2021 4 L 2022 4 L 2023 4 L 2024 4 L 2025 4 L 2026 4 L 2027 4 L 2028 4 L 2029 4 L 2030 4 L 2031 4 L 2032 4 L 2033 4 L 2034 4 L 2035 4 L 2036 4 L 2037 4 L 2038 4 L 2039 4 L 2040 4 L 2041 4 L 2042 4 L 2043 4 L 2044 4 L 2045 4 L 2046 4 L 2047 4 L 2048 4 L 2049 4 L 2050 4 L 2051 4 L 2052 4 L 2053 4 L 2054 4 L 2055 4 L 2056 4 L 2057 4 L 2058 4 L 2059 4 L 2060 4 L 2061 4 L 2062 4 L 2063 4 L 2064 4 L 2065 4 L 2066 4 L 2067 4 L 2068 4 L 2069 4 L 2070 4 L 2071 4 L 2072 4 L 2073 4 L 2074 4 L 2075 4 L 2076 4 L 2077 4 L 2078 4 L 2079 4 L 2080 4 L 2081 4 L 2082 4 L 2083 4 L 2084 4 L 2085 4 L 2086 4 L 2087 4 L 2088 4 L 2089 4 L 2090 4 L 2091 4 L 2092 4 L 2093 4 L 2094 4 L 2095 4 L 2096 4 L 2097 4 L 2098 4 L 2099 4 L 2100 4 L 2101 4 L 2102 4 L 2103 4 L 2104 4 L 2105 4 L 2106 4 L 2107 4 L 2108 4 L 2109 4 L 2110 4 L 2111 4 L 2112 4 L 2113 4 L 2114 4 L 2115 4 L 2116 4 L 2117 4 L 2118 4 L 2119 4 L 2120 4 L 2121 4 L 2122 4 L 2123 4 L 2124 4 L 2125 4 L 2126 4 L 2127 4 L 2128 4 L 2129 4 L 2130 4 L 2131 4 L 2132 4 L 2133 4 L 2134 4 L 2135 4 L 2136 4 L 2137 4 L 2138 4 L 2139 4 L 2140 4 L 2141 4 L 2142 4 L 2143 4 L 2144 4 L 2145 4 L 2146 4 L 2147 4 L 2148 4 L 2149 4 L 2150 4 L 2151 4 L 2152 4 L 2153 4 L 2154 4 L 2155 4 L 2156 4 L 2157 4 L 2158 4 L 2159 4 L 2160 4 L 2161 4 L 2162 4 L 2163 4 L 2164 4 L 2165 4 L 2166 4 L 2167 4 L 2168 4 L 2169 4 L 2170 4 L 2171 4 L 2172 4 L 2173 4 L 2174 4 L 2175 4 L 2176 4 L 2177 4 L 2178 4 L 2179 4 L 2180 4 L 2181 4 L 2182 4 L 2183 4 L 2184 4 L 2185 4 L 2186 4 L 2187 4 L 2188 4 L 2189 4 L 2190 4 L 2191 4 L 2192 4 L 2193 4 L 2194 4 L 2195 4 L 2196 4 L 2197 4 L 2198 4 L 2199 4 L 2200 4 L 2201 4 L 2202 4 L 2203 4 L 2204 4 L 2205 4 L 2206 4 L 2207 4 L 2208 4 L 2209 4 L 2210 4 L 2211 4 L 2212 4 L 2213 4 L 2214 4 L 2215 4 L 2216 4 L 2217 4 L 2218 4 L 2219 4 L 2220 4 L 2221 4 L 2222 4 L 2223 4 L 2224 4 L 2225 4 L 2226 4 L 2227 4 L 2228 4 L 2229 4 L 2230 4 L 2231 4 L 2232 4 L 2233 4 L 2234 4 L 2235 4 L 2236 4 L 2237 4 L 2238 4 L 2239 4 L 2240 4 L 2241 4 L 2242 4 L 2243 4 L 2244 4 L 2245 4 L 2246 4 L 2247 4 L 2248 4 L 2249 4 L 2250 4 L 2251 4 L 2252 4 L 2253 4 L 2254 4 L 2255 4 L 2256 4 L 2257 4 L 2258 4 L 2259 4 L 2260 4 L 2261 4 L 2262 4 L 2263 4 L 2264 4 L 2265 4 L 2266 4 L 2267 4 L 2268 4 L 2269 4 L 2270 4 L 2271 4 L 2272 4 L 2273 4 L 2274 4 L 2275 4 L 2276 4 L 2277 4 L 2278 4 L 2279 4 L 2280 4 L 2281 4 L 2282 4 L 2283 4 L 2284 4 L 2285 4 L 2286 4 L 2287 4 L 2288 4 L 2289 4 L 2290 4 L 2291 4 L 2292 4 L 2293 4 L 2294 4 L 2295 4 L 2296 4 L 2297 4 L 2298 4 L 2299 4 L 2300 4 L 2301 4 L 2302 4 L 2303 4 L 2304 4 L 2305 4 L 2306 4 L 2307 4 L 2308 4 L 2309 4 L 2310 4 L 2311 4 L 2312 4 L 2313 4 L 2314 4 L 2315 4 L 2316 4 L 2317 4 L 2318 4 L 2319 4 L 2320 4 L 2321 4 L 2322 4 L 2323 4 L 2324 4 L 2325 4 L 2326 4 L 2327 4 L 2328 4 L 2329 4 L 2330 4 L 2331 4 L 2332 4 L 2333 4 L 2334 4 L 2335 4 L 2336 4 L 2337 4 L 2338 4 L 2339 4 L 2340 4 L 2341 4 L 2342 4 L 2343 4 L 2344 4 L 2345 4 L 2346 4 L 2347 4 L 2348 4 L 2349 4 L 2350 4 L 2351 4 L 2352 4 L 2353 4 L 2354 4 L 2355 4 L 2356 4 L 2357 4 L 2358 4 L 2359 4 L 2360 4 L 2361 4 L 2362 4 L 2363 4 L 2364 4 L 2365 4 L 2366 4 L 2367 4 L 2368 4 L 2369 4 L 2370 4 L 2371 4 L 2372 4 L 2373 4 L 2374 4 L 2375 4 L 2376 4 L 2377 4 L 2378 4 L 2379 4 L 2380 4 L 2381 4 L 2382 4 L 2383 4 L 2384 4 L 2385 4 L 2386 4 L 2387 4 L 2388 4 L 2389 4 L 2390 4 L 2391 4 L 2392 4 L 2393 4 L 2394 4 L 2395 4 L 2396 4 L 2397 4 L 2398 4 L 2399 4 L 2400 4 L 2401 4 L 2402 4 L 2403 4 L 2404 4 L 2405 4 L 2406 4 L 2407 4 L 2408 4 L 2409 4 L 2410 4 L 2411 4 L 2412 4 L 2413 4 L 2414 4 L 2415 4 L 2416 4 L 2417 4 L 2418 4 L 2419 4 L 2420 4 L 2421 4 L 2422 4 L 2423 4 L 2424 4 L 2425 4 L 2426 4 L 2427 4 L 2428 4 L 2429 4 L 2430 4 L 2431 4 L 2432 4 L 2433 4 L 2434 4 L 2435 4 L 2436 4 L 2437 4 L 2438 4 L 2439 4 L 2440 4 L 2441 4 L 2442 4 L 2443 4 L 2444 4 L 2445 4 L 2446 4 L 2447 4 L 2448 4 L 2449 4 L 2450 4 L 2451 4 L 2452 4 L 2453 4 L 2454 4 L 2455 4 L 2456 4 L 2457 4 L 2458 4 L 2459 4 L 2460 4 L 2461 4 L 2462 4 L 2463 4 L 2464 4 L 2465 4 L 2466 4 L 2467 4 L 2468 4 L 2469 4 L 2470 4 L 2471 4 L 2472 4 L 2473 4 L 2474 4 L 2475 4 L 2476 4 L 2477 4 L 2478 4 L 2479 4 L 2480 4 L 2481 4 L 2482 4 L 2483 4 L 2484 4 L 2485 4 L 2486 4 L 2487 4 L 2488 4 L 2489 4 L 2490 4 L 2491 4 L 2492 4 L 2493 4 L 2494 4 L 2495 4 L 2496 4 L 2497 4 L 2498 4 L 2499 4 L 2500 4 L 2501 4 L 2502 4 L 2503 4 L 2504 4 L 2505 4 L 2506 4 L 2507 4 L 2508 4 L 2509 4 L 2510 4 L 2511 4 L 2512 4 L 2513 4 L 2514 4 L 2515 4 L 2516 4 L 2517 4 L 2518 4 L 2519 4 L 2520 4 L 2521 4 L 2522 4 L 2523 4 L 2524 4 L 2525 4 L 2526 4 L 2527 4 L 2528 4 L 2529 4 L 2530 4 L 2531 4 L 2532 4 L 2533 4 L 2534 4 L 2535 4 L 2536 4 L 2537 4 L 2538 4 L 2539 4 L 2540 4 L 2541 4 L 2542 4 L 2543 4 L 2544 4 L 2545 4 L 2546 4 L 2547 4 L 2548 4 L 2549 4 L 2550 4 L 2551 4 L 2552 4 L 2553 4 L 2554 4 L 2555 4 L 2556 4 L 2557 4 L 2558 4 L 2559 4 L 2560 4 L 2561 4 L 2562 4 L 2563 4 L 2564 4 L 2565 4 L 2566 4 L 2567 4 L 2568 4 L 2569 4 L 2570 4 L 2571 4 L 2572 4 L 2573 4 L 2574 4 L 2575 4 L 2576 4 L 2577 4 L 2578 4 L 2579 4 L 2580 4 L 2581 4 L 2582 4 L 2583 4 L 2584 4 L 2585 4 L 2586 4 L 2587 4 L 2588 4 L 2589 4 L 2590 4 L 2591 4 L 2592 4 L 2593 4 L 2594 4 L 2595 4 L 2596 4 L 2597 4 L 2598 4 L 2599 4 L 2600 4 L 2601 4 L 2602 4 L 2603 4 L 2604 4 L 2605 4 L 2606 4 L 2607 4 L 2608 4 L 2609 4 L 2610 4 L 2611 4 L 2612 4 L 2613 4 L 2614 4 L 2615 4 L 2616 4 L 2617 4 L 2618 4 L 2619 4 L 2620 4 L 2621 4 L 2622 4 L 2623 4 L 2624 4 L 2625 4 L 2626 4 L 2627 4 L 2628 4 L 2629 4 L 2630 4 L 2631 4 L 2632 4 L 2633 4 L 2634 4 L 2635 4 L 2636 4 L 2637 4 L 2638 4 L 2639 4 L 2640 4 L 2641 4 L 2642 4 L 2643 4 L 2644 4 L 2645 4 L 2646 4 L 2647 4 L 2648 4 L 2649 4 L 2650 4 L 2651 4 L 2652 4 L 2653 4 L 2654 4 L 2655 4 L 2656 4 L 2657 4 L 2658 4 L 2659 4 L 2660 4 L 2661 4 L 2662 4 L 2663 4 L 2664 4 L 2665 4 L 2666 4 L 2667 4 L 2668 4 L 2669 4 L 2670 4 L 2671 4 L 2672 4 L 2673 4 L 2674 4 L 2675 4 L 2676 4 L 2677 4 L 2678 4 L 2679 4 L 2680 4 L 2681 4 L 2682 4 L 2683 4 L 2684 4 L 2685 4 L 2686 4 L 2687 4 L 2688 4 L 2689 4 L 2690 4 L 2691 4 L 2692 4 L 2693 4 L 2694 4 L 2695 4 L 2696 4 L 2697 4 L 2698 4 L 2699 4 L 2700 4 L 2701 4 L 2702 4 L 2703 4 L 2704 4 L 2705 4 L 2706 4 L 2707 4 L 2708 4 L 2709 4 L 2710 4 L 2711 4 L 2712 4 L 2713 4 L 2714 4 L 2715 4 L 2716 4 L 2717 4 L 2718 4 L 2719 4 L 2720 4 L 2721 4 L 2722 4 L 2723 4 L 2724 4 L 2725 4 L 2726 4 L 2727 4 L 2728 4 L 2729 4 L 2730 4 L 2731 4 L 2732 4 L 2733 4 L 2734 4 L 2735 4 L 2736 4 L 2737 4 L 2738 4 L 2739 4 L 2740 4 L 2741 4 L 2742 4 L 2743 4 L 2744 4 L 2745 4 L 2746 4 L 2747 4 L 2748 4 L 2749 4 L 2750 4 L 2751 4 L 2752 4 L 2753 4 L 2754 4 L 2755 4 L 2756 4 L 2757 4 L 2758 4 L 2759 4 L 2760 4 L 2761 4 L 2762 4 L 2763 4 L 2764 4 L 2765 4 L 2766 4 L 2767 4 L 2768 4 L 2769 4 L 2770 4 L 2771 4 L 2772 4 L 2773 4 L 2774 4 L 2775 4 L 2776 4 L 2777 4 L 2778 4 L 2779 4 L 2780 4 L 2781 4 L 2782 4 L 2783 4 L 2784 4 L 2785 4 L 2786 4 L 2787 4 L 2788 4 L 2789 4 L 2790 4 L 2791 4 L 2792 4 L 2793 4 L 2794 4 L 2795 4 L 2796 4 L 2797 4 L 2798 4 L 2799 4 L 2800 4 L 2801 4 L 2802 4 L 2803 4 L 2804 4 L 2805 4 L 2806 4 L 2807 4 L 2808 4 L 2809 4 L 2810 4 L 2811 4 L 2812 4 L 2813 4 L 2814 4 L 2815 4 L 2816 4 L 2817 4 L 2818 4 L 2819 4 L 2820 4 L 2821 4 L 2822 4 L 2823 4 L 2824 4 L 2825 4 L 2826 4 L 2827 4 L 2828 4 L 2829 4 L 2830 4 L 2831 4 L 2832 4 L 2833 4 L 2834 4 L 2835 4 L 2836 4 L 2837 4 L 2838 4 L 2839 4 L 2840 4 L 2841 4 L 2842 4 L 2843 4 L 2844 4 L 2845 4 L 2846 4 L 2847 4 L 2848 4 L 2849 4 L 2850 4 L 2851 4 L 2852 4 L 2853 4 L 2854 4 L 2855 4 L 2856 4 L 2857 4 L 2858 4 L 2859 4 L 2860 4 L 2861 4 L 2862 4 L 2863 4 L 2864 4 L 2865 4 L 2866 4 L 2867 4 L 2868 4 L 2869 4 L 2870 4 L 2871 4 L 2872 4 L 2873 4 L 2874 4 L 2875 4 L 2876 4 L 2877 4 L 2878 4 L 2879 4 L 2880 4 L 2881 4 L 2882 4 L 2883 4 L 2884 4 L 2885 4 L 2886 4 L 2887 4 L 2888 4 L 2889 4 L 2890 4 L 2891 4 L 2892 4 L 2893 4 L 2894 4 L 2895 4 L 2896 4 L 2897 4 L 2898 4 L 2899 4 L 2900 4 L 2901 4 L 2902 4 L 2903 4 L 2904 4 L 2905 4 L 2906 4 L 2907 4 L 2908 4 L 2909 4 L 2910 4 L 2911 4 L 2912 4 L 2913 4 L 2914 4 L 2915 4 L 2916 4 L 2917 4 L 2918 4 L 2919 4 L 2920 4 L 2921 4 L 2922 4 L 2923 4 L 2924 4 L 2925 4 L 2926 4 L 2927 4 L 2928 4 L 2929 4 L 2930 4 L 2931 4 L 2932 4 L 2933 4 L 2934 4 L 2935 4 L 2936 4 L 2937 4 L 2938 4 L 2939 4 L 2940 4 L 2941 4 L 2942 4 L 2943 4 L 2944 4 L 2945 4 L 2946 4 L 2947 4 L 2948 4 L 2949 4 L 2950 4 L 2951 4 L 2952 4 L 2953 4 L 2954 4 L 2955 4 L 2956 4 L 2957 4 L 2958 4 L 2959 4 L 2960 4 L 2961 4 L 2962 4 L 2963 4 L 2964 4 L 2965 4 L 2966 4 L 2967 4 L 2968 4 L 2969 4 L 2970 4 L 2971 4 L 2972 4 L 2973 4 L 2974 4 L 2975 4 L 2976 4 L 2977 4 L 2978 4 L 2979 4 L 2980 4 L 2981 4 L 2982 4 L 2983 4 L 2984 4 L 2985 4 L 2986 4 L 2987 4 L 2988 4 L 2989 4 L 2990 4 L 2991 4 L 2992 4 L 2993 4 L 2994 4 L 2995 4 L 2996 4 L 2997 4 L 2998 4 L 2999 4 L 3000 4 L 3001 4 L 3002 4 L 3003 4 L 3004 4 L 3005 4 L 3006 4 L 3007 4 L 3008 4 L 3009 4 L 3010 4 L 3011 4 L 3012 4 L 3013 4 L 3014 4 L 3015 4 L 3016 4 L 3017 4 L 3018 4 L 3019 4 L 3020 4 L 3021 4 L 3022 4 L 3023 4 L 3024 4 L 3025 4 L 3026 4 L 3027 4 L 3028 4 L 3029 4 L 3030 4 L 3031 4 L 3032 4 L 3033 4 L 3034 4 L 3035 4 L 3036 4 L 3037 4 L 3038 4 L 3039 4 L 3040 4 L 3041 4 L 3042 4 L 3043 4 L 3044 4 L 3045 4 L 3046 4 L 3047 4 L 3048 4 L 3049 4 L 3050 4 L 3051 4 L 3052 4 L 3053 4 L 3054 4 L 3055 4 L 3056 4 L 3057 4 L 3058 4 L 3059 4 L 3060 4 L 3061 4 L 3062 4 L 3063 4 L 3064 4 L 3065 4 L 3066 4 L 3067 4 L 3068 4 L 3069 4 L 3070 4 L 3071 4 L 3072 4 L 3073 4 L 3074 4 L 3075 4 L 3076 4 L 3077 4 L 3078 4 L 3079 4 L 3080 4 L 3081 4 L 3082 4 L 3083 4 L 3084 4 L 3085 4 L 3086 4 L 3087 4 L 3088 4 L 3089 4 L 3090 4 L 3091 4 L 3092 4 L 3093 4 L 3094 4 L 3095 4 L 3096 4 L 3097 4 L 3098 4 L 3099 4 L 3100 4 L 3101 4 L 3102 4 L 3103 4 L 3104 4 L 3105 4 L 3106 4 L 3107 4 L 3108 4 L 3109 4 L 3110 4 L 3111 4 L 3112 4 L 3113 4 L 3114 4 L 3115 4 L 3116 4 L 3117 4 L 3118 4 L 3119 4 L 3120 4 L 3121 4 L 3122 4 L 3123 4 L 3124 4 L 3125 4 L 3126 4 L 3127 4 L 3128 4 L 3129 4 L 3130 4 L 3131 4 L 3132 4 L 3133 4 L 3134 4 L 3135 4 L 3136 4 L 3137 4 L 3138 4 L 3139 4 L 3140 4 L 3141 4 L 3142 4 L 3143 4 L 3144 4 L 3145 4 L 3146 4 L 3147 4 L 3148 4 L 3149 4 L 3150 4 L 3151 4 L 3152 4 L 3153 4 L 3154 4 L 3155 4 L 3156 4 L 3157 4 L 3158 4 L 3159 4 L 3160 4 L 3161 4 L 3162 4 L 3163 4 L 3164 4 L 3165 4 L 3166 4 L 3167 4 L 3168 4 L 3169 4 L 3170 4 L 3171 4 L 3172 4 L 3173 4 L 3174 4 L 3175 4 L 3176 4 L 3177 4 L 3178 4 L 3179 4 L 3180 4 L 3181 4 L 3182 4 L 3183 4 L 3184 4 L 3185 4 L 3186 4 L 3187 4 L 3188 4 L 3189 4 L 3190 4 L 3191 4 L 3192 4 L 3193 4 L 3194 4 L 3195 4 L 3196 4 L 3197 4 L 3198 4 L 3199 4 L 3200 4 L 3201 4 L 3202 4 L 3203 4 L 3204 4 L 3205 4 L 3206 4 L 3207 4 L 3208 4 L 3209 4 L 3210 4 L 3211 4 L 3212 4 L 3213 4 L 3214 4 L 3215 4 L 3216 4 L 3217 4 L 3218 4 L 3219 4 L 3220 4 L 3221 4 L 3222 4 L 3223 4 L 3224 4 L 3225 4 L 3226 4 L 3227 4 L 3228 4 L 3229 4 L 3230 4 L 3231 4 L 3232 4 L 3233 4 L 3234 4 L 3235 4 L 3236 4 L 3237 4 L 3238 4 L 3239 5 L 3240 5 L 3241 5 L 3242 5 L 3243 5 L 3244 5 L 3245 5 L 3246 5 L 3247 5 L 3248 5 L 3249 6 L 3250 6 L 3251 6 L 3252 6 L 3253 6 L 3254 6 L 3255 7 L 3256 7 L 3257 7 L 3258 7 L 3259 7 L 3260 8 L 3261 8 L 3262 8 L 3263 8 L 3264 9 L 3265 9 L 3266 9 L 3267 10 L 3268 10 L 3269 10 L 3270 11 L 3271 11 L 3272 11 L 3273 12 L 3274 12 L 3275 12 L 3276 13 L 3277 13 L 3278 14 L 3279 14 L 3280 15 L 3281 15 L 3282 15 L 3283 16 L 3284 16 L 3285 17 L 3286 17 L 3287 18 L 3288 18 L 3289 19 L 3290 20 L 3291 20 L 3292 21 L 3293 21 L 3294 22 L 3295 23 L 3296 23 L 3297 24 L 3298 24 L 3299 25 L 3300 26 L 3301 27 L 3302 27 L 3303 28 L 3304 29 L 3305 30 L 3306 30 L 3307 31 L 3308 32 L 3309 33 L 3310 34 L 3311 35 L 3312 36 L 3313 37 L 3314 37 L 3315 38 L 3316 39 L 3317 40 L 3317 41 L 3318 42 L 3319 43 L 3320 44 L 3321 45 L 3322 46 L 3323 47 L 3324 48 L 3324 49 L 3325 50 L 3326 51 L 3327 52 L 3327 53 L 3328 54 L 3329 55 L 3330 56 L 3330 57 L 3331 58 L 3331 59 L 3332 60 L 3333 61 L 3333 62 L 3334 63 L 3334 64 L 3335 65 L 3336 66 L 3336 67 L 3337 68 L 3337 69 L 3338 70 L 3338 71 L 3339 72 L 3339 73 L 3340 74 L 3340 76 L 3341 77 L 3341 78 L 3342 79 L 3342 81 L 3343 82 L 3343 84 L 3344 85 L 3344 87 L 3345 88 L 3345 90 L 3346 91 L 3346 94 L 3347 95 L 3347 99 L 3348 100 L 3348 104 L 3349 105 L 3349 114 L 3350 115 L 3350 2096 L 3349 2097 L 3349 2106 L 3348 2107 L 3348 2112 L 3347 2113 L 3347 2116 L 3346 2117 L 3346 2120 L 3345 2121 L 3345 2124 L 3344 2125 L 3344 2127 L 3343 2128 L 3343 2130 L 3342 2131 L 3342 2132 L 3341 2133 L 3341 2135 L 3340 2136 L 3340 2137 L 3339 2138 L 3339 2139 L 3338 2140 L 3338 2141 L 3337 2142 L 3337 2143 L 3336 2144 L 3336 2145 L 3335 2146 L 3335 2147 L 3334 2148 L 3333 2149 L 3333 2150 L 3332 2151 L 3332 2152 L 3331 2153 L 3330 2154 L 3330 2155 L 3329 2156 L 3328 2157 L 3328 2158 L 3327 2159 L 3326 2160 L 3325 2161 L 3325 2162 L 3324 2163 L 3323 2164 L 3322 2165 L 3321 2166 L 3320 2167 L 3320 2168 L 3319 2169 L 3318 2170 L 3317 2171 L 3316 2172 L 3315 2173 L 3314 2174 L 3313 2175 L 3312 2176 L 3311 2177 L 3310 2177 L 3309 2178 L 3308 2179 L 3307 2180 L 3306 2181 L 3305 2182 L 3304 2182 L 3303 2183 L 3302 2184 L 3301 2185 L 3300 2185 L 3299 2186 L 3298 2187 L 3297 2187 L 3296 2188 L 3295 2189 L 3294 2189 L 3293 2190 L 3292 2191 L 3291 2191 L 3290 2192 L 3289 2192 L 3288 2193 L 3287 2193 L 3286 2194 L 3285 2194 L 3284 2195 L 3283 2195 L 3282 2196 L 3281 2196 L 3280 2197 L 3279 2197 L 3278 2198 L 3277 2198 L 3276 2198 L 3275 2199 L 3274 2199 L 3273 2200 L 3272 2200 L 3271 2200 L 3270 2201 L 3269 2201 L 3268 2201 L 3267 2202 L 3266 2202 L 3265 2202 L 3264 2203 L 3263 2203 L 3262 2203 L 3261 2203 L 3260 2204 L 3259 2204 L 3258 2204 L 3257 2204 L 3256 2205 L 3255 2205 L 3254 2205 L 3253 2205 L 3252 2205 L 3251 2205 L 3250 2206 L 3249 2206 L 3248 2206 L 3247 2206 L 3246 2206 L 3245 2206 L 3244 2206 L 3243 2206 L 3242 2207 L 3241 2207 L 3240 2207 L 3239 2207 L 3238 2207 L 3237 2207 L 3236 2207 L 3235 2207 L 3234 2207 L 3233 2207 L 3232 2207 L 3231 2207 L 3230 2207 L 3229 2207 L 3228 2207 L 3227 2207 L 3226 2207 L 3225 2207 L 3224 2207 L 3223 2207 L 3222 2207 L 3221 2207 L 3220 2207 L 3219 2207 L 3218 2207 L 3217 2207 L 3216 2207 L 3215 2207 L 3214 2207 L 3213 2207 L 3212 2207 L 3211 2207 L 3210 2207 L 3209 2207 L 3208 2207 L 3207 2207 L 3206 2207 L 3205 2207 L 3204 2207 L 3203 2207 L 3202 2207 L 3201 2207 L 3200 2207 L 3199 2207 L 3198 2207 L 3197 2207 L 3196 2207 L 3195 2207 L 3194 2207 L 3193 2207 L 3192 2207 L 3191 2207 L 3190 2207 L 3189 2207 L 3188 2207 L 3187 2207 L 3186 2207 L 3185 2207 L 3184 2207 L 3183 2207 L 3182 2207 L 3181 2207 L 3180 2207 L 3179 2207 L 3178 2207 L 3177 2207 L 3176 2207 L 3175 2207 L 3174 2207 L 3173 2207 L 3172 2207 L 3171 2207 L 3170 2207 L 3169 2207 L 3168 2207 L 3167 2207 L 3166 2207 L 3165 2207 L 3164 2207 L 3163 2207 L 3162 2207 L 3161 2207 L 3160 2207 L 3159 2207 L 3158 2207 L 3157 2207 L 3156 2207 L 3155 2207 L 3154 2207 L 3153 2207 L 3152 2207 L 3151 2207 L 3150 2207 L 3149 2207 L 3148 2207 L 3147 2207 L 3146 2207 L 3145 2207 L 3144 2207 L 3143 2207 L 3142 2207 L 3141 2207 L 3140 2207 L 3139 2207 L 3138 2207 L 3137 2207 L 3136 2207 L 3135 2207 L 3134 2207 L 3133 2207 L 3132 2207 L 3131 2207 L 3130 2207 L 3129 2207 L 3128 2207 L 3127 2207 L 3126 2207 L 3125 2207 L 3124 2207 L 3123 2207 L 3122 2207 L 3121 2207 L 3120 2207 L 3119 2207 L 3118 2207 L 3117 2207 L 3116 2207 L 3115 2207 L 3114 2207 L 3113 2207 L 3112 2207 L 3111 2207 L 3110 2207 L 3109 2207 L 3108 2207 L 3107 2207 L 3106 2207 L 3105 2207 L 3104 2207 L 3103 2207 L 3102 2207 L 3101 2207 L 3100 2207 L 3099 2207 L 3098 2207 L 3097 2207 L 3096 2207 L 3095 2207 L 3094 2207 L 3093 2207 L 3092 2207 L 3091 2207 L 3090 2207 L 3089 2207 L 3088 2207 L 3087 2207 L 3086 2207 L 3085 2207 L 3084 2207 L 3083 2207 L 3082 2207 L 3081 2207 L 3080 2207 L 3079 2207 L 3078 2207 L 3077 2207 L 3076 2207 L 3075 2207 L 3074 2207 L 3073 2207 L 3072 2207 L 3071 2207 L 3070 2207 L 3069 2207 L 3068 2207 L 3067 2207 L 3066 2207 L 3065 2207 L 3064 2207 L 3063 2207 L 3062 2207 L 3061 2207 L 3060 2207 L 3059 2207 L 3058 2207 L 3057 2207 L 3056 2207 L 3055 2207 L 3054 2207 L 3053 2207 L 3052 2207 L 3051 2207 L 3050 2207 L 3049 2207 L 3048 2207 L 3047 2207 L 3046 2207 L 3045 2207 L 3044 2207 L 3043 2207 L 3042 2207 L 3041 2207 L 3040 2207 L 3039 2207 L 3038 2207 L 3037 2207 L 3036 2207 L 3035 2207 L 3034 2207 L 3033 2207 L 3032 2207 L 3031 2207 L 3030 2207 L 3029 2207 L 3028 2207 L 3027 2207 L 3026 2207 L 3025 2207 L 3024 2207 L 3023 2207 L 3022 2207 L 3021 2207 L 3020 2207 L 3019 2207 L 3018 2207 L 3017 2207 L 3016 2207 L 3015 2207 L 3014 2207 L 3013 2207 L 3012 2207 L 3011 2207 L 3010 2207 L 3009 2207 L 3008 2207 L 3007 2207 L 3006 2207 L 3005 2207 L 3004 2207 L 3003 2207 L 3002 2207 L 3001 2207 L 3000 2207 L 2999 2207 L 2998 2207 L 2997 2207 L 2996 2207 L 2995 2207 L 2994 2207 L 2993 2207 L 2992 2207 L 2991 2207 L 2990 2207 L 2989 2207 L 2988 2207 L 2987 2207 L 2986 2207 L 2985 2207 L 2984 2207 L 2983 2207 L 2982 2207 L 2981 2207 L 2980 2207 L 2979 2207 L 2978 2207 L 2977 2207 L 2976 2207 L 2975 2207 L 2974 2207 L 2973 2207 L 2972 2207 L 2971 2207 L 2970 2207 L 2969 2207 L 2968 2207 L 2967 2207 L 2966 2207 L 2965 2207 L 2964 2207 L 2963 2207 L 2962 2207 L 2961 2207 L 2960 2207 L 2959 2207 L 2958 2207 L 2957 2207 L 2956 2207 L 2955 2207 L 2954 2207 L 2953 2207 L 2952 2207 L 2951 2207 L 2950 2207 L 2949 2207 L 2948 2207 L 2947 2207 L 2946 2207 L 2945 2207 L 2944 2207 L 2943 2207 L 2942 2207 L 2941 2207 L 2940 2207 L 2939 2207 L 2938 2207 L 2937 2207 L 2936 2207 L 2935 2207 L 2934 2207 L 2933 2207 L 2932 2207 L 2931 2207 L 2930 2207 L 2929 2207 L 2928 2207 L 2927 2207 L 2926 2207 L 2925 2207 L 2924 2207 L 2923 2207 L 2922 2207 L 2921 2207 L 2920 2207 L 2919 2207 L 2918 2207 L 2917 2207 L 2916 2207 L 2915 2207 L 2914 2207 L 2913 2207 L 2912 2207 L 2911 2207 L 2910 2207 L 2909 2207 L 2908 2207 L 2907 2207 L 2906 2207 L 2905 2207 L 2904 2207 L 2903 2207 L 2902 2207 L 2901 2207 L 2900 2207 L 2899 2207 L 2898 2207 L 2897 2207 L 2896 2207 L 2895 2207 L 2894 2207 L 2893 2207 L 2892 2207 L 2891 2207 L 2890 2207 L 2889 2207 L 2888 2207 L 2887 2207 L 2886 2207 L 2885 2207 L 2884 2207 L 2883 2207 L 2882 2207 L 2881 2207 L 2880 2207 L 2879 2207 L 2878 2207 L 2877 2207 L 2876 2207 L 2875 2207 L 2874 2207 L 2873 2207 L 2872 2207 L 2871 2207 L 2870 2207 L 2869 2207 L 2868 2207 L 2867 2207 L 2866 2207 L 2865 2207 L 2864 2207 L 2863 2207 L 2862 2207 L 2861 2207 L 2860 2207 L 2859 2207 L 2858 2207 L 2857 2207 L 2856 2207 L 2855 2207 L 2854 2207 L 2853 2207 L 2852 2207 L 2851 2207 L 2850 2207 L 2849 2207 L 2848 2207 L 2847 2207 L 2846 2207 L 2845 2207 L 2844 2207 L 2843 2207 L 2842 2207 L 2841 2207 L 2840 2207 L 2839 2207 L 2838 2207 L 2837 2207 L 2836 2207 L 2835 2207 L 2834 2207 L 2833 2207 L 2832 2207 L 2831 2207 L 2830 2207 L 2829 2207 L 2828 2207 L 2827 2207 L 2826 2207 L 2825 2207 L 2824 2207 L 2823 2207 L 2822 2207 L 2821 2207 L 2820 2207 L 2819 2207 L 2818 2207 L 2817 2207 L 2816 2207 L 2815 2207 L 2814 2207 L 2813 2207 L 2812 2207 L 2811 2207 L 2810 2207 L 2809 2207 L 2808 2207 L 2807 2207 L 2806 2207 L 2805 2207 L 2804 2207 L 2803 2207 L 2802 2207 L 2801 2207 L 2800 2207 L 2799 2207 L 2798 2207 L 2797 2207 L 2796 2207 L 2795 2207 L 2794 2207 L 2793 2207 L 2792 2207 L 2791 2207 L 2790 2207 L 2789 2207 L 2788 2207 L 2787 2207 L 2786 2207 L 2785 2207 L 2784 2207 L 2783 2207 L 2782 2207 L 2781 2207 L 2780 2207 L 2779 2207 L 2778 2207 L 2777 2207 L 2776 2207 L 2775 2207 L 2774 2207 L 2773 2207 L 2772 2207 L 2771 2207 L 2770 2207 L 2769 2207 L 2768 2207 L 2767 2207 L 2766 2207 L 2765 2207 L 2764 2207 L 2763 2207 L 2762 2207 L 2761 2207 L 2760 2207 L 2759 2207 L 2758 2207 L 2757 2207 L 2756 2207 L 2755 2207 L 2754 2207 L 2753 2207 L 2752 2207 L 2751 2207 L 2750 2207 L 2749 2207 L 2748 2207 L 2747 2207 L 2746 2207 L 2745 2207 L 2744 2207 L 2743 2207 L 2742 2207 L 2741 2207 L 2740 2207 L 2739 2207 L 2738 2207 L 2737 2207 L 2736 2207 L 2735 2207 L 2734 2207 L 2733 2207 L 2732 2207 L 2731 2207 L 2730 2207 L 2729 2207 L 2728 2207 L 2727 2207 L 2726 2207 L 2725 2207 L 2724 2207 L 2723 2207 L 2722 2207 L 2721 2207 L 2720 2207 L 2719 2207 L 2718 2207 L 2717 2207 L 2716 2207 L 2715 2207 L 2714 2207 L 2713 2207 L 2712 2207 L 2711 2207 L 2710 2207 L 2709 2207 L 2708 2207 L 2707 2207 L 2706 2207 L 2705 2207 L 2704 2207 L 2703 2207 L 2702 2207 L 2701 2207 L 2700 2207 L 2699 2207 L 2698 2207 L 2697 2207 L 2696 2207 L 2695 2207 L 2694 2207 L 2693 2207 L 2692 2207 L 2691 2207 L 2690 2207 L 2689 2207 L 2688 2207 L 2687 2207 L 2686 2207 L 2685 2207 L 2684 2207 L 2683 2207 L 2682 2207 L 2681 2207 L 2680 2207 L 2679 2207 L 2678 2207 L 2677 2207 L 2676 2207 L 2675 2207 L 2674 2207 L 2673 2207 L 2672 2207 L 2671 2207 L 2670 2207 L 2669 2207 L 2668 2207 L 2667 2207 L 2666 2207 L 2665 2207 L 2664 2207 L 2663 2207 L 2662 2207 L 2661 2207 L 2660 2207 L 2659 2207 L 2658 2207 L 2657 2207 L 2656 2207 L 2655 2207 L 2654 2207 L 2653 2207 L 2652 2207 L 2651 2207 L 2650 2207 L 2649 2207 L 2648 2207 L 2647 2207 L 2646 2207 L 2645 2207 L 2644 2207 L 2643 2207 L 2642 2207 L 2641 2207 L 2640 2207 L 2639 2207 L 2638 2207 L 2637 2207 L 2636 2207 L 2635 2207 L 2634 2207 L 2633 2207 L 2632 2207 L 2631 2207 L 2630 2207 L 2629 2207 L 2628 2207 L 2627 2207 L 2626 2207 L 2625 2207 L 2624 2207 L 2623 2207 L 2622 2207 L 2621 2207 L 2620 2207 L 2619 2207 L 2618 2207 L 2617 2207 L 2616 2207 L 2615 2207 L 2614 2207 L 2613 2207 L 2612 2207 L 2611 2207 L 2610 2207 L 2609 2207 L 2608 2207 L 2607 2207 L 2606 2207 L 2605 2207 L 2604 2207 L 2603 2207 L 2602 2207 L 2601 2207 L 2600 2207 L 2599 2207 L 2598 2207 L 2597 2207 L 2596 2207 L 2595 2207 L 2594 2207 L 2593 2207 L 2592 2207 L 2591 2207 L 2590 2207 L 2589 2207 L 2588 2207 L 2587 2207 L 2586 2207 L 2585 2207 L 2584 2207 L 2583 2207 L 2582 2207 L 2581 2207 L 2580 2207 L 2579 2207 L 2578 2207 L 2577 2207 L 2576 2207 L 2575 2207 L 2574 2207 L 2573 2207 L 2572 2207 L 2571 2207 L 2570 2207 L 2569 2207 L 2568 2207 L 2567 2207 L 2566 2207 L 2565 2207 L 2564 2207 L 2563 2207 L 2562 2207 L 2561 2207 L 2560 2207 L 2559 2207 L 2558 2207 L 2557 2207 L 2556 2207 L 2555 2207 L 2554 2207 L 2553 2207 L 2552 2207 L 2551 2207 L 2550 2207 L 2549 2207 L 2548 2207 L 2547 2207 L 2546 2207 L 2545 2207 L 2544 2207 L 2543 2207 L 2542 2207 L 2541 2207 L 2540 2207 L 2539 2207 L 2538 2207 L 2537 2207 L 2536 2207 L 2535 2207 L 2534 2207 L 2533 2207 L 2532 2207 L 2531 2207 L 2530 2207 L 2529 2207 L 2528 2207 L 2527 2207 L 2526 2207 L 2525 2207 L 2524 2207 L 2523 2207 L 2522 2207 L 2521 2207 L 2520 2207 L 2519 2207 L 2518 2207 L 2517 2207 L 2516 2207 L 2515 2207 L 2514 2207 L 2513 2207 L 2512 2207 L 2511 2207 L 2510 2207 L 2509 2207 L 2508 2207 L 2507 2207 L 2506 2207 L 2505 2207 L 2504 2207 L 2503 2207 L 2502 2207 L 2501 2207 L 2500 2207 L 2499 2207 L 2498 2207 L 2497 2207 L 2496 2207 L 2495 2207 L 2494 2207 L 2493 2207 L 2492 2207 L 2491 2207 L 2490 2207 L 2489 2207 L 2488 2207 L 2487 2207 L 2486 2207 L 2485 2207 L 2484 2207 L 2483 2207 L 2482 2207 L 2481 2207 L 2480 2207 L 2479 2207 L 2478 2207 L 2477 2207 L 2476 2207 L 2475 2207 L 2474 2207 L 2473 2207 L 2472 2207 L 2471 2207 L 2470 2207 L 2469 2207 L 2468 2207 L 2467 2207 L 2466 2207 L 2465 2207 L 2464 2207 L 2463 2207 L 2462 2207 L 2461 2207 L 2460 2207 L 2459 2207 L 2458 2207 L 2457 2207 L 2456 2207 L 2455 2207 L 2454 2207 L 2453 2207 L 2452 2207 L 2451 2207 L 2450 2207 L 2449 2207 L 2448 2207 L 2447 2207 L 2446 2207 L 2445 2207 L 2444 2207 L 2443 2207 L 2442 2207 L 2441 2207 L 2440 2207 L 2439 2207 L 2438 2207 L 2437 2207 L 2436 2207 L 2435 2207 L 2434 2207 L 2433 2207 L 2432 2207 L 2431 2207 L 2430 2207 L 2429 2207 L 2428 2207 L 2427 2207 L 2426 2207 L 2425 2207 L 2424 2207 L 2423 2207 L 2422 2207 L 2421 2207 L 2420 2207 L 2419 2207 L 2418 2207 L 2417 2207 L 2416 2207 L 2415 2207 L 2414 2207 L 2413 2207 L 2412 2207 L 2411 2207 L 2410 2207 L 2409 2207 L 2408 2207 L 2407 2207 L 2406 2207 L 2405 2207 L 2404 2207 L 2403 2207 L 2402 2207 L 2401 2207 L 2400 2207 L 2399 2207 L 2398 2207 L 2397 2207 L 2396 2207 L 2395 2207 L 2394 2207 L 2393 2207 L 2392 2207 L 2391 2207 L 2390 2207 L 2389 2207 L 2388 2207 L 2387 2207 L 2386 2207 L 2385 2207 L 2384 2207 L 2383 2207 L 2382 2207 L 2381 2207 L 2380 2207 L 2379 2207 L 2378 2207 L 2377 2207 L 2376 2207 L 2375 2207 L 2374 2207 L 2373 2207 L 2372 2207 L 2371 2207 L 2370 2207 L 2369 2207 L 2368 2207 L 2367 2207 L 2366 2207 L 2365 2207 L 2364 2207 L 2363 2207 L 2362 2207 L 2361 2207 L 2360 2207 L 2359 2207 L 2358 2207 L 2357 2207 L 2356 2207 L 2355 2207 L 2354 2207 L 2353 2207 L 2352 2207 L 2351 2207 L 2350 2207 L 2349 2207 L 2348 2207 L 2347 2207 L 2346 2207 L 2345 2207 L 2344 2207 L 2343 2207 L 2342 2207 L 2341 2207 L 2340 2207 L 2339 2207 L 2338 2207 L 2337 2207 L 2336 2207 L 2335 2207 L 2334 2207 L 2333 2207 L 2332 2207 L 2331 2207 L 2330 2207 L 2329 2207 L 2328 2207 L 2327 2207 L 2326 2207 L 2325 2207 L 2324 2207 L 2323 2207 L 2322 2207 L 2321 2207 L 2320 2207 L 2319 2207 L 2318 2207 L 2317 2207 L 2316 2207 L 2315 2207 L 2314 2207 L 2313 2207 L 2312 2207 L 2311 2207 L 2310 2207 L 2309 2207 L 2308 2207 L 2307 2207 L 2306 2207 L 2305 2207 L 2304 2207 L 2303 2207 L 2302 2207 L 2301 2207 L 2300 2207 L 2299 2207 L 2298 2207 L 2297 2207 L 2296 2207 L 2295 2207 L 2294 2207 L 2293 2207 L 2292 2207 L 2291 2207 L 2290 2207 L 2289 2207 L 2288 2207 L 2287 2207 L 2286 2207 L 2285 2207 L 2284 2207 L 2283 2207 L 2282 2207 L 2281 2207 L 2280 2207 L 2279 2207 L 2278 2207 L 2277 2207 L 2276 2207 L 2275 2207 L 2274 2207 L 2273 2207 L 2272 2207 L 2271 2207 L 2270 2207 L 2269 2207 L 2268 2207 L 2267 2207 L 2266 2207 L 2265 2207 L 2264 2207 L 2263 2207 L 2262 2207 L 2261 2207 L 2260 2207 L 2259 2207 L 2258 2207 L 2257 2207 L 2256 2207 L 2255 2207 L 2254 2207 L 2253 2207 L 2252 2207 L 2251 2207 L 2250 2207 L 2249 2207 L 2248 2207 L 2247 2207 L 2246 2207 L 2245 2207 L 2244 2207 L 2243 2207 L 2242 2207 L 2241 2207 L 2240 2207 L 2239 2207 L 2238 2207 L 2237 2207 L 2236 2207 L 2235 2207 L 2234 2207 L 2233 2207 L 2232 2207 L 2231 2207 L 2230 2207 L 2229 2207 L 2228 2207 L 2227 2207 L 2226 2207 L 2225 2207 L 2224 2207 L 2223 2207 L 2222 2207 L 2221 2207 L 2220 2207 L 2219 2207 L 2218 2207 L 2217 2207 L 2216 2207 L 2215 2207 L 2214 2207 L 2213 2207 L 2212 2207 L 2211 2207 L 2210 2207 L 2209 2207 L 2208 2207 L 2207 2207 L 2206 2207 L 2205 2207 L 2204 2207 L 2203 2207 L 2202 2207 L 2201 2207 L 2200 2207 L 2199 2207 L 2198 2207 L 2197 2207 L 2196 2207 L 2195 2207 L 2194 2207 L 2193 2207 L 2192 2207 L 2191 2207 L 2190 2207 L 2189 2207 L 2188 2207 L 2187 2207 L 2186 2207 L 2185 2207 L 2184 2207 L 2183 2207 L 2182 2207 L 2181 2207 L 2180 2207 L 2179 2207 L 2178 2207 L 2177 2207 L 2176 2207 L 2175 2207 L 2174 2207 L 2173 2207 L 2172 2207 L 2171 2207 L 2170 2207 L 2169 2207 L 2168 2207 L 2167 2207 L 2166 2207 L 2165 2207 L 2164 2207 L 2163 2207 L 2162 2207 L 2161 2207 L 2160 2207 L 2159 2207 L 2158 2207 L 2157 2207 L 2156 2207 L 2155 2207 L 2154 2207 L 2153 2207 L 2152 2207 L 2151 2207 L 2150 2207 L 2149 2207 L 2148 2207 L 2147 2207 L 2146 2207 L 2145 2207 L 2144 2207 L 2143 2207 L 2142 2207 L 2141 2207 L 2140 2207 L 2139 2207 L 2138 2207 L 2137 2207 L 2136 2207 L 2135 2207 L 2134 2207 L 2133 2207 L 2132 2207 L 2131 2207 L 2130 2207 L 2129 2207 L 2128 2207 L 2127 2207 L 2126 2207 L 2125 2207 L 2124 2207 L 2123 2207 L 2122 2207 L 2121 2207 L 2120 2207 L 2119 2207 L 2118 2207 L 2117 2207 L 2116 2207 L 2115 2207 L 2114 2207 L 2113 2207 L 2112 2207 L 2111 2207 L 2110 2207 L 2109 2207 L 2108 2207 L 2107 2207 L 2106 2207 L 2105 2207 L 2104 2207 L 2103 2207 L 2102 2207 L 2101 2207 L 2100 2207 L 2099 2207 L 2098 2207 L 2097 2207 L 2096 2207 L 2095 2207 L 2094 2207 L 2093 2207 L 2092 2207 L 2091 2207 L 2090 2207 L 2089 2207 L 2088 2207 L 2087 2207 L 2086 2207 L 2085 2207 L 2084 2207 L 2083 2207 L 2082 2207 L 2081 2207 L 2080 2207 L 2079 2207 L 2078 2207 L 2077 2207 L 2076 2207 L 2075 2207 L 2074 2207 L 2073 2207 L 2072 2207 L 2071 2207 L 2070 2207 L 2069 2207 L 2068 2207 L 2067 2207 L 2066 2207 L 2065 2207 L 2064 2207 L 2063 2207 L 2062 2207 L 2061 2207 L 2060 2207 L 2059 2207 L 2058 2207 L 2057 2207 L 2056 2207 L 2055 2207 L 2054 2207 L 2053 2207 L 2052 2207 L 2051 2207 L 2050 2207 L 2049 2207 L 2048 2207 L 2047 2207 L 2046 2207 L 2045 2207 L 2044 2207 L 2043 2207 L 2042 2207 L 2041 2207 L 2040 2207 L 2039 2207 L 2038 2207 L 2037 2207 L 2036 2207 L 2035 2207 L 2034 2207 L 2033 2207 L 2032 2207 L 2031 2207 L 2030 2207 L 2029 2207 L 2028 2207 L 2027 2207 L 2026 2207 L 2025 2207 L 2024 2207 L 2023 2207 L 2022 2207 L 2021 2207 L 2020 2207 L 2019 2207 L 2018 2207 L 2017 2207 L 2016 2207 L 2015 2207 L 2014 2207 L 2013 2207 L 2012 2207 L 2011 2207 L 2010 2207 L 2009 2207 L 2008 2207 L 2007 2207 L 2006 2207 L 2005 2207 L 2004 2207 L 2003 2207 L 2002 2207 L 2001 2207 L 2000 2207 L 1999 2207 L 1998 2207 L 1997 2207 L 1996 2207 L 1995 2207 L 1994 2207 L 1993 2207 L 1992 2207 L 1991 2207 L 1990 2207 L 1989 2207 L 1988 2207 L 1987 2207 L 1986 2207 L 1985 2207 L 1984 2207 L 1983 2207 L 1982 2207 L 1981 2207 L 1980 2207 L 1979 2207 L 1978 2207 L 1977 2207 L 1976 2207 L 1975 2207 L 1974 2207 L 1973 2207 L 1972 2207 L 1971 2207 L 1970 2207 L 1969 2207 L 1968 2207 L 1967 2207 L 1966 2207 L 1965 2207 L 1964 2207 L 1963 2207 L 1962 2207 L 1961 2207 L 1960 2207 L 1959 2207 L 1958 2207 L 1957 2207 L 1956 2207 L 1955 2207 L 1954 2207 L 1953 2207 L 1952 2207 L 1951 2207 L 1950 2207 L 1949 2207 L 1948 2207 L 1947 2207 L 1946 2207 L 1945 2207 L 1944 2207 L 1943 2207 L 1942 2207 L 1941 2207 L 1940 2207 L 1939 2207 L 1938 2207 L 1937 2207 L 1936 2207 L 1935 2207 L 1934 2207 L 1933 2207 L 1932 2207 L 1931 2207 L 1930 2207 L 1929 2207 L 1928 2207 L 1927 2207 L 1926 2207 L 1925 2207 L 1924 2207 L 1923 2207 L 1922 2207 L 1921 2207 L 1920 2207 L 1919 2207 L 1918 2207 L 1917 2207 L 1916 2207 L 1915 2207 L 1914 2207 L 1913 2207 L 1912 2207 L 1911 2207 L 1910 2207 L 1909 2207 L 1908 2207 L 1907 2207 L 1906 2207 L 1905 2207 L 1904 2207 L 1903 2207 L 1902 2207 L 1901 2207 L 1900 2207 L 1899 2207 L 1898 2207 L 1897 2207 L 1896 2207 L 1895 2207 L 1894 2207 L 1893 2207 L 1892 2207 L 1891 2207 L 1890 2207 L 1889 2207 L 1888 2207 L 1887 2207 L 1886 2207 L 1885 2207 L 1884 2207 L 1883 2207 L 1882 2207 L 1881 2207 L 1880 2207 L 1879 2207 L 1878 2207 L 1877 2207 L 1876 2207 L 1875 2207 L 1874 2207 L 1873 2207 L 1872 2207 L 1871 2207 L 1870 2207 L 1869 2207 L 1868 2207 L 1867 2207 L 1866 2207 L 1865 2207 L 1864 2207 L 1863 2207 L 1862 2207 L 1861 2207 L 1860 2207 L 1859 2207 L 1858 2207 L 1857 2207 L 1856 2207 L 1855 2207 L 1854 2207 L 1853 2207 L 1852 2207 L 1851 2207 L 1850 2207 L 1849 2207 L 1848 2207 L 1847 2207 L 1846 2207 L 1845 2207 L 1844 2207 L 1843 2207 L 1842 2207 L 1841 2207 L 1840 2207 L 1839 2207 L 1838 2207 L 1837 2207 L 1836 2207 L 1835 2207 L 1834 2207 L 1833 2207 L 1832 2207 L 1831 2207 L 1830 2207 L 1829 2207 L 1828 2207 L 1827 2207 L 1826 2207 L 1825 2207 L 1824 2207 L 1823 2207 L 1822 2207 L 1821 2207 L 1820 2207 L 1819 2207 L 1818 2207 L 1817 2207 L 1816 2207 L 1815 2207 L 1814 2207 L 1813 2207 L 1812 2207 L 1811 2207 L 1810 2207 L 1809 2207 L 1808 2207 L 1807 2207 L 1806 2207 L 1805 2207 L 1804 2207 L 1803 2207 L 1802 2207 L 1801 2207 L 1800 2207 L 1799 2207 L 1798 2207 L 1797 2207 L 1796 2207 L 1795 2207 L 1794 2207 L 1793 2207 L 1792 2207 L 1791 2207 L 1790 2207 L 1789 2207 L 1788 2207 L 1787 2207 L 1786 2207 L 1785 2207 L 1784 2207 L 1783 2207 L 1782 2207 L 1781 2207 L 1780 2207 L 1779 2207 L 1778 2207 L 1777 2207 L 1776 2207 L 1775 2207 L 1774 2207 L 1773 2207 L 1772 2207 L 1771 2207 L 1770 2207 L 1769 2207 L 1768 2207 L 1767 2207 L 1766 2207 L 1765 2207 L 1764 2207 L 1763 2207 L 1762 2207 L 1761 2207 L 1760 2207 L 1759 2207 L 1758 2207 L 1757 2207 L 1756 2207 L 1755 2207 L 1754 2207 L 1753 2207 L 1752 2207 L 1751 2207 L 1750 2207 L 1749 2207 L 1748 2207 L 1747 2207 L 1746 2207 L 1745 2207 L 1744 2207 L 1743 2207 L 1742 2207 L 1741 2207 L 1740 2207 L 1739 2207 L 1738 2207 L 1737 2207 L 1736 2207 L 1735 2207 L 1734 2207 L 1733 2207 L 1732 2207 L 1731 2207 L 1730 2207 L 1729 2207 L 1728 2207 L 1727 2207 L 1726 2207 L 1725 2207 L 1724 2207 L 1723 2207 L 1722 2207 L 1721 2207 L 1720 2207 L 1719 2207 L 1718 2207 L 1717 2207 L 1716 2207 L 1715 2207 L 1714 2207 L 1713 2207 L 1712 2207 L 1711 2207 L 1710 2207 L 1709 2207 L 1708 2207 L 1707 2207 L 1706 2207 L 1705 2207 L 1704 2207 L 1703 2207 L 1702 2207 L 1701 2207 L 1700 2207 L 1699 2207 L 1698 2207 L 1697 2207 L 1696 2207 L 1695 2207 L 1694 2207 L 1693 2207 L 1692 2207 L 1691 2207 L 1690 2207 L 1689 2207 L 1688 2207 L 1687 2207 L 1686 2207 L 1685 2207 L 1684 2207 L 1683 2207 L 1682 2207 L 1681 2207 L 1680 2207 L 1679 2207 L 1678 2207 L 1677 2207 L 1676 2207 L 1675 2207 L 1674 2207 L 1673 2207 L 1672 2207 L 1671 2207 L 1670 2207 L 1669 2207 L 1668 2207 L 1667 2207 L 1666 2207 L 1665 2207 L 1664 2207 L 1663 2207 L 1662 2207 L 1661 2207 L 1660 2207 L 1659 2207 L 1658 2207 L 1657 2207 L 1656 2207 L 1655 2207 L 1654 2207 L 1653 2207 L 1652 2207 L 1651 2207 L 1650 2207 L 1649 2207 L 1648 2207 L 1647 2207 L 1646 2207 L 1645 2207 L 1644 2207 L 1643 2207 L 1642 2207 L 1641 2207 L 1640 2207 L 1639 2207 L 1638 2207 L 1637 2207 L 1636 2207 L 1635 2207 L 1634 2207 L 1633 2207 L 1632 2207 L 1631 2207 L 1630 2207 L 1629 2207 L 1628 2207 L 1627 2207 L 1626 2207 L 1625 2207 L 1624 2207 L 1623 2207 L 1622 2207 L 1621 2207 L 1620 2207 L 1619 2207 L 1618 2207 L 1617 2207 L 1616 2207 L 1615 2207 L 1614 2207 L 1613 2207 L 1612 2207 L 1611 2207 L 1610 2207 L 1609 2207 L 1608 2207 L 1607 2207 L 1606 2207 L 1605 2207 L 1604 2207 L 1603 2207 L 1602 2207 L 1601 2207 L 1600 2207 L 1599 2207 L 1598 2207 L 1597 2207 L 1596 2207 L 1595 2207 L 1594 2207 L 1593 2207 L 1592 2207 L 1591 2207 L 1590 2207 L 1589 2207 L 1588 2207 L 1587 2207 L 1586 2207 L 1585 2207 L 1584 2207 L 1583 2207 L 1582 2207 L 1581 2207 L 1580 2207 L 1579 2207 L 1578 2207 L 1577 2207 L 1576 2207 L 1575 2207 L 1574 2207 L 1573 2207 L 1572 2207 L 1571 2207 L 1570 2207 L 1569 2207 L 1568 2207 L 1567 2207 L 1566 2207 L 1565 2207 L 1564 2207 L 1563 2207 L 1562 2207 L 1561 2207 L 1560 2207 L 1559 2207 L 1558 2207 L 1557 2207 L 1556 2207 L 1555 2207 L 1554 2207 L 1553 2207 L 1552 2207 L 1551 2207 L 1550 2207 L 1549 2207 L 1548 2207 L 1547 2207 L 1546 2207 L 1545 2207 L 1544 2207 L 1543 2207 L 1542 2207 L 1541 2207 L 1540 2207 L 1539 2207 L 1538 2207 L 1537 2207 L 1536 2207 L 1535 2207 L 1534 2207 L 1533 2207 L 1532 2207 L 1531 2207 L 1530 2207 L 1529 2207 L 1528 2207 L 1527 2207 L 1526 2207 L 1525 2207 L 1524 2207 L 1523 2207 L 1522 2207 L 1521 2207 L 1520 2207 L 1519 2207 L 1518 2207 L 1517 2207 L 1516 2207 L 1515 2207 L 1514 2207 L 1513 2207 L 1512 2207 L 1511 2207 L 1510 2207 L 1509 2207 L 1508 2207 L 1507 2207 L 1506 2207 L 1505 2207 L 1504 2207 L 1503 2207 L 1502 2207 L 1501 2207 L 1500 2207 L 1499 2207 L 1498 2207 L 1497 2207 L 1496 2207 L 1495 2207 L 1494 2207 L 1493 2207 L 1492 2207 L 1491 2207 L 1490 2207 L 1489 2207 L 1488 2207 L 1487 2207 L 1486 2207 L 1485 2207 L 1484 2207 L 1483 2207 L 1482 2207 L 1481 2207 L 1480 2207 L 1479 2207 L 1478 2207 L 1477 2207 L 1476 2207 L 1475 2207 L 1474 2207 L 1473 2207 L 1472 2207 L 1471 2207 L 1470 2207 L 1469 2207 L 1468 2207 L 1467 2207 L 1466 2207 L 1465 2207 L 1464 2207 L 1463 2207 L 1462 2207 L 1461 2207 L 1460 2207 L 1459 2207 L 1458 2207 L 1457 2207 L 1456 2207 L 1455 2207 L 1454 2207 L 1453 2207 L 1452 2207 L 1451 2207 L 1450 2207 L 1449 2207 L 1448 2207 L 1447 2207 L 1446 2207 L 1445 2207 L 1444 2207 L 1443 2207 L 1442 2207 L 1441 2207 L 1440 2207 L 1439 2207 L 1438 2207 L 1437 2207 L 1436 2207 L 1435 2207 L 1434 2207 L 1433 2207 L 1432 2207 L 1431 2207 L 1430 2207 L 1429 2207 L 1428 2207 L 1427 2207 L 1426 2207 L 1425 2207 L 1424 2207 L 1423 2207 L 1422 2207 L 1421 2207 L 1420 2207 L 1419 2207 L 1418 2207 L 1417 2207 L 1416 2207 L 1415 2207 L 1414 2207 L 1413 2207 L 1412 2207 L 1411 2207 L 1410 2207 L 1409 2207 L 1408 2207 L 1407 2207 L 1406 2207 L 1405 2207 L 1404 2207 L 1403 2207 L 1402 2207 L 1401 2207 L 1400 2207 L 1399 2207 L 1398 2207 L 1397 2207 L 1396 2207 L 1395 2207 L 1394 2207 L 1393 2207 L 1392 2207 L 1391 2207 L 1390 2207 L 1389 2207 L 1388 2207 L 1387 2207 L 1386 2207 L 1385 2207 L 1384 2207 L 1383 2207 L 1382 2207 L 1381 2207 L 1380 2207 L 1379 2207 L 1378 2207 L 1377 2207 L 1376 2207 L 1375 2207 L 1374 2207 L 1373 2207 L 1372 2207 L 1371 2207 L 1370 2207 L 1369 2207 L 1368 2207 L 1367 2207 L 1366 2207 L 1365 2207 L 1364 2207 L 1363 2207 L 1362 2207 L 1361 2207 L 1360 2207 L 1359 2207 L 1358 2207 L 1357 2207 L 1356 2207 L 1355 2207 L 1354 2207 L 1353 2207 L 1352 2207 L 1351 2207 L 1350 2207 L 1349 2207 L 1348 2207 L 1347 2207 L 1346 2207 L 1345 2207 L 1344 2207 L 1343 2207 L 1342 2207 L 1341 2207 L 1340 2207 L 1339 2207 L 1338 2207 L 1337 2207 L 1336 2207 L 1335 2207 L 1334 2207 L 1333 2207 L 1332 2207 L 1331 2207 L 1330 2207 L 1329 2207 L 1328 2207 L 1327 2207 L 1326 2207 L 1325 2207 L 1324 2207 L 1323 2207 L 1322 2207 L 1321 2207 L 1320 2207 L 1319 2207 L 1318 2207 L 1317 2207 L 1316 2207 L 1315 2207 L 1314 2207 L 1313 2207 L 1312 2207 L 1311 2207 L 1310 2207 L 1309 2207 L 1308 2207 L 1307 2207 L 1306 2207 L 1305 2207 L 1304 2207 L 1303 2207 L 1302 2207 L 1301 2207 L 1300 2207 L 1299 2207 L 1298 2207 L 1297 2207 L 1296 2207 L 1295 2207 L 1294 2207 L 1293 2207 L 1292 2207 L 1291 2207 L 1290 2207 L 1289 2207 L 1288 2207 L 1287 2207 L 1286 2207 L 1285 2207 L 1284 2207 L 1283 2207 L 1282 2207 L 1281 2207 L 1280 2207 L 1279 2207 L 1278 2207 L 1277 2207 L 1276 2207 L 1275 2207 L 1274 2207 L 1273 2207 L 1272 2207 L 1271 2207 L 1270 2207 L 1269 2207 L 1268 2207 L 1267 2207 L 1266 2207 L 1265 2207 L 1264 2207 L 1263 2207 L 1262 2207 L 1261 2207 L 1260 2207 L 1259 2207 L 1258 2207 L 1257 2207 L 1256 2207 L 1255 2207 L 1254 2207 L 1253 2207 L 1252 2207 L 1251 2207 L 1250 2207 L 1249 2207 L 1248 2207 L 1247 2207 L 1246 2207 L 1245 2207 L 1244 2207 L 1243 2207 L 1242 2207 L 1241 2207 L 1240 2207 L 1239 2207 L 1238 2207 L 1237 2207 L 1236 2207 L 1235 2207 L 1234 2207 L 1233 2207 L 1232 2207 L 1231 2207 L 1230 2207 L 1229 2207 L 1228 2207 L 1227 2207 L 1226 2207 L 1225 2207 L 1224 2207 L 1223 2207 L 1222 2207 L 1221 2207 L 1220 2207 L 1219 2207 L 1218 2207 L 1217 2207 L 1216 2207 L 1215 2207 L 1214 2207 L 1213 2207 L 1212 2207 L 1211 2207 L 1210 2207 L 1209 2207 L 1208 2207 L 1207 2207 L 1206 2207 L 1205 2207 L 1204 2207 L 1203 2207 L 1202 2207 L 1201 2207 L 1200 2207 L 1199 2207 L 1198 2207 L 1197 2207 L 1196 2207 L 1195 2207 L 1194 2207 L 1193 2207 L 1192 2207 L 1191 2207 L 1190 2207 L 1189 2207 L 1188 2207 L 1187 2207 L 1186 2207 L 1185 2207 L 1184 2207 L 1183 2207 L 1182 2207 L 1181 2207 L 1180 2207 L 1179 2207 L 1178 2207 L 1177 2207 L 1176 2207 L 1175 2207 L 1174 2207 L 1173 2207 L 1172 2207 L 1171 2207 L 1170 2207 L 1169 2207 L 1168 2207 L 1167 2207 L 1166 2207 L 1165 2207 L 1164 2207 L 1163 2207 L 1162 2207 L 1161 2207 L 1160 2207 L 1159 2207 L 1158 2207 L 1157 2207 L 1156 2207 L 1155 2207 L 1154 2207 L 1153 2207 L 1152 2207 L 1151 2207 L 1150 2207 L 1149 2207 L 1148 2207 L 1147 2207 L 1146 2207 L 1145 2207 L 1144 2207 L 1143 2207 L 1142 2207 L 1141 2207 L 1140 2207 L 1139 2207 L 1138 2207 L 1137 2207 L 1136 2207 L 1135 2207 L 1134 2207 L 1133 2207 L 1132 2207 L 1131 2207 L 1130 2207 L 1129 2207 L 1128 2207 L 1127 2207 L 1126 2207 L 1125 2207 L 1124 2207 L 1123 2207 L 1122 2207 L 1121 2207 L 1120 2207 L 1119 2207 L 1118 2207 L 1117 2207 L 1116 2207 L 1115 2207 L 1114 2207 L 1113 2207 L 1112 2207 L 1111 2207 L 1110 2207 L 1109 2207 L 1108 2207 L 1107 2207 L 1106 2207 L 1105 2207 L 1104 2207 L 1103 2207 L 1102 2207 L 1101 2207 L 1100 2207 L 1099 2207 L 1098 2207 L 1097 2207 L 1096 2207 L 1095 2207 L 1094 2207 L 1093 2207 L 1092 2207 L 1091 2207 L 1090 2207 L 1089 2207 L 1088 2207 L 1087 2207 L 1086 2207 L 1085 2207 L 1084 2207 L 1083 2207 L 1082 2207 L 1081 2207 L 1080 2207 L 1079 2207 L 1078 2207 L 1077 2207 L 1076 2207 L 1075 2207 L 1074 2207 L 1073 2207 L 1072 2207 L 1071 2207 L 1070 2207 L 1069 2207 L 1068 2207 L 1067 2207 L 1066 2207 L 1065 2207 L 1064 2207 L 1063 2207 L 1062 2207 L 1061 2207 L 1060 2207 L 1059 2207 L 1058 2207 L 1057 2207 L 1056 2207 L 1055 2207 L 1054 2207 L 1053 2207 L 1052 2207 L 1051 2207 L 1050 2207 L 1049 2207 L 1048 2207 L 1047 2207 L 1046 2207 L 1045 2207 L 1044 2207 L 1043 2207 L 1042 2207 L 1041 2207 L 1040 2207 L 1039 2207 L 1038 2207 L 1037 2207 L 1036 2207 L 1035 2207 L 1034 2207 L 1033 2207 L 1032 2207 L 1031 2207 L 1030 2207 L 1029 2207 L 1028 2207 L 1027 2207 L 1026 2207 L 1025 2207 L 1024 2207 L 1023 2207 L 1022 2207 L 1021 2207 L 1020 2207 L 1019 2207 L 1018 2207 L 1017 2207 L 1016 2207 L 1015 2207 L 1014 2207 L 1013 2207 L 1012 2207 L 1011 2207 L 1010 2207 L 1009 2207 L 1008 2207 L 1007 2207 L 1006 2207 L 1005 2207 L 1004 2207 L 1003 2207 L 1002 2207 L 1001 2207 L 1000 2207 L 999 2207 L 998 2207 L 997 2207 L 996 2207 L 995 2207 L 994 2207 L 993 2207 L 992 2207 L 991 2207 L 990 2207 L 989 2207 L 988 2207 L 987 2207 L 986 2207 L 985 2207 L 984 2207 L 983 2207 L 982 2207 L 981 2207 L 980 2207 L 979 2207 L 978 2207 L 977 2207 L 976 2207 L 975 2207 L 974 2207 L 973 2207 L 972 2207 L 971 2207 L 970 2207 L 969 2207 L 968 2207 L 967 2207 L 966 2207 L 965 2207 L 964 2207 L 963 2207 L 962 2207 L 961 2207 L 960 2207 L 959 2207 L 958 2207 L 957 2207 L 956 2207 L 955 2207 L 954 2207 L 953 2207 L 952 2207 L 951 2207 L 950 2207 L 949 2207 L 948 2207 L 947 2207 L 946 2207 L 945 2207 L 944 2207 L 943 2207 L 942 2207 L 941 2207 L 940 2207 L 939 2207 L 938 2207 L 937 2207 L 936 2207 L 935 2207 L 934 2207 L 933 2207 L 932 2207 L 931 2207 L 930 2207 L 929 2207 L 928 2207 L 927 2207 L 926 2207 L 925 2207 L 924 2207 L 923 2207 L 922 2207 L 921 2207 L 920 2207 L 919 2207 L 918 2207 L 917 2207 L 916 2207 L 915 2207 L 914 2207 L 913 2207 L 912 2207 L 911 2207 L 910 2207 L 909 2207 L 908 2207 L 907 2207 L 906 2207 L 905 2207 L 904 2207 L 903 2207 L 902 2207 L 901 2207 L 900 2207 L 899 2207 L 898 2207 L 897 2207 L 896 2207 L 895 2207 L 894 2207 L 893 2207 L 892 2207 L 891 2207 L 890 2207 L 889 2207 L 888 2207 L 887 2207 L 886 2207 L 885 2207 L 884 2207 L 883 2207 L 882 2207 L 881 2207 L 880 2207 L 879 2207 L 878 2207 L 877 2207 L 876 2207 L 875 2207 L 874 2207 L 873 2207 L 872 2207 L 871 2207 L 870 2207 L 869 2207 L 868 2207 L 867 2207 L 866 2207 L 865 2207 L 864 2207 L 863 2207 L 862 2207 L 861 2207 L 860 2207 L 859 2207 L 858 2207 L 857 2207 L 856 2207 L 855 2207 L 854 2207 L 853 2207 L 852 2207 L 851 2207 L 850 2207 L 849 2207 L 848 2207 L 847 2207 L 846 2207 L 845 2207 L 844 2207 L 843 2207 L 842 2207 L 841 2207 L 840 2207 L 839 2207 L 838 2207 L 837 2207 L 836 2207 L 835 2207 L 834 2207 L 833 2207 L 832 2207 L 831 2207 L 830 2207 L 829 2207 L 828 2207 L 827 2207 L 826 2207 L 825 2207 L 824 2207 L 823 2207 L 822 2207 L 821 2207 L 820 2207 L 819 2207 L 818 2207 L 817 2207 L 816 2207 L 815 2207 L 814 2207 L 813 2207 L 812 2207 L 811 2207 L 810 2207 L 809 2207 L 808 2207 L 807 2207 L 806 2207 L 805 2207 L 804 2207 L 803 2207 L 802 2207 L 801 2207 L 800 2207 L 799 2207 L 798 2207 L 797 2207 L 796 2207 L 795 2207 L 794 2207 L 793 2207 L 792 2207 L 791 2207 L 790 2207 L 789 2207 L 788 2207 L 787 2207 L 786 2207 L 785 2207 L 784 2207 L 783 2207 L 782 2207 L 781 2207 L 780 2207 L 779 2207 L 778 2207 L 777 2207 L 776 2207 L 775 2207 L 774 2207 L 773 2207 L 772 2207 L 771 2207 L 770 2207 L 769 2207 L 768 2207 L 767 2207 L 766 2207 L 765 2207 L 764 2207 L 763 2207 L 762 2207 L 761 2207 L 760 2207 L 759 2207 L 758 2207 L 757 2207 L 756 2207 L 755 2207 L 754 2207 L 753 2207 L 752 2207 L 751 2207 L 750 2207 L 749 2207 L 748 2207 L 747 2207 L 746 2207 L 745 2207 L 744 2207 L 743 2207 L 742 2207 L 741 2207 L 740 2207 L 739 2207 L 738 2207 L 737 2207 L 736 2207 L 735 2207 L 734 2207 L 733 2207 L 732 2207 L 731 2207 L 730 2207 L 729 2207 L 728 2207 L 727 2207 L 726 2207 L 725 2207 L 724 2207 L 723 2207 L 722 2207 L 721 2207 L 720 2207 L 719 2207 L 718 2207 L 717 2207 L 716 2207 L 715 2207 L 714 2207 L 713 2207 L 712 2207 L 711 2207 L 710 2207 L 709 2207 L 708 2207 L 707 2207 L 706 2207 L 705 2207 L 704 2207 L 703 2207 L 702 2207 L 701 2207 L 700 2207 L 699 2207 L 698 2207 L 697 2207 L 696 2207 L 695 2207 L 694 2207 L 693 2207 L 692 2207 L 691 2207 L 690 2207 L 689 2207 L 688 2207 L 687 2207 L 686 2207 L 685 2207 L 684 2207 L 683 2207 L 682 2207 L 681 2207 L 680 2207 L 679 2207 L 678 2207 L 677 2207 L 676 2207 L 675 2207 L 674 2207 L 673 2207 L 672 2207 L 671 2207 L 670 2207 L 669 2207 L 668 2207 L 667 2207 L 666 2207 L 665 2207 L 664 2207 L 663 2207 L 662 2207 L 661 2207 L 660 2207 L 659 2207 L 658 2207 L 657 2207 L 656 2207 L 655 2207 L 654 2207 L 653 2207 L 652 2207 L 651 2207 L 650 2207 L 649 2207 L 648 2207 L 647 2207 L 646 2207 L 645 2207 L 644 2207 L 643 2207 L 642 2207 L 641 2207 L 640 2207 L 639 2207 L 638 2207 L 637 2207 L 636 2207 L 635 2207 L 634 2207 L 633 2207 L 632 2207 L 631 2207 L 630 2207 L 629 2207 L 628 2207 L 627 2207 L 626 2207 L 625 2207 L 624 2207 L 623 2207 L 622 2207 L 621 2207 L 620 2207 L 619 2207 L 618 2207 L 617 2207 L 616 2207 L 615 2207 L 614 2207 L 613 2207 L 612 2207 L 611 2207 L 610 2207 L 609 2207 L 608 2207 L 607 2207 L 606 2207 L 605 2207 L 604 2207 L 603 2207 L 602 2207 L 601 2207 L 600 2207 L 599 2207 L 598 2207 L 597 2207 L 596 2207 L 595 2207 L 594 2207 L 593 2207 L 592 2207 L 591 2207 L 590 2207 L 589 2207 L 588 2207 L 587 2207 L 586 2207 L 585 2207 L 584 2207 L 583 2207 L 582 2207 L 581 2207 L 580 2207 L 579 2207 L 578 2207 L 577 2207 L 576 2207 L 575 2207 L 574 2207 L 573 2207 L 572 2207 L 571 2207 L 570 2207 L 569 2207 L 568 2207 L 567 2207 L 566 2207 L 565 2207 L 564 2207 L 563 2207 L 562 2207 L 561 2207 L 560 2207 L 559 2207 L 558 2207 L 557 2207 L 556 2207 L 555 2207 L 554 2207 L 553 2207 L 552 2207 L 551 2207 L 550 2207 L 549 2207 L 548 2207 L 547 2207 L 546 2207 L 545 2207 L 544 2207 L 543 2207 L 542 2207 L 541 2207 L 540 2207 L 539 2207 L 538 2207 L 537 2207 L 536 2207 L 535 2207 L 534 2207 L 533 2207 L 532 2207 L 531 2207 L 530 2207 L 529 2207 L 528 2207 L 527 2207 L 526 2207 L 525 2207 L 524 2207 L 523 2207 L 522 2207 L 521 2207 L 520 2207 L 519 2207 L 518 2207 L 517 2207 L 516 2207 L 515 2207 L 514 2207 L 513 2207 L 512 2207 L 511 2207 L 510 2207 L 509 2207 L 508 2207 L 507 2207 L 506 2207 L 505 2207 L 504 2207 L 503 2207 L 502 2207 L 501 2207 L 500 2207 L 499 2207 L 498 2207 L 497 2207 L 496 2207 L 495 2207 L 494 2207 L 493 2207 L 492 2207 L 491 2207 L 490 2207 L 489 2207 L 488 2207 L 487 2207 L 486 2207 L 485 2207 L 484 2207 L 483 2207 L 482 2207 L 481 2207 L 480 2207 L 479 2207 L 478 2207 L 477 2207 L 476 2207 L 475 2207 L 474 2207 L 473 2207 L 472 2207 L 471 2207 L 470 2207 L 469 2207 L 468 2207 L 467 2207 L 466 2207 L 465 2207 L 464 2207 L 463 2207 L 462 2207 L 461 2207 L 460 2207 L 459 2207 L 458 2207 L 457 2207 L 456 2207 L 455 2207 L 454 2207 L 453 2207 L 452 2207 L 451 2207 L 450 2207 L 449 2207 L 448 2207 L 447 2207 L 446 2207 L 445 2207 L 444 2207 L 443 2207 L 442 2207 L 441 2207 L 440 2207 L 439 2207 L 438 2207 L 437 2207 L 436 2207 L 435 2207 L 434 2207 L 433 2207 L 432 2207 L 431 2207 L 430 2207 L 429 2207 L 428 2207 L 427 2207 L 426 2207 L 425 2207 L 424 2207 L 423 2207 L 422 2207 L 421 2207 L 420 2207 L 419 2207 L 418 2207 L 417 2207 L 416 2207 L 415 2207 L 414 2207 L 413 2207 L 412 2207 L 411 2207 L 410 2207 L 409 2207 L 408 2207 L 407 2207 L 406 2207 L 405 2207 L 404 2207 L 403 2207 L 402 2207 L 401 2207 L 400 2207 L 399 2207 L 398 2207 L 397 2207 L 396 2207 L 395 2207 L 394 2207 L 393 2207 L 392 2207 L 391 2207 L 390 2207 L 389 2207 L 388 2207 L 387 2207 L 386 2207 L 385 2207 L 384 2207 L 383 2207 L 382 2207 L 381 2207 L 380 2207 L 379 2207 L 378 2207 L 377 2207 L 376 2207 L 375 2207 L 374 2207 L 373 2207 L 372 2207 L 371 2207 L 370 2207 L 369 2207 L 368 2207 L 367 2207 L 366 2207 L 365 2207 L 364 2207 L 363 2207 L 362 2207 L 361 2207 L 360 2207 L 359 2207 L 358 2207 L 357 2207 L 356 2207 L 355 2207 L 354 2207 L 353 2207 L 352 2207 L 351 2207 L 350 2207 L 349 2207 L 348 2207 L 347 2207 L 346 2207 L 345 2207 L 344 2207 L 343 2207 L 342 2207 L 341 2207 L 340 2207 L 339 2207 L 338 2207 L 337 2207 L 336 2207 L 335 2207 L 334 2207 L 333 2207 L 332 2207 L 331 2207 L 330 2207 L 329 2207 L 328 2207 L 327 2207 L 326 2207 L 325 2207 L 324 2207 L 323 2207 L 322 2207 L 321 2207 L 320 2207 L 319 2207 L 318 2207 L 317 2207 L 316 2207 L 315 2207 L 314 2207 L 313 2207 L 312 2207 L 311 2207 L 310 2207 L 309 2207 L 308 2207 L 307 2207 L 306 2207 L 305 2207 L 304 2207 L 303 2207 L 302 2207 L 301 2207 L 300 2207 L 299 2207 L 298 2207 L 297 2207 L 296 2207 L 295 2207 L 294 2207 L 293 2207 L 292 2207 L 291 2207 L 290 2207 L 289 2207 L 288 2207 L 287 2207 L 286 2207 L 285 2207 L 284 2207 L 283 2207 L 282 2207 L 281 2207 L 280 2207 L 279 2207 L 278 2207 L 277 2207 L 276 2207 L 275 2207 L 274 2207 L 273 2207 L 272 2207 L 271 2207 L 270 2207 L 269 2207 L 268 2207 L 267 2207 L 266 2207 L 265 2207 L 264 2207 L 263 2207 L 262 2207 L 261 2207 L 260 2207 L 259 2207 L 258 2207 L 257 2207 L 256 2207 L 255 2207 L 254 2207 L 253 2207 L 252 2207 L 251 2207 L 250 2207 L 249 2207 L 248 2207 L 247 2207 L 246 2207 L 245 2207 L 244 2207 L 243 2207 L 242 2207 L 241 2207 L 240 2207 L 239 2207 L 238 2207 L 237 2207 L 236 2207 L 235 2207 L 234 2207 L 233 2207 L 232 2207 L 231 2207 L 230 2207 L 229 2207 L 228 2207 L 227 2207 L 226 2207 L 225 2207 L 224 2207 L 223 2207 L 222 2207 L 221 2207 L 220 2207 L 219 2207 L 218 2207 L 217 2207 L 216 2207 L 215 2207 L 214 2207 L 213 2207 L 212 2207 L 211 2207 L 210 2207 L 209 2207 L 208 2207 L 207 2207 L 206 2207 L 205 2207 L 204 2207 L 203 2207 L 202 2207 L 201 2207 L 200 2207 L 199 2207 L 198 2207 L 197 2207 L 196 2207 L 195 2207 L 194 2207 L 193 2207 L 192 2207 L 191 2207 L 190 2207 L 189 2207 L 188 2207 L 187 2207 L 186 2207 L 185 2207 L 184 2207 L 183 2207 L 182 2207 L 181 2207 L 180 2207 L 179 2207 L 178 2207 L 177 2207 L 176 2207 L 175 2207 L 174 2207 L 173 2207 L 172 2207 L 171 2207 L 170 2207 L 169 2207 L 168 2207 L 167 2207 L 166 2207 L 165 2207 L 164 2207 L 163 2207 L 162 2207 L 161 2207 L 160 2207 L 159 2207 L 158 2207 L 157 2207 L 156 2207 L 155 2207 L 154 2207 L 153 2207 L 152 2207 L 151 2207 L 150 2207 L 149 2207 L 148 2207 L 147 2207 L 146 2207 L 145 2207 L 144 2207 L 143 2207 L 142 2207 L 141 2207 L 140 2207 L 139 2207 L 138 2207 L 137 2207 L 136 2207 L 135 2207 L 134 2207 L 133 2207 L 132 2207 L 131 2207 L 130 2207 L 129 2207 L 128 2207 L 127 2207 L 126 2207 L 125 2207 L 124 2207 L 123 2207 L 122 2207 L 121 2207 L 120 2207 L 119 2207 L 118 2207 L 117 2207 L 116 2207 L 115 2207 L 114 2207 L 113 2207 Z"/><g id="pcb_bottom-drl" fill="#000" stroke="#000"><use x="2425" y="140.5" xlink:href="#tool-T10-pad-1000"/><use x="142.4" y="2069.3" xlink:href="#tool-T10-pad-1000"/><use x="142.4" y="140.5" xlink:href="#tool-T10-pad-1000"/><use x="2425" y="2069.3" xlink:href="#tool-T10-pad-1000"/><use x="3077.5" y="390.5" xlink:href="#tool-T11-pad-1001"/><use x="2841.2" y="390.5" xlink:href="#tool-T11-pad-1001"/><use x="2959.3" y="575.6" xlink:href="#tool-T11-pad-1001"/><use x="2132.6" y="2128.7" xlink:href="#tool-T12-pad-1002"/><use x="2032.6" y="2128.7" xlink:href="#tool-T12-pad-1002"/><use x="2232.6" y="2128.7" xlink:href="#tool-T12-pad-1002"/><use x="532.6" y="2028.7" xlink:href="#tool-T12-pad-1002"/><use x="332.6" y="2028.7" xlink:href="#tool-T12-pad-1002"/><use x="832.6" y="2028.7" xlink:href="#tool-T12-pad-1002"/><use x="632.6" y="2028.7" xlink:href="#tool-T12-pad-1002"/><use x="432.6" y="2028.7" xlink:href="#tool-T12-pad-1002"/><use x="932.6" y="2028.7" xlink:href="#tool-T12-pad-1002"/><use x="732.6" y="2028.7" xlink:href="#tool-T12-pad-1002"/><use x="1532.6" y="2028.7" xlink:href="#tool-T12-pad-1002"/><use x="1332.6" y="2028.7" xlink:href="#tool-T12-pad-1002"/><use x="1132.6" y="2028.7" xlink:href="#tool-T12-pad-1002"/><use x="1832.6" y="2028.7" xlink:href="#tool-T12-pad-1002"/><use x="1632.6" y="2028.7" xlink:href="#tool-T12-pad-1002"/><use x="1432.6" y="2028.7" xlink:href="#tool-T12-pad-1002"/><use x="1232.6" y="2028.7" xlink:href="#tool-T12-pad-1002"/><use x="1032.6" y="2028.7" xlink:href="#tool-T12-pad-1002"/><use x="1932.6" y="2028.7" xlink:href="#tool-T12-pad-1002"/><use x="1732.6" y="2028.7" xlink:href="#tool-T12-pad-1002"/><use x="332.6" y="2128.7" xlink:href="#tool-T12-pad-1002"/><use x="532.6" y="2128.7" xlink:href="#tool-T12-pad-1002"/><use x="432.6" y="2128.7" xlink:href="#tool-T12-pad-1002"/><use x="632.6" y="2128.7" xlink:href="#tool-T12-pad-1002"/><use x="832.6" y="2128.7" xlink:href="#tool-T12-pad-1002"/><use x="732.6" y="2128.7" xlink:href="#tool-T12-pad-1002"/><use x="932.6" y="2128.7" xlink:href="#tool-T12-pad-1002"/><use x="2132.6" y="2028.7" xlink:href="#tool-T12-pad-1002"/><use x="2232.6" y="2028.7" xlink:href="#tool-T12-pad-1002"/><use x="2032.6" y="2028.7" xlink:href="#tool-T12-pad-1002"/><use x="1132.6" y="2128.7" xlink:href="#tool-T12-pad-1002"/><use x="1332.6" y="2128.7" xlink:href="#tool-T12-pad-1002"/><use x="1532.6" y="2128.7" xlink:href="#tool-T12-pad-1002"/><use x="1032.6" y="2128.7" xlink:href="#tool-T12-pad-1002"/><use x="1232.6" y="2128.7" xlink:href="#tool-T12-pad-1002"/><use x="1432.6" y="2128.7" xlink:href="#tool-T12-pad-1002"/><use x="1632.6" y="2128.7" xlink:href="#tool-T12-pad-1002"/><use x="1832.6" y="2128.7" xlink:href="#tool-T12-pad-1002"/><use x="1732.6" y="2128.7" xlink:href="#tool-T12-pad-1002"/><use x="1932.6" y="2128.7" xlink:href="#tool-T12-pad-1002"/><use x="3126.3" y="827.2" xlink:href="#tool-T13-pad-1003"/><use x="3127.5" y="1401.6" xlink:href="#tool-T13-pad-1003"/><use x="662.5" y="195.5" xlink:href="#tool-T13-pad-1003"/><use x="1687.5" y="195.5" xlink:href="#tool-T13-pad-1003"/><use x="562.5" y="195.5" xlink:href="#tool-T13-pad-1003"/><use x="1237.5" y="195.5" xlink:href="#tool-T13-pad-1003"/><use x="2012.5" y="195.5" xlink:href="#tool-T13-pad-1003"/><use x="887.5" y="195.5" xlink:href="#tool-T13-pad-1003"/><use x="3126.3" y="727.2" xlink:href="#tool-T13-pad-1003"/><use x="1462.5" y="195.5" xlink:href="#tool-T13-pad-1003"/><use x="3127.5" y="1950.5" xlink:href="#tool-T13-pad-1003"/><use x="3126.9" y="952.2" xlink:href="#tool-T13-pad-1003"/><use x="1012.5" y="195.5" xlink:href="#tool-T13-pad-1003"/><use x="1787.5" y="195.5" xlink:href="#tool-T13-pad-1003"/><use x="3127.5" y="1277.2" xlink:href="#tool-T13-pad-1003"/><use x="3127.5" y="1726.1" xlink:href="#tool-T13-pad-1003"/><use x="3126.9" y="1052.2" xlink:href="#tool-T13-pad-1003"/><use x="1912.5" y="195.5" xlink:href="#tool-T13-pad-1003"/><use x="1337.5" y="195.5" xlink:href="#tool-T13-pad-1003"/><use x="3127.5" y="1501.6" xlink:href="#tool-T13-pad-1003"/><use x="787.5" y="195.5" xlink:href="#tool-T13-pad-1003"/><use x="3127.5" y="1850.5" xlink:href="#tool-T13-pad-1003"/><use x="1562.5" y="195.5" xlink:href="#tool-T13-pad-1003"/><use x="437.5" y="195.5" xlink:href="#tool-T13-pad-1003"/><use x="337.5" y="195.5" xlink:href="#tool-T13-pad-1003"/><use x="3127.5" y="1177.2" xlink:href="#tool-T13-pad-1003"/><use x="2237.5" y="195.5" xlink:href="#tool-T13-pad-1003"/><use x="3127.5" y="1626.1" xlink:href="#tool-T13-pad-1003"/><use x="1112.5" y="195.5" xlink:href="#tool-T13-pad-1003"/><use x="2137.5" y="195.5" xlink:href="#tool-T13-pad-1003"/><use x="1227.5" y="840.5" xlink:href="#tool-T14-pad-1004"/><use x="1927.5" y="1140.5" xlink:href="#tool-T14-pad-1004"/><use x="1827.5" y="1140.5" xlink:href="#tool-T14-pad-1004"/><use x="732.7" y="1830" xlink:href="#tool-T14-pad-1004"/><use x="1527.5" y="1140.5" xlink:href="#tool-T14-pad-1004"/><use x="1727.5" y="840.5" xlink:href="#tool-T14-pad-1004"/><use x="1427.5" y="1140.5" xlink:href="#tool-T14-pad-1004"/><use x="2027.5" y="840.5" xlink:href="#tool-T14-pad-1004"/><use x="1627.5" y="840.5" xlink:href="#tool-T14-pad-1004"/><use x="332.7" y="1830" xlink:href="#tool-T14-pad-1004"/><use x="1227.5" y="1140.5" xlink:href="#tool-T14-pad-1004"/><use x="1327.5" y="840.5" xlink:href="#tool-T14-pad-1004"/><use x="1727.5" y="1140.5" xlink:href="#tool-T14-pad-1004"/><use x="1927.5" y="840.5" xlink:href="#tool-T14-pad-1004"/><use x="2027.5" y="1140.5" xlink:href="#tool-T14-pad-1004"/><use x="1627.5" y="1140.5" xlink:href="#tool-T14-pad-1004"/><use x="1827.5" y="840.5" xlink:href="#tool-T14-pad-1004"/><use x="1327.5" y="1140.5" xlink:href="#tool-T14-pad-1004"/><use x="1527.5" y="840.5" xlink:href="#tool-T14-pad-1004"/><use x="1427.5" y="840.5" xlink:href="#tool-T14-pad-1004"/></g></mask></defs><g mask="url(#pcb_bottom_mech-mask)" transform="translate(3354,2211) scale(-1,-1)"><rect x="4" y="4" width="3346" height="2203" fill="currentColor" class="pcb_board-fr4"/><use class="pcb_board-cu" xlink:href="#pcb_bottom-cu"/><g><defs><g id="pcb_bottom-sm" fill="currentColor" stroke="currentColor"><use x="2841" y="391" xlink:href="#tool-D10-pad-1013"/><use x="3078" y="391" xlink:href="#tool-D10-pad-1013"/><use x="2959" y="576" xlink:href="#tool-D10-pad-1013"/><use x="3127" y="1052" xlink:href="#tool-D11-pad-1014"/><use x="3127" y="952" xlink:href="#tool-D11-pad-1014"/><use x="3126" y="827" xlink:href="#tool-D11-pad-1014"/><use x="3126" y="727" xlink:href="#tool-D11-pad-1014"/><use x="3128" y="1502" xlink:href="#tool-D11-pad-1014"/><use x="3128" y="1402" xlink:href="#tool-D11-pad-1014"/><use x="3128" y="1277" xlink:href="#tool-D11-pad-1014"/><use x="3128" y="1177" xlink:href="#tool-D11-pad-1014"/><use x="3128" y="1951" xlink:href="#tool-D11-pad-1014"/><use x="3128" y="1851" xlink:href="#tool-D11-pad-1014"/><use x="3128" y="1726" xlink:href="#tool-D11-pad-1014"/><use x="3128" y="1626" xlink:href="#tool-D11-pad-1014"/><use x="438" y="196" xlink:href="#tool-D11-pad-1014"/><use x="338" y="196" xlink:href="#tool-D11-pad-1014"/><use x="663" y="196" xlink:href="#tool-D11-pad-1014"/><use x="563" y="196" xlink:href="#tool-D11-pad-1014"/><use x="2013" y="196" xlink:href="#tool-D11-pad-1014"/><use x="1913" y="196" xlink:href="#tool-D11-pad-1014"/><use x="1563" y="196" xlink:href="#tool-D11-pad-1014"/><use x="1463" y="196" xlink:href="#tool-D11-pad-1014"/><use x="1788" y="196" xlink:href="#tool-D11-pad-1014"/><use x="1688" y="196" xlink:href="#tool-D11-pad-1014"/><use x="888" y="196" xlink:href="#tool-D11-pad-1014"/><use x="788" y="196" xlink:href="#tool-D11-pad-1014"/><use x="1338" y="196" xlink:href="#tool-D11-pad-1014"/><use x="1238" y="196" xlink:href="#tool-D11-pad-1014"/><use x="1113" y="196" xlink:href="#tool-D11-pad-1014"/><use x="1013" y="196" xlink:href="#tool-D11-pad-1014"/><use x="2425" y="2069" xlink:href="#tool-D12-pad-1015"/><use x="142" y="2069" xlink:href="#tool-D12-pad-1015"/><use x="2425" y="141" xlink:href="#tool-D12-pad-1015"/><use x="142" y="141" xlink:href="#tool-D12-pad-1015"/><use x="2238" y="196" xlink:href="#tool-D11-pad-1014"/><use x="2138" y="196" xlink:href="#tool-D11-pad-1014"/><use x="333" y="2029" xlink:href="#tool-D13-pad-1016"/><use x="433" y="2029" xlink:href="#tool-D13-pad-1016"/><use x="533" y="2029" xlink:href="#tool-D13-pad-1016"/><use x="633" y="2029" xlink:href="#tool-D13-pad-1016"/><use x="733" y="2029" xlink:href="#tool-D13-pad-1016"/><use x="833" y="2029" xlink:href="#tool-D13-pad-1016"/><use x="933" y="2029" xlink:href="#tool-D13-pad-1016"/><use x="1033" y="2029" xlink:href="#tool-D13-pad-1016"/><use x="1133" y="2029" xlink:href="#tool-D13-pad-1016"/><use x="1233" y="2029" xlink:href="#tool-D13-pad-1016"/><use x="1333" y="2029" xlink:href="#tool-D13-pad-1016"/><use x="1433" y="2029" xlink:href="#tool-D13-pad-1016"/><use x="1533" y="2029" xlink:href="#tool-D13-pad-1016"/><use x="1633" y="2029" xlink:href="#tool-D13-pad-1016"/><use x="1733" y="2029" xlink:href="#tool-D13-pad-1016"/><use x="1833" y="2029" xlink:href="#tool-D13-pad-1016"/><use x="1933" y="2029" xlink:href="#tool-D13-pad-1016"/><use x="2033" y="2029" xlink:href="#tool-D13-pad-1016"/><use x="2133" y="2029" xlink:href="#tool-D13-pad-1016"/><use x="2233" y="2029" xlink:href="#tool-D13-pad-1016"/><use x="333" y="2029" xlink:href="#tool-D13-pad-1016"/><use x="433" y="2029" xlink:href="#tool-D13-pad-1016"/><use x="533" y="2029" xlink:href="#tool-D13-pad-1016"/><use x="633" y="2029" xlink:href="#tool-D13-pad-1016"/><use x="733" y="2029" xlink:href="#tool-D13-pad-1016"/><use x="833" y="2029" xlink:href="#tool-D13-pad-1016"/><use x="933" y="2029" xlink:href="#tool-D13-pad-1016"/><use x="1033" y="2029" xlink:href="#tool-D13-pad-1016"/><use x="1133" y="2029" xlink:href="#tool-D13-pad-1016"/><use x="1233" y="2029" xlink:href="#tool-D13-pad-1016"/><use x="1333" y="2029" xlink:href="#tool-D13-pad-1016"/><use x="1433" y="2029" xlink:href="#tool-D13-pad-1016"/><use x="1533" y="2029" xlink:href="#tool-D13-pad-1016"/><use x="1633" y="2029" xlink:href="#tool-D13-pad-1016"/><use x="1733" y="2029" xlink:href="#tool-D13-pad-1016"/><use x="1833" y="2029" xlink:href="#tool-D13-pad-1016"/><use x="1933" y="2029" xlink:href="#tool-D13-pad-1016"/><use x="2033" y="2029" xlink:href="#tool-D13-pad-1016"/><use x="2133" y="2029" xlink:href="#tool-D13-pad-1016"/><use x="2233" y="2029" xlink:href="#tool-D13-pad-1016"/><use x="2233" y="2129" xlink:href="#tool-D13-pad-1016"/><use x="2133" y="2129" xlink:href="#tool-D13-pad-1016"/><use x="2033" y="2129" xlink:href="#tool-D13-pad-1016"/><use x="1933" y="2129" xlink:href="#tool-D13-pad-1016"/><use x="1833" y="2129" xlink:href="#tool-D13-pad-1016"/><use x="1733" y="2129" xlink:href="#tool-D13-pad-1016"/><use x="1633" y="2129" xlink:href="#tool-D13-pad-1016"/><use x="1533" y="2129" xlink:href="#tool-D13-pad-1016"/><use x="1433" y="2129" xlink:href="#tool-D13-pad-1016"/><use x="1333" y="2129" xlink:href="#tool-D13-pad-1016"/><use x="1233" y="2129" xlink:href="#tool-D13-pad-1016"/><use x="1133" y="2129" xlink:href="#tool-D13-pad-1016"/><use x="1033" y="2129" xlink:href="#tool-D13-pad-1016"/><use x="933" y="2129" xlink:href="#tool-D13-pad-1016"/><use x="833" y="2129" xlink:href="#tool-D13-pad-1016"/><use x="733" y="2129" xlink:href="#tool-D13-pad-1016"/><use x="633" y="2129" xlink:href="#tool-D13-pad-1016"/><use x="533" y="2129" xlink:href="#tool-D13-pad-1016"/><use x="433" y="2129" xlink:href="#tool-D13-pad-1016"/><use x="333" y="2129" xlink:href="#tool-D13-pad-1016"/><use x="733" y="1830" xlink:href="#tool-D14-pad-1017"/><use x="333" y="1830" xlink:href="#tool-D14-pad-1017"/><use x="2028" y="1141" xlink:href="#tool-D14-pad-1017"/><use x="2028" y="841" xlink:href="#tool-D14-pad-1017"/><use x="1928" y="1141" xlink:href="#tool-D14-pad-1017"/><use x="1928" y="841" xlink:href="#tool-D14-pad-1017"/><use x="1828" y="1141" xlink:href="#tool-D14-pad-1017"/><use x="1828" y="841" xlink:href="#tool-D14-pad-1017"/><use x="1728" y="1141" xlink:href="#tool-D14-pad-1017"/><use x="1728" y="841" xlink:href="#tool-D14-pad-1017"/><use x="1628" y="1141" xlink:href="#tool-D14-pad-1017"/><use x="1628" y="841" xlink:href="#tool-D14-pad-1017"/><use x="1528" y="1141" xlink:href="#tool-D14-pad-1017"/><use x="1528" y="841" xlink:href="#tool-D14-pad-1017"/><use x="1428" y="1141" xlink:href="#tool-D14-pad-1017"/><use x="1428" y="841" xlink:href="#tool-D14-pad-1017"/><use x="1328" y="1141" xlink:href="#tool-D14-pad-1017"/><use x="1328" y="841" xlink:href="#tool-D14-pad-1017"/><use x="1228" y="1141" xlink:href="#tool-D14-pad-1017"/><use x="1228" y="841" xlink:href="#tool-D14-pad-1017"/><use x="3127" y="1052" xlink:href="#tool-D15-pad-1018"/><use x="3126" y="827" xlink:href="#tool-D15-pad-1018"/><use x="3128" y="1502" xlink:href="#tool-D15-pad-1018"/><use x="3128" y="1277" xlink:href="#tool-D15-pad-1018"/><use x="3128" y="1951" xlink:href="#tool-D15-pad-1018"/><use x="3128" y="1726" xlink:href="#tool-D15-pad-1018"/><use x="438" y="196" xlink:href="#tool-D15-pad-1018"/><use x="663" y="196" xlink:href="#tool-D15-pad-1018"/><use x="2013" y="196" xlink:href="#tool-D15-pad-1018"/><use x="1563" y="196" xlink:href="#tool-D15-pad-1018"/><use x="1788" y="196" xlink:href="#tool-D15-pad-1018"/><use x="888" y="196" xlink:href="#tool-D15-pad-1018"/><use x="1338" y="196" xlink:href="#tool-D15-pad-1018"/><use x="1113" y="196" xlink:href="#tool-D15-pad-1018"/><use x="2238" y="196" xlink:href="#tool-D15-pad-1018"/><use x="2028" y="1141" xlink:href="#tool-D16-pad-1019"/></g><mask id="pcb_bottom-sm_mask" color="#000"><rect x="4" y="4" width="3346" height="2203" fill="#fff"/><use xlink:href="#pcb_bottom-sm"/></mask><mask id="pcb_bottom-cu_finish-mask" color="#fff"><use xlink:href="#pcb_bottom-cu"/></mask></defs><g mask="url(#pcb_bottom-sm_mask)"><rect x="4" y="4" width="3346" height="2203" fill="currentColor" class="pcb_board-sm"/><g id="pcb_bottom-ss" class="pcb_board-ss" fill="currentColor" stroke="currentColor"></g></g><use class="pcb_board-cf" mask="url(#pcb_bottom-cu_finish-mask)" xlink:href="#pcb_bottom-sm"/></g></g></svg>